<svg xmlns="http://www.w3.org/2000/svg" width="235" height="145"><defs><clipPath id="a"><path data-name="長方形 446" transform="translate(70 3259)" fill="#3d3d3d" stroke="#707070" d="M0 0h235v145H0z"/></clipPath></defs><g data-name="グループ 1666" transform="translate(-70 -1906)"><g data-name="マスクグループ 33" transform="translate(0 -1353)" clip-path="url(#a)"><g data-name="グループ 1467"><g data-name="グループ 1466"><path data-name="パス 905" d="M261.024 3326.123a2.64 2.64 0 00-3.581-.96l-20.14 11.63a2.526 2.526 0 00-.43-.649l-18.475-18.475a2.639 2.639 0 00-3.6-.121l-21.116 18.475a2.64 2.64 0 003.452 3.993l.021-.018 19.269-16.853 16.3 16.3-47.86 27.625v-42.256h.354a7.97 7.97 0 000-15.92h-.354v-7.833a2.639 2.639 0 10-5.278 0v7.833h-10.462l-13.294-14.357v-1.394a2.639 2.639 0 00-2.639-2.639h-15.836a2.639 2.639 0 00-2.639 2.639v31.6a78.668 78.668 0 01-15.819 47.2 2.716 2.716 0 00-.185.282 10.679 10.679 0 003.864 14.5 10.487 10.487 0 008.013 1.066 10.318 10.318 0 006.313-4.78l4.31-6.281a83.117 83.117 0 0011.823-25.923l5.434 2.747v8.208a7.918 7.918 0 0015.835 0v-17.817a2.639 2.639 0 00-1.32-2.286l-17.236-9.928c.021-.752.084-1.5.084-2.251v-13.872l7.743 8.361a2.638 2.638 0 001.935.845h14.073v44.74a2.477 2.477 0 00.1.5l-50.245 29.011a2.64 2.64 0 102.608 4.589l.031-.018 128-73.9a2.639 2.639 0 00.947-3.613zm-124.173 47.627l-4.427 6.461a5.236 5.236 0 01-7.133 1.99l-.064-.037a5.384 5.384 0 01-2.008-7.179 83.977 83.977 0 0016.557-44.893h10.748a77.907 77.907 0 01-13.673 43.658zm13.7-48.936h-10.556v-29.032h10.556zm18.473 20.657v16.292a2.639 2.639 0 11-5.278 0v-9.84a2.639 2.639 0 00-1.452-2.354l-8.05-4.062c.507-2.6.9-5.236 1.153-7.894zm-2.373-25.948l-10.821-11.685v-5.542l10.2 11.019a2.639 2.639 0 001.937.847h13.411a2.195 2.195 0 001.689 0h2.148a2.716 2.716 0 010 5.363z" fill="#3d3d3d"/></g></g><g data-name="グループ 1469"><g data-name="グループ 1468"><path data-name="パス 906" d="M166.387 3269.475h-5.543a13.282 13.282 0 100 5.278h5.543a2.639 2.639 0 100-5.278zm-18.475 10.641a7.918 7.918 0 01-7.44-5.363h14.88a7.918 7.918 0 01-7.44 5.363zm-7.44-10.641a7.842 7.842 0 0114.88 0z" fill="#3d3d3d"/></g></g><g data-name="グループ 1471"><g data-name="グループ 1470"><path data-name="パス 907" d="M118.881 3277.308a10.557 10.557 0 00-10.557 10.557v23.753a18.5 18.5 0 0018.475 18.474 2.639 2.639 0 002.639-2.639v-39.588a10.557 10.557 0 00-10.557-10.557zm5.278 47.242a13.217 13.217 0 01-10.557-12.932v-23.753a5.279 5.279 0 1110.557 0z" fill="#3d3d3d"/></g></g><g data-name="グループ 1473"><g data-name="グループ 1472"><path data-name="パス 908" d="M240.285 3298.423a10.557 10.557 0 1010.557 10.557 10.557 10.557 0 00-10.557-10.557zm0 15.835a5.278 5.278 0 115.278-5.278 5.278 5.278 0 01-5.278 5.277z" fill="#3d3d3d"/></g></g><g data-name="グループ 1475"><g data-name="グループ 1474"><path data-name="パス 909" d="M253.873 3285.002l-.015-.009a2.639 2.639 0 00-3.616.923l-2.71 4.584a2.64 2.64 0 104.542 2.692l2.71-4.574a2.639 2.639 0 00-.911-3.616z" fill="#fda14b"/></g></g><g data-name="グループ 1477"><g data-name="グループ 1476"><path data-name="パス 910" d="M263.493 3295.306a2.639 2.639 0 00-3.512-.988l-4.7 2.639a2.639 2.639 0 00-1.012 3.593 2.639 2.639 0 003.592 1.008l4.7-2.639a2.639 2.639 0 00.932-3.613z" fill="#fda14b"/></g></g><g data-name="グループ 1479"><g data-name="グループ 1478"><path data-name="パス 911" d="M264.038 3306.339h-5.424a2.639 2.639 0 100 5.278h5.424a2.639 2.639 0 000-5.278z" fill="#fda14b"/></g></g><g data-name="グループ 1481"><g data-name="グループ 1480"><path data-name="パス 912" d="M221.81 3306.339h-5.424a2.639 2.639 0 000 5.278h5.424a2.639 2.639 0 000-5.278z" fill="#fda14b"/></g></g><g data-name="グループ 1483"><g data-name="グループ 1482"><path data-name="パス 913" d="M225.162 3296.31l-4.7-2.639a2.64 2.64 0 00-2.586 4.6l4.7 2.639a2.64 2.64 0 002.589-4.6z" fill="#fda14b"/></g></g><g data-name="グループ 1485"><g data-name="グループ 1484"><path data-name="パス 914" d="M233.085 3290.504l-2.71-4.584a2.64 2.64 0 00-4.542 2.689l2.713 4.574a2.639 2.639 0 004.539-2.679z" fill="#fda14b"/></g></g><g data-name="グループ 1487"><g data-name="グループ 1486"><path data-name="パス 915" d="M240.309 3281.443a2.639 2.639 0 00-2.639 2.639v5.278a2.639 2.639 0 005.278 0v-5.277a2.639 2.639 0 00-2.639-2.64z" fill="#fda14b"/></g></g></g><circle data-name="楕円形 176" cx="6" cy="6" r="6" transform="translate(234 1950)" fill="#fda14b"/></g></svg>