<svg data-name="グループ 1581" xmlns="http://www.w3.org/2000/svg" width="365.256" height="279"><g data-name="undraw_code_review_l1q9 (1)"><path data-name="パス 928" d="M176.64 245.666c-78.655-6-172.434-67.185-167.659-130.126S104.971-5.576 183.626.427s123.533 123.24 118.758 186.184-47.09 65.058-125.744 59.055z" fill="#f9f9f9"/><ellipse data-name="楕円形 160" cx="164.166" cy="10.108" rx="164.166" ry="10.108" transform="translate(18.961 235.536)" fill="#3d3d3d"/><ellipse data-name="楕円形 161" cx="139.715" cy="7.076" rx="139.715" ry="7.076" transform="translate(43.911 238.568)" fill="#3d3d3d" opacity=".1"/><ellipse data-name="楕円形 162" cx="68.86" cy="6.57" rx="68.86" ry="6.57" transform="translate(0 265.86)" fill="#3d3d3d"/><ellipse data-name="楕円形 163" cx="58.88" cy="4.043" rx="58.88" ry="4.043" transform="translate(9.98 267.881)" fill="#3d3d3d" opacity=".1"/><path data-name="長方形 491" fill="#fff" stroke="#3d3d3d" d="M63.371 51.066h244.502v194.072H63.371z"/><path data-name="パス 929" d="M182.628 78.595H122.75c-.4 0-1 .409-1 0a1.279 1.279 0 011-1.011h59.878a1.279 1.279 0 011 1.011c-.002.408-.597 0-1 0z" fill="#f2f2f2"/><path data-name="パス 930" d="M248.494 86.611h-94.806c-.4 0 0 .409 0 0s-.4-1.011 0-1.011h94.807a1.279 1.279 0 011 1.011c-.003.408-.595 0-1.001 0z" fill="#f2f2f2"/><path data-name="パス 931" d="M182.628 94.627H122.75c-.4 0-1 .409-1 0a1.279 1.279 0 011-1.011h59.878a1.279 1.279 0 011 1.011c-.002.408-.597 0-1 0z" fill="#f2f2f2"/><path data-name="パス 932" d="M248.494 95.636h-59.878a1.011 1.011 0 010-2.022h59.878a1.011 1.011 0 010 2.022z" fill="#f2f2f2"/><path data-name="パス 933" d="M183.627 103.652h-60.876c-.4 0 0-.6 0-1.011s-.4-1.011 0-1.011h60.876c.4 0 0 .6 0 1.011s.403 1.011 0 1.011z" fill="#f2f2f2"/><path data-name="パス 934" d="M183.627 111.667h-60.876c-.4 0 0-.6 0-1.011s-.4-1.011 0-1.011h60.876c.4 0 0 .6 0 1.011s.403 1.011 0 1.011z" fill="#f2f2f2"/><path data-name="パス 935" d="M210.571 79.603h-16.965a1.011 1.011 0 010-2.022h16.965a1.011 1.011 0 010 2.022z" fill="#f2f2f2"/><path data-name="パス 936" d="M210.571 103.652h-16.965a1.011 1.011 0 010-2.022h16.965a1.011 1.011 0 010 2.022z" fill="#f2f2f2"/><path data-name="パス 937" d="M210.571 110.659h-16.965c-.4 0-1 .409-1 0a1.279 1.279 0 011-1.011h16.965a1.279 1.279 0 011 1.011c-.002.408-.596 0-1 0z" fill="#f2f2f2"/><path data-name="パス 938" d="M239.512 110.659h-16.965c-.4 0-1 .409-1 0a1.279 1.279 0 011-1.011h16.965a1.279 1.279 0 011 1.011c-.002.408-.596 0-1 0z" fill="#f2f2f2"/><path data-name="パス 939" d="M139.715 86.611H122.75c-.4 0-1 .409-1 0a1.279 1.279 0 011-1.011h16.965a1.279 1.279 0 011 1.011c-.002.408-.596 0-1 0z" fill="#f2f2f2"/><path data-name="パス 940" d="M182.628 197.837H122.75a1.279 1.279 0 01-1-1.011c0-.409.594 0 1 0h59.878c.4 0 1-.409 1 0a1.279 1.279 0 01-1 1.011z" fill="#f2f2f2"/><path data-name="パス 941" d="M182.628 213.869H122.75a1.279 1.279 0 01-1-1.011c0-.409.594 0 1 0h59.878c.4 0 1-.409 1 0a1.279 1.279 0 01-1 1.011z" fill="#f2f2f2"/><path data-name="パス 942" d="M182.628 221.885H122.75a1.279 1.279 0 01-1-1.011c0-.409.594 0 1 0h59.878c.4 0 1-.409 1 0a1.279 1.279 0 01-1 1.011z" fill="#f2f2f2"/><path data-name="パス 943" d="M208.575 213.867H191.61c-.4 0-1 .409-1 0a1.279 1.279 0 011-1.011h16.965a1.279 1.279 0 011 1.011c-.002.408-.596 0-1 0z" fill="#f2f2f2"/><path data-name="パス 944" d="M208.575 221.885H191.61a1.279 1.279 0 01-1-1.011c0-.409.594 0 1 0h16.965c.4 0 1-.409 1 0a1.279 1.279 0 01-1 1.011z" fill="#f2f2f2"/><path data-name="パス 945" d="M237.516 213.867h-16.965c-.4 0-1 .409-1 0a1.279 1.279 0 011-1.011h16.965a1.279 1.279 0 011 1.011c-.002.408-.596 0-1 0z" fill="#f2f2f2"/><path data-name="パス 946" d="M248.494 205.853h-94.806c-.4 0 0-.6 0-1.011s-.4 0 0 0h94.807c.4 0 1-.409 1 0a1.279 1.279 0 01-1.001 1.011z" fill="#f2f2f2"/><path data-name="パス 947" d="M139.715 205.853H122.75a1.279 1.279 0 01-1-1.011c0-.409.594 0 1 0h16.965c.4 0 1-.409 1 0a1.279 1.279 0 01-1 1.011z" fill="#f2f2f2"/><path data-name="パス 948" d="M248.494 229.472h-94.806c-.4 0 0 .409 0 0s-.4-1.011 0-1.011h94.807a1.279 1.279 0 011 1.011c-.003.408-.595 0-1.001 0z" fill="#f2f2f2"/><path data-name="パス 949" d="M139.715 229.472H122.75c-.4 0-1 .409-1 0a1.279 1.279 0 011-1.011h16.965a1.279 1.279 0 011 1.011c-.002.408-.596 0-1 0z" fill="#f2f2f2"/><path data-name="パス 950" d="M168.656 130.47l-23.951 23.248 23.951 23.252 4.99-5.054-17.963-18.194 17.963-18.194z" fill="#073061"/><path data-name="パス 951" d="M202.588 130.47l23.951 23.248-23.951 23.252-4.99-5.054 17.963-18.194-17.963-18.194z" fill="#073061"/><ellipse data-name="楕円形 164" cx="2.994" cy="3.032" rx="2.994" ry="3.032" transform="translate(66.864 54.529)" fill="#073061"/><ellipse data-name="楕円形 165" cx="2.994" cy="3.032" rx="2.994" ry="3.032" transform="translate(74.848 54.529)" fill="#073061"/><ellipse data-name="楕円形 166" cx="2.994" cy="3.032" rx="2.994" ry="3.032" transform="translate(82.831 54.529)" fill="#073061"/><path data-name="長方形 492" opacity=".1" d="M63.87 62.553h243.504v1.011H63.87z"/><path data-name="パス 952" d="M365.256 197.759c0 20.959-11.77 28.3-26.945 28.3s-27.943-7.343-27.943-28.3 27.943-47.507 27.943-47.507 26.945 26.548 26.945 47.507z" fill="#f9f9f9"/><path data-name="パス 953" d="M337.313 222.396v-18.194l11.976-21.227-11.976 19.205v-8.086l7.984-16.173-7.984 14.151v-14.153l8.982-13.14-8.982 11.119v7.076l-8.982-14.151 7.984 16.173v16.173l-10.978-15.162 10.978 16.173v2.022h-1l-2 40.432h2.994l1-21.227 9.98-15.162z" fill="#3d3d3d"/><path data-name="パス 954" d="M39.919 244.633a16.627 16.627 0 01-2.994 1.011c-1.648.456-3.325.622-4.99 1.011-.682.159-1.779.337-2 1.011-.159.494.832.519 1 1.011 1.839 5.462 2.056 11.225 4.99 16.173a29.114 29.114 0 004.99 6.065 3.084 3.084 0 002 1.011 2.119 2.119 0 002-1.011c.494-.691 1.344-1.244 1-2.022a28.314 28.314 0 00-1-2.022c-.342-.72-.95-1.224-1-2.022-.29-2.336-.8-4.864 0-7.076.536-1.483 2.175-2.7 2.994-4.043a8.815 8.815 0 001-5.054c-.124-1.07-.453-1.1-1-2.022s-1.9-3.734-2.994-4.043c-1.143-.316-3.004 1.507-3.996 2.022z" fill="#3d3d3d"/><path data-name="パス 955" d="M69.858 262.828a7.74 7.74 0 010 2.022c-.343.918-1.556 1.147-2 2.022a5.548 5.548 0 000 4.043c.254.816.316 1.517 1 2.022a5.082 5.082 0 002 1.011 166 166 0 0017.963 1.011 5.864 5.864 0 002.992-1.013c.94-.533 1.637-2.154 1-3.032-.574-.788-2.028.046-2.994 0-2.515-.129-4.112-1.33-5.988-3.032a4.68 4.68 0 01-1-1.011c-.2-.369-.868-.611-1-1.011a58.424 58.424 0 00-2.994-7.076c-.318-.6-.408-1.7-1-2.022-.432-.2-.523 0-1 0-1.472-.1-5.848-.149-6.986 1.011-1.045 1.073.03 3.694.007 5.055z" fill="#3d3d3d"/><ellipse data-name="楕円形 167" cx="9.481" cy="9.097" rx="9.481" ry="9.097" transform="translate(68.86 113.592)" fill="#fbbebe"/><path data-name="パス 956" d="M69.858 130.694c-.559 1.516-.616 2.216-2 3.032l12.974 3.032c-.472-1.922-1.349-4.116-1-6.065a1.685 1.685 0 000-1.011 2.83 2.83 0 00-2-2.022 32.741 32.741 0 01-6.986-2.022c-.664 1.171-.491 3.708-.988 5.056z" fill="#fbbebe"/><path data-name="パス 957" d="M66.864 130.332a10.307 10.307 0 018.982 0 25.847 25.847 0 014.99 4.043 5.54 5.54 0 012 4.043 17.507 17.507 0 010 3.032c-.488 3.568 1.824 6.445 4.99 8.086 1.033 1.743.982 4.032 1 6.065.06 7.7-2.711 15.744-1 23.248.4 1.762 1.649 3.28 2 5.054.45 2.3-.235 4.745 0 7.076a29.836 29.836 0 002 7.076c-.566.912-1.933 1.085-2.994 1.011a7.8 7.8 0 01-2.994-1.011c-4.583-2.375-9.225-5.057-13.972-7.076-3.14-1.336-5.935-2.5-8.982-4.043s-6.054-3.757-6.986-7.076c-.4-1.435.022-2.552 0-4.043-.093-6.282-.352-13.073 1-19.205 1.191-5.408 3.491-10.656 3.992-16.173.163-1.8.007-3.555 1-5.054 1.384-2.117 3.98-2.712 4.974-5.053z" fill="#3d3d3d"/><path data-name="パス 958" d="M73.849 122.725c.554-.732 1.111-.216 2 0s2.1-.176 2.994 0c.411.118.635.228 1 0 .312-.312-.025-.567 0-1.011.313-1.887 1.167-4.159 1-6.065-.047-.267-.08.259 0 0a1.457 1.457 0 011-1.011c1.872-.641 3.145-3.059 2.994-5.054-.014-.465.331-.688 0-1.011-.381-.315-1.5 0-2 0a378.335 378.335 0 00-6.986 0c-.935.008-2.183-.472-2.994 0a25.085 25.085 0 00-2 2.022c-1.4 1.147-3.282 1.434-4.99 2.022a3.8 3.8 0 00-2 1.011c-.568.657-1.355 1.226-1 2.022.183.331.773.707 1 1.011 1.007 1.631.848 4.147 1 6.065.188 2.4 3.615 6.509 5.988 7.076 3.829.914 1.729-5.504 2.994-7.077z" fill="#3d3d3d"/><path data-name="パス 959" d="M67.862 226.439c.242 1.749 1.081 3.29 1 5.054-.116 2.463-.836 4.615-1 7.076-.121 1.837-.746 4.241-1 6.065-.161 1.168.233 1.877 0 3.032a14.744 14.744 0 002 11.119 4.2 4.2 0 001 1.011c.26.1-.276.026 0 0a70.037 70.037 0 008.982-1.011c.2-.008-.139.142 0 0 .061-.094-.014.112 0 0 .5-2.608-.707-5.446-1-8.086-.31-2.82.335-5.33 1-8.086a37.557 37.557 0 011-4.043c.32-.887.72-2.131 1-3.032a18.385 18.385 0 001-4.043c.193-2.317-.011-4.748 0-7.076.066-2.206.425-4.911 0-7.076-.609-2.74-1.757-4.561-2.994-7.076-.661.161-1.455-.418-2 0a42.463 42.463 0 01-4.99 3.032c-1.157.544-3.257.887-3.992 2.022-.724 1.119-.055 3.82 0 5.054.089 2.118-.297 3.961-.006 6.064z" fill="#3d3d3d"/><path data-name="パス 961" d="M54.888 189.04c-1.249 3.4 1.4 6.855 2.994 10.108 3.928 8.015 6.268 16.754 8.982 25.27a3.25 3.25 0 010 2.022 2.532 2.532 0 01-1 1.011 19.549 19.549 0 01-5.988 3.032 28.33 28.33 0 00-5.988 3.032c-1.615 1.014-3.48 1.864-4.99 3.032l-4.99 4.043c-.311.213-.778-.308-1 0a4.542 4.542 0 000 3.032c.611 2.229 2.039 3.964 2.994 6.065a5.753 5.753 0 001 2.022c.75.408 1.423-.373 2-1.011s1.188-1.748 2-2.022 1.154.12 2 0a7.837 7.837 0 003.992-2.022c4.012-3.987 10.556-4.561 14.97-8.086.638-.578 1.288-.524 2-1.011.746-.447 1.222-.616 2-1.011a10.362 10.362 0 004.99-6.065c.793-2.547.428-5.479 1-8.086a35.052 35.052 0 001-4.043 24.453 24.453 0 000-4.043l-2-20.216c-.13-1.625.252-2.433 0-4.043-4.73.171-9.239-.057-13.972 0-3.784.046-8.421.195-11.994-1.01z" fill="#3d3d3d"/><path data-name="パス 962" d="M53.891 194.841c.642 1.045 1.919.573 2.994 0s1.916-1.453 2.994-2.022a10.56 10.56 0 014.99-1.011 33.3 33.3 0 017.984 1.011c2.572.742 4.327 2.307 6.986 2.022.463-.05 1.744.4 2 0 .148-.287.016-.688 0-1.011v-3.032c.053-.407.174-.64 0-1.011a3.214 3.214 0 00-1-1.011c-3.785-1.856-8.771-1.876-12.974-2.022-2.136-.074-3.85-.013-5.988 0-1.814.011-4.224-.491-5.988 0-2.37.664-3.199 6.135-1.998 8.087z" fill="#3d3d3d"/><path data-name="パス 963" d="M77.842 133.672c-4.959-.044-10.011-3.962-14.97-4.043-.6-.042-1.445.768-2 1.011-.691.353-.473.435-1 1.011-1.466 1.608-3.484 2.474-4.99 4.043-1.412 1.472-2.553 4.092-2 6.065a4.551 4.551 0 004.99 3.032c.794-2.6 1.773-5.533 3.992-7.076 1.154-.75 2.727-.474 3.992-1.011 2.229-1.023 4.659-2.788 6.986-2.022.858.328 1.259 1.469 2 2.022l3.992 2.022c-.446-1.806-.165-3.39-.992-5.054z" fill="#3d3d3d"/><path data-name="パス 964" d="M56.885 142.447c-.658.832.145 1.976 0 3.032-.1.7-.761 1.355-1 2.022-.246.69.093 1.294 0 2.022-.094.529.182 1.516 0 2.022a22.3 22.3 0 00-1 4.043l-1 7.076a25.911 25.911 0 000 3.032c.044.747-.857 1.287-1 2.022-.192.717.286 1.337 0 2.022a2.149 2.149 0 000 2.022 4.39 4.39 0 00-1 5.054c.172.224-.092-.269 0 0a1.626 1.626 0 010 1.011l-1 3.032c-.225.606-.625.872 0 1.011a5.729 5.729 0 00-1 2.022c-.261.721.541 1.41 1 2.022.218.194-.146.757 0 1.011a1.638 1.638 0 010 1.011c-.265 1.046.428 2.12 1 3.032.6.91.934 1.2 2 1.011a11.505 11.505 0 014.99 0c3.811.708 8.284.828 11.976 2.022 4.213 1.362 7.572 3.624 11.976 4.043a1.647 1.647 0 001 0c.224-.215.969-.7 1-1.011.454-2.154.544-3.91 1-6.065a63.7 63.7 0 001-7.076c.155-1.571.954-3.475 1-5.054v-13.14a11.149 11.149 0 00-1-5.054l-2-6.065c-1.151-3.723-4.049-7.336-4.99-11.119-.6-2.394-.4-5.209-2-7.076-2.275-2.66-6.534-2.479-9.98-2.022a8.9 8.9 0 00-3.992 1.011 16.035 16.035 0 00-3.992 4.043c-.909 1.198-2.053 1.849-2.988 3.031z" fill="#3d3d3d"/><path data-name="パス 965" d="M64.868 179.633c.284 1.24.633 1.814 1 3.032.611 2.041 1.386 4.024 2 6.065.256.857-.184 2.157 0 3.032a10.653 10.653 0 01-1 6.065 25.171 25.171 0 00-2 6.065 5.163 5.163 0 002 4.043 5.069 5.069 0 003.992 1.011c.539-.015.5-.807 1-1.011a4.119 4.119 0 002-3.032 49.95 49.95 0 001-13.14l-1-11.119a23.661 23.661 0 00-1-6.065c-.24-.757-.316-2.549-1-3.032s-3.155.04-3.992 0c-3.931-.183-3.636 5.308-3 8.086z" fill="#fbbebe"/><path data-name="パス 966" d="M68.859 137.532c-.8-.425-1.221.537-2 1.011a8.759 8.759 0 00-2 2.022c-1.732 2.142-3.251 4.319-2.994 7.076.1 1.034-.265 2.03 0 3.032 1.161 4.4-.147 8.591 0 13.14.085 2.629 1.433 5.519 2 8.086.115.524-.5.834 0 1.011a4.865 4.865 0 002 0 8.23 8.23 0 017.984 1.011c.93-.5.208-1.986 0-3.032-.619-3.108.975-6.1 2-9.1a33.469 33.469 0 002-9.1 31.462 31.462 0 00-2-11.119 4.3 4.3 0 00-1-2.022c-.5-.378-1.385.137-2 0a26.565 26.565 0 01-3.99-2.016z" fill="#fff"/></g></svg>