<svg id="undraw_innovative_b409_1_" data-name="undraw_innovative_b409 (1)" xmlns="http://www.w3.org/2000/svg" width="378" height="279" viewBox="0 0 378 279">
  <circle id="楕円形_168" data-name="楕円形 168" cx="52" cy="52" r="52" transform="translate(107 57)" fill="#073061"/>
  <path id="パス_967" data-name="パス 967" d="M216.8,192.349c-28.869,0-53-23.131-53-52s24.131-52,53-52a52,52,0,0,1,0,104Zm0-104a52,52,0,0,0,0,104c28.474,0,51-23.526,51-52C267.767,111.888,245.26,88.381,216.8,88.349Z" transform="translate(-50.799 -40.349)" fill="#3f3d56"/>
  <path id="パス_968" data-name="パス 968" d="M374.8,216.349H50.8v-176h324Zm-323-1h323v-174H51.8Z" transform="translate(-50.799 -40.349)" fill="#3d3d3d"/>
  <rect id="長方形_494" data-name="長方形 494" width="71" height="7" transform="translate(11 14)" fill="#f2f2f2"/>
  <rect id="長方形_495" data-name="長方形 495" width="71" height="7" transform="translate(118 14)" fill="#f2f2f2"/>
  <rect id="長方形_496" data-name="長方形 496" width="71" height="7" transform="translate(225 14)" fill="#f2f2f2"/>
  <path id="パス_969" data-name="パス 969" d="M137.8,58.349h-72v-8h72Zm-71-1h70v-6h-70Z" transform="translate(-50.799 -40.349)" fill="#3f3d56"/>
  <path id="パス_970" data-name="パス 970" d="M244.8,58.349h-72v-8h72Zm-71-1h70v-6h-70Z" transform="translate(-50.799 -40.349)" fill="#3f3d56"/>
  <path id="パス_971" data-name="パス 971" d="M350.8,58.349h-71v-8h71Zm-71-1h71v-6h-71Z" transform="translate(-50.799 -40.349)" fill="#3f3d56"/>
  <rect id="長方形_497" data-name="長方形 497" width="331" height="1" transform="translate(47 273)" fill="#2f2e41"/>
  <path id="パス_972" data-name="パス 972" d="M157.657,193l25-49,7,4-29,47Z" transform="translate(0.343 0)" fill="#3f3d56"/>
  <path id="パス_973" data-name="パス 973" d="M193.8,244.349s4.473,3.8,5-4c.136-2.505,1.061-5.408,3-7,2.1-1.679,5.363-2.223,9,0,3.237,1.978,4.178,4.443,4,7a11.913,11.913,0,0,1-6,9c-3.608,2.142-9.018,3.264-15-2C193.8,247.349,190.2,243.949,193.8,244.349Z" transform="translate(-50.799 -40.349)" fill="#073061"/>
  <circle id="楕円形_169" data-name="楕円形 169" cx="9.5" cy="9.5" r="9.5" transform="translate(178 69)" fill="#ffb8b8"/>
  <path id="パス_974" data-name="パス 974" d="M232.8,123.349s3.021,13.448,2,16,14-1,14-1-2.51-12.937-2-16S232.8,123.349,232.8,123.349Z" transform="translate(-50.799 -40.349)" fill="#ffb8b8"/>
  <path id="パス_975" data-name="パス 975" d="M165.657,129l1,14,5,22,1,6,3-10-3-21-1-9Z" transform="translate(0.343 0)" fill="#ffb8b8"/>
  <path id="パス_976" data-name="パス 976" d="M269.8,167.349v14s-.937,18.406-4,23-4-18-4-18l2-17Z" transform="translate(-50.799 -40.349)" fill="#ffb8b8"/>
  <path id="パス_977" data-name="パス 977" d="M224.8,212.349s-3.042,2.863-1,34-.636,53,6,53c0,0-2.615,6.49,3,7s8.49,1.531,9,0,1.531-9,0-9c0,0-.021,2.167,1-6s1.448-46.9,4-52l8,19s-.531,8.916,1,13,4,27,4,27v4s12.49,2.042,13,0,.51-4.979,0-6-1.021-.958,0-3,1.51-3.469,1-5-1-35-1-35-.875-39.958-7-42S224.8,212.349,224.8,212.349Z" transform="translate(-50.799 -40.349)" fill="#3d3d3d"/>
  <path id="パス_978" data-name="パス 978" d="M230.8,302.349l-4,8s-6.276-2.87-5,3a127.88,127.88,0,0,0,19,0s2.49.531,3-1-1.469-7-3-7S230.8,302.349,230.8,302.349Z" transform="translate(-50.799 -40.349)" fill="#3d3d3d"/>
  <path id="パス_979" data-name="パス 979" d="M260.8,300.349s-4.531,9.49-3,10,15.979,2.49,17,3,5.49,1.063,6-2a3.476,3.476,0,0,0-2-4s-5.469-.9-7-6S260.8,300.349,260.8,300.349Z" transform="translate(-50.799 -40.349)" fill="#3d3d3d"/>
  <path id="パス_980" data-name="パス 980" d="M249.8,137.349s-13.937-2.552-17,0-15,7.448-15,10,6,27,6,27-3.573,37.979,0,39,9.854-1.573,17,2,28-3,28-3-8.042-32.875-6-39,4-27,4-27S257.455,137.349,249.8,137.349Z" transform="translate(-50.799 -40.349)" fill="#fff"/>
  <path id="パス_981" data-name="パス 981" d="M220.8,145.349l-3,1s-8.063,23.979-5,25a109.152,109.152,0,0,0,13,3C226.82,174.349,220.8,145.349,220.8,145.349Z" transform="translate(-50.799 -40.349)" fill="#fff"/>
  <path id="パス_982" data-name="パス 982" d="M257.8,143.349l9,3s10.552,19.448,8,22-14,5-14,5Z" transform="translate(-50.799 -40.349)" fill="#fff"/>
  <path id="パス_983" data-name="パス 983" d="M237.8,107.349a3.743,3.743,0,0,0-2,0,7.481,7.481,0,0,0-2,1,20.976,20.976,0,0,1-3,2c-.827.449-1.423.257-2,1a12.672,12.672,0,0,0-1,2,14.809,14.809,0,0,0-1,8c.055.381.83.654,1,1a4.214,4.214,0,0,0,2,2,23.618,23.618,0,0,1,5,4c.571.57,1.3.593,2,1a13.525,13.525,0,0,0,8,1c.352,0-.248-.749,0-1s1-.648,1-1l2-9c.352-1.295.022-1.658,0-3a12.776,12.776,0,0,0-3-7C242.985,107.593,240.17,107.6,237.8,107.349Z" transform="translate(-50.799 -40.349)" fill="#3d3d3d"/>
  <ellipse id="楕円形_170" data-name="楕円形 170" cx="14" cy="1" rx="14" ry="1" transform="translate(133 271)" fill="#073061"/>
  <ellipse id="楕円形_171" data-name="楕円形 171" cx="14" cy="1" rx="14" ry="1" transform="translate(130 273)" fill="#073061"/>
  <ellipse id="楕円形_172" data-name="楕円形 172" cx="7.5" rx="7.5" transform="translate(123 269)" fill="#073061"/>
  <ellipse id="楕円形_173" data-name="楕円形 173" cx="7.5" cy="0.5" rx="7.5" ry="0.5" transform="translate(150 278)" fill="#073061"/>
</svg>
