<svg xmlns="http://www.w3.org/2000/svg" width="38.366" height="57.549"><g data-name="グループ 1674" fill="#3d3d3d"><path data-name="パス 999" d="M9.591 57.546a9.591 9.591 0 009.591-9.592v-9.588H9.591a9.591 9.591 0 100 19.183z"/><path data-name="パス 997" d="M0 28.774a9.592 9.592 0 019.592-9.591h9.591v19.183H9.591A9.591 9.591 0 010 28.774z"/><path data-name="パス 996" d="M0 9.591A9.591 9.591 0 019.584 0h9.591v19.183H9.591A9.591 9.591 0 010 9.591z"/><path data-name="パス 995" d="M19.183 0h9.591a9.591 9.591 0 010 19.183h-9.591z"/><path data-name="パス 998" d="M38.366 28.774a9.591 9.591 0 11-9.592-9.591 9.592 9.592 0 019.592 9.591z"/></g></svg>