<svg xmlns="http://www.w3.org/2000/svg" width="58" height="58"><defs><linearGradient id="a" y1=".5" x2="1" y2=".5" gradientUnits="objectBoundingBox"><stop offset="0"/><stop offset="1" stop-color="#343434"/></linearGradient></defs><path data-name="パス 600" d="M33 4a28.991 28.991 0 00-8.961 56.566h17.922A28.991 28.991 0 0033 4z" transform="translate(-4 -4)" fill="url(#a)"/><path data-name="パス 601" d="M37.918 55.079l-.015-8.451a8.634 8.634 0 00-.936-3.917c8.224-1.652 12.225-6.514 12.225-14.836a13.646 13.646 0 00-2.881-8.63 8.658 8.658 0 00.321-1.43 10.733 10.733 0 00-.281-4.35l-.039-.169a16.028 16.028 0 00-.609-2.023l-.162-.411-.165-.414-.44-.047-.442-.047s-.29-.031-.73-.031a7.62 7.62 0 00-2.372.351l-.286.1a16.051 16.051 0 00-3.521 1.554c-.417.249-.873.534-1.362.851a30.8 30.8 0 00-14.195.007 43.423 43.423 0 00-1.373-.859 16.121 16.121 0 00-3.524-1.558l-.286-.1a7.6 7.6 0 00-2.369-.341c-.44 0-.73.031-.73.031l-.44.047-.437.045-.163.41-.165.413a15.906 15.906 0 00-.611 2.028l-.039.168a10.726 10.726 0 00-.281 4.349 8.721 8.721 0 00.335 1.474 13.71 13.71 0 00-2.822 8.587c0 8.3 4.006 13.161 12.241 14.826a8.755 8.755 0 00-.659 1.784 4.735 4.735 0 01-.784.2 7.234 7.234 0 01-1.077.079 4.779 4.779 0 01-2.092-.378 8.217 8.217 0 01-2.061-2.213 8.255 8.255 0 00-2.9-2.809 7.517 7.517 0 00-2.958-.732 3.459 3.459 0 00-.548.041 2.376 2.376 0 00-1.732 1.13 1.915 1.915 0 00-.128 1.663 4.321 4.321 0 001.958 1.83 5.633 5.633 0 011.56 1.617 8.323 8.323 0 01.7 1.446c.127.313.267.655.456 1.067a8.8 8.8 0 003.066 2.949 10.95 10.95 0 004.6 1h.179a14.1 14.1 0 001.464-.1v3.809c0 .771-.783.946-1.822.93l.8.268a28.682 28.682 0 0019.539 0l1.025-.382c-1.034-.036-2.023-.205-2.032-.826z" opacity=".05"/><path data-name="パス 602" d="M39.041 56.247c-.592.069-1.867-.159-1.867-1.159v-8.461a7.938 7.938 0 00-1.365-4.449c8.623-1.4 12.652-5.967 12.652-14.3a12.91 12.91 0 00-2.972-8.487 7.806 7.806 0 00.42-1.672 10 10 0 00-.268-4.083l-.038-.179a14.985 14.985 0 00-.579-1.923l-.162-.411-.442-.047s-.259-.028-.655-.028a6.849 6.849 0 00-2.137.313l-.286.1a15.531 15.531 0 00-3.384 1.496c-.484.289-1.023.628-1.605 1.012a28.465 28.465 0 00-7.2-.882 28.634 28.634 0 00-7.258.889 46.331 46.331 0 00-1.617-1.019 15.461 15.461 0 00-3.384-1.493l-.286-.1a6.886 6.886 0 00-2.137-.313c-.4 0-.655.028-.655.028l-.44.047-.165.413a14.985 14.985 0 00-.579 1.923l-.039.169a9.943 9.943 0 00-.268 4.082 7.8 7.8 0 00.434 1.711 12.963 12.963 0 00-2.914 8.448c0 8.314 4.032 12.884 12.663 14.3a7.938 7.938 0 00-1.185 2.863 6.152 6.152 0 01-1.3.373 7.921 7.921 0 01-1.187.087 5.437 5.437 0 01-2.464-.48 8.959 8.959 0 01-2.292-2.427 7.782 7.782 0 00-2.607-2.558 6.779 6.779 0 00-2.655-.666 2.782 2.782 0 00-.434.032 1.653 1.653 0 00-1.207.778 1.188 1.188 0 00-.086 1.032 3.9 3.9 0 001.631 1.461 6.291 6.291 0 011.828 1.872 9.142 9.142 0 01.76 1.555c.124.3.259.637.443 1.038a7.82 7.82 0 002.782 2.625 10.622 10.622 0 004.26.892h.162a19.464 19.464 0 002.179-.2v4.631c0 1.136-1.445 1.181-1.8 1.181-.045 0 .733.268.733.268a28.937 28.937 0 0018.169 0s.848-.288.803-.282z" opacity=".07"/><path data-name="パス 603" d="M47.734 27.872a12.231 12.231 0 00-3.086-8.35 6.974 6.974 0 00.541-1.908 9.516 9.516 0 00-.3-3.986 14.59 14.59 0 00-.547-1.822 6.764 6.764 0 00-2.483.251 15.92 15.92 0 00-3.525 1.528c-.66.394-1.325.825-1.851 1.175a27.494 27.494 0 00-7.325-.945 27.735 27.735 0 00-7.387.95c-.528-.351-1.2-.786-1.862-1.182a15.92 15.92 0 00-3.531-1.526 6.764 6.764 0 00-2.483-.251 14.592 14.592 0 00-.547 1.822 9.516 9.516 0 00-.3 3.986 6.926 6.926 0 00.557 1.943 12.26 12.26 0 00-3.029 8.315c0 8.722 4.712 12.7 13.3 13.754a7.247 7.247 0 00-1.9 3.923 7.5 7.5 0 01-1.84.574 7.108 7.108 0 01-4.13-.485 9.6 9.6 0 01-2.521-2.643 7.047 7.047 0 00-2.306-2.31 5.361 5.361 0 00-2.672-.577c-.577.092-.85.516-.729.821a3.3 3.3 0 001.306 1.093 6.978 6.978 0 012.1 2.125 20.18 20.18 0 011.245 2.672 7.136 7.136 0 002.49 2.308 9.6 9.6 0 003.919.79 23.362 23.362 0 003.037-.3v5.468a1.5 1.5 0 01-1.741 1.477 29.067 29.067 0 0018.046 0 1.5 1.5 0 01-1.734-1.477v-8.459a7.245 7.245 0 00-2-4.993c8.521-1.024 13.288-4.91 13.288-13.761zm-37.18 13.694c-.225-.115-.346-.328-.27-.478s.321-.178.545-.063.346.328.27.478-.321.182-.545.063zm1.767 1.1c-.118.128-.372.087-.567-.09s-.258-.427-.14-.555.372-.087.567.09.253.427.139.555zm1.099 1.819c-.149.1-.4.007-.563-.219s-.172-.5-.023-.6.4-.007.563.219.171.5.023.6zm1.579 1.372c-.1.163-.386.171-.637.017s-.373-.41-.273-.573.386-.171.637-.017.373.413.272.576zm1.493 1.343c-.311-.038-.541-.232-.515-.433s.3-.332.606-.294.541.232.515.433-.296.335-.607.297zm2.407.348c-.331-.019-.589-.208-.576-.421s.292-.372.622-.353.589.208.576.421-.292.375-.623.356zm2.271-.227c-.353 0-.639-.184-.639-.41s.286-.41.639-.41.639.184.639.41-.288.413-.64.413z" fill="#fff"/></svg>