<svg xmlns="http://www.w3.org/2000/svg" width="34.89" height="34.89"><defs><linearGradient id="a" y1=".5" x2="1" y2=".5" gradientUnits="objectBoundingBox"><stop offset="0" stop-color="#4c4c4c"/><stop offset="1" stop-color="#343434"/></linearGradient></defs><path data-name="パス 600" d="M21.445 4a17.44 17.44 0 00-5.39 34.027h10.78A17.44 17.44 0 0021.445 4z" transform="translate(-4 -4)" fill="url(#a)"/><path data-name="パス 601" d="M22.809 33.132l-.009-5.085a5.194 5.194 0 00-.563-2.356c4.947-.994 7.354-3.918 7.354-8.925a8.209 8.209 0 00-1.733-5.191 5.208 5.208 0 00.193-.86 6.457 6.457 0 00-.169-2.617l-.024-.1a9.641 9.641 0 00-.367-1.217l-.1-.247-.1-.247-.265-.028-.266-.028s-.175-.018-.439-.018a4.583 4.583 0 00-1.427.211l-.172.058a9.655 9.655 0 00-2.12.937c-.251.15-.525.321-.819.512a18.53 18.53 0 00-8.539 0 31.16 31.16 0 00-.826-.517 9.7 9.7 0 00-2.12-.937l-.172-.058A4.571 4.571 0 008.7 6.208a4.72 4.72 0 00-.439.018l-.265.028-.263.027-.1.246-.1.248a9.568 9.568 0 00-.367 1.22l-.024.1a6.452 6.452 0 00-.169 2.616 5.246 5.246 0 00.2.887 8.247 8.247 0 00-1.7 5.165c0 4.994 2.41 7.917 7.364 8.919a5.266 5.266 0 00-.4 1.073 2.849 2.849 0 01-.472.12 4.352 4.352 0 01-.648.047 2.875 2.875 0 01-1.258-.227 4.943 4.943 0 01-1.24-1.331 4.966 4.966 0 00-1.747-1.69 4.522 4.522 0 00-1.779-.44 2.081 2.081 0 00-.33.025 1.429 1.429 0 00-1.038.684 1.152 1.152 0 00-.077 1 2.6 2.6 0 001.178 1.1 3.389 3.389 0 01.938.973 5.007 5.007 0 01.423.87c.076.189.16.394.274.642a5.293 5.293 0 001.844 1.774 6.587 6.587 0 002.769.6h.108a8.48 8.48 0 00.88-.062v2.291c0 .464-.471.569-1.1.559l.48.161a17.253 17.253 0 0011.754 0l.616-.23c-.602-.014-1.197-.115-1.203-.489z" opacity=".05"/><path data-name="パス 602" d="M23.486 33.835c-.356.041-1.123-.1-1.123-.7v-5.082a4.775 4.775 0 00-.821-2.676c5.187-.839 7.611-3.589 7.611-8.6a7.766 7.766 0 00-1.788-5.106 4.7 4.7 0 00.253-1.006 6.016 6.016 0 00-.161-2.456l-.024-.1a9.013 9.013 0 00-.348-1.157l-.1-.247-.266-.028s-.156-.017-.394-.017a4.12 4.12 0 00-1.286.189l-.172.058a9.343 9.343 0 00-2.035.9c-.291.174-.616.378-.966.609a18.008 18.008 0 00-8.7 0c-.353-.232-.68-.438-.973-.613a9.3 9.3 0 00-2.035-.9l-.172-.058a4.142 4.142 0 00-1.278-.192c-.238 0-.394.017-.394.017l-.265.028-.1.248a9.014 9.014 0 00-.348 1.157l-.024.1a5.981 5.981 0 00-.161 2.455 4.69 4.69 0 00.261 1.03 7.8 7.8 0 00-1.753 5.082c0 5 2.426 7.75 7.617 8.6a4.775 4.775 0 00-.713 1.722 3.7 3.7 0 01-.781.225 4.764 4.764 0 01-.714.053 3.271 3.271 0 01-1.482-.289 5.389 5.389 0 01-1.379-1.46 4.681 4.681 0 00-1.564-1.543 4.078 4.078 0 00-1.6-.4 1.673 1.673 0 00-.261.019.994.994 0 00-.726.468.714.714 0 00-.052.621 2.345 2.345 0 00.981.879 3.784 3.784 0 011.1 1.126 5.5 5.5 0 01.457.936c.075.183.156.383.267.624a4.7 4.7 0 001.671 1.581 6.389 6.389 0 002.562.537h.1a11.709 11.709 0 001.311-.118v2.786c0 .683-.869.71-1.082.71-.027 0 .441.161.441.161a17.407 17.407 0 0010.929 0s.502-.176.48-.173z" opacity=".07"/><path data-name="パス 603" d="M28.715 16.767a7.357 7.357 0 00-1.856-5.023 4.2 4.2 0 00.325-1.148 5.724 5.724 0 00-.178-2.4 8.776 8.776 0 00-.329-1.1 4.069 4.069 0 00-1.493.151 9.577 9.577 0 00-2.124.918c-.4.237-.8.5-1.114.707a17.461 17.461 0 00-8.85 0 26.99 26.99 0 00-1.12-.711 9.577 9.577 0 00-2.124-.918 4.069 4.069 0 00-1.493-.151 8.778 8.778 0 00-.329 1.1 5.724 5.724 0 00-.178 2.4 4.166 4.166 0 00.335 1.169 7.375 7.375 0 00-1.822 5c0 5.247 2.834 7.642 8 8.274a4.36 4.36 0 00-1.143 2.36 4.512 4.512 0 01-1.107.346 4.276 4.276 0 01-2.484-.292 5.776 5.776 0 01-1.516-1.59 4.239 4.239 0 00-1.388-1.388 3.225 3.225 0 00-1.607-.347c-.347.055-.511.31-.438.494a1.987 1.987 0 00.786.658 4.2 4.2 0 011.261 1.279 12.139 12.139 0 01.749 1.607 4.293 4.293 0 001.5 1.388 5.776 5.776 0 002.357.475 14.052 14.052 0 001.827-.181v3.289a.9.9 0 01-1.044.888 17.485 17.485 0 0010.856 0 .9.9 0 01-1.044-.889v-5.09a4.358 4.358 0 00-1.2-3c5.116-.613 7.985-2.951 7.985-8.275zM6.346 25.004c-.135-.069-.208-.2-.162-.288s.193-.107.328-.038.208.2.162.288-.191.107-.328.038zm1.063.662c-.071.077-.224.053-.341-.054s-.155-.257-.084-.334.224-.053.341.054.157.259.086.334zm.661 1.1c-.089.063-.241 0-.338-.132s-.1-.3-.014-.361.241 0 .338.132.106.294.016.357zm.95.825c-.061.1-.232.1-.383.011s-.224-.246-.164-.345.232-.1.383-.011.227.245.166.345zm.9.808c-.187-.023-.325-.139-.31-.26s.179-.2.365-.177.325.139.31.26-.178.196-.365.169zm1.448.21c-.2-.011-.354-.125-.346-.253s.175-.224.374-.212.354.125.346.253-.175.219-.374.208zm1.366-.137c-.212 0-.384-.11-.384-.246s.172-.246.384-.246.384.11.384.246-.172.242-.384.242z" fill="#fff"/></svg>