<svg xmlns="http://www.w3.org/2000/svg" width="35" height="35"><defs><clipPath id="a"><path data-name="長方形 414" d="M0 0h35v35H0z"/></clipPath></defs><g data-name="マスクグループ 13" transform="rotate(-90 17.5 17.5)" clip-path="url(#a)"><g fill="#fff" transform="translate(.465 -.017)" data-name="レイヤー 2"><path data-name="パス 475" d="M17.4 3.137c4.645 0 5.195.018 7.029.1a9.629 9.629 0 013.23.6 5.386 5.386 0 012 1.3 5.386 5.386 0 011.3 2 9.629 9.629 0 01.6 3.23c.084 1.835.1 2.384.1 7.029s-.018 5.195-.1 7.029a9.629 9.629 0 01-.6 3.23 5.766 5.766 0 01-3.3 3.3 9.629 9.629 0 01-3.23.6c-1.834.084-2.384.1-7.029.1s-5.2-.018-7.029-.1a9.629 9.629 0 01-3.23-.6 5.386 5.386 0 01-2-1.3 5.386 5.386 0 01-1.3-2 9.629 9.629 0 01-.6-3.23c-.084-1.835-.1-2.384-.1-7.029s.018-5.195.1-7.029a9.629 9.629 0 01.6-3.23 5.386 5.386 0 011.3-2 5.386 5.386 0 012-1.3 9.629 9.629 0 013.23-.6c1.835-.084 2.384-.1 7.029-.1M17.4 0c-4.724 0-5.317.02-7.172.1A12.766 12.766 0 006 .916a8.529 8.529 0 00-3.081 2.006A8.529 8.529 0 00.917 6 12.663 12.663 0 00.1 10.226C.021 12.077 0 12.674 0 17.4s.02 5.317.1 7.172a12.756 12.756 0 00.809 4.222 8.529 8.529 0 002.006 3.081A8.54 8.54 0 006 33.88a12.785 12.785 0 004.222.809c1.851.085 2.448.1 7.172.1s5.317-.02 7.172-.1a12.756 12.756 0 004.222-.809 8.9 8.9 0 005.088-5.088 12.785 12.785 0 00.809-4.222c.085-1.851.1-2.448.1-7.172s-.02-5.317-.1-7.172A12.756 12.756 0 0033.878 6a8.54 8.54 0 00-2.007-3.081 8.529 8.529 0 00-3.081-2 12.663 12.663 0 00-4.223-.811C22.716.023 22.12 0 17.4 0z"/><path data-name="パス 476" d="M17.395 8.466a8.933 8.933 0 108.933 8.933 8.933 8.933 0 00-8.933-8.933zm0 14.731a5.8 5.8 0 115.8-5.8 5.8 5.8 0 01-5.8 5.8z"/><circle data-name="楕円形 132" cx="2.087" cy="2.087" r="2.087" transform="translate(24.594 6.025)"/></g></g></svg>