<svg data-name="icons8-javascript (1)" xmlns="http://www.w3.org/2000/svg" width="33.085" height="33.085"><path data-name="パス 853" d="M0 33.085V0h33.085v33.085z" fill="#3d3d3d"/><path data-name="パス 854" d="M19.85 23.389c.732 1.2 1.528 2.357 3.213 2.357 1.415 0 2.158-.712 2.158-1.7 0-1.179-.768-1.6-2.325-2.284l-.854-.368c-2.464-1.058-4.1-2.384-4.1-5.185 0-2.581 1.952-4.545 5-4.545A5.041 5.041 0 0127.8 14.42l-2.659 1.721a2.322 2.322 0 00-2.2-1.476 1.49 1.49 0 00-1.634 1.475c0 1.032.635 1.45 2.1 2.089l.854.368c2.9 1.252 4.541 2.531 4.541 5.405 0 3.1-2.416 4.795-5.659 4.795a6.234 6.234 0 01-5.977-3.607zm-12.26.088a2.889 2.889 0 002.519 1.717c1.119 0 1.763-.448 1.763-2.188V11.665h3.526v11.889c0 3.606-2.066 5.247-5.083 5.247a6.186 6.186 0 01-5.5-3.607z" fill="#fff"/></svg>