<svg data-name="icons8-javascript (1)" xmlns="http://www.w3.org/2000/svg" width="55" height="55"><path data-name="パス 853" d="M0 55V0h55v55z" fill="#f7df1c"/><path data-name="パス 854" d="M32.997 38.882c1.217 2 2.539 3.919 5.341 3.919 2.353 0 3.587-1.184 3.587-2.822 0-1.96-1.277-2.656-3.865-3.8l-1.419-.612c-4.1-1.759-6.82-3.963-6.82-8.619 0-4.291 3.245-7.556 8.314-7.556 3.61 0 6.2 1.266 8.075 4.581l-4.421 2.861c-.972-1.759-2.024-2.452-3.654-2.452a2.477 2.477 0 00-2.717 2.452c0 1.716 1.055 2.411 3.491 3.474l1.419.612c4.827 2.081 7.549 4.207 7.549 8.986 0 5.149-4.017 7.971-9.408 7.971a10.364 10.364 0 01-9.936-6zm-20.375.146a4.8 4.8 0 004.187 2.854c1.861 0 2.931-.744 2.931-3.637V19.392h5.861v19.764c0 5.995-3.434 8.722-8.45 8.722a10.283 10.283 0 01-9.136-6z"/></svg>