<svg xmlns="http://www.w3.org/2000/svg" width="30.077" height="30.077"><path d="M1.91 7.059c-2.661 3.971-2.332 9.136-.3 13.366.047.1.1.2.149.3l.094.19.059.109c.035.068.071.131.106.2l.195.345.111.189.226.366.1.154c.106.164.214.328.326.488l.064.09q.145.207.3.41l.113.148.275.351.105.131c.125.153.254.305.383.454a.3.3 0 01.023.025q.192.216.389.425l.125.131.31.316.127.127q.209.2.426.4l.466.41.16.133.323.261.172.137.362.269.169.124c.116.083.233.162.352.241l.152.105q.272.179.55.349l.152.1.414.24c.075.042.152.082.229.122l.3.159.069.034.122.06.468.224.1.046q.271.123.546.235l.132.055.515.2.066.023.574.2.139.043a4.693 4.693 0 00.592.174c12.878 2.436 16.617-8.029 16.617-8.029-3.141 4.246-8.718 5.366-14.012 4.119-.2-.047-.395-.111-.59-.172l-.147-.046q-.286-.091-.568-.192l-.078-.029q-.251-.093-.5-.192l-.141-.059q-.273-.111-.541-.234l-.108-.049-.456-.22-.132-.065a3.712 3.712 0 01-.353-.2l-.235-.127c-.143-.078-.282-.162-.423-.246l-.143-.083q-.278-.17-.55-.349l-.149-.1-.391-.27a1.217 1.217 0 01-.126-.092l-.371-.278-.165-.129-.334-.271-.157-.131-.416-.364q-.023-.021-.047-.039l-.437-.412-.122-.123-.312-.322-.122-.127c-.132-.14-.26-.28-.376-.423a.2.2 0 01-.019-.021q-.2-.227-.391-.462l-.094-.127-.282-.361-.094-.134-.325-.449C2.698 14.761 1.643 9.03 3.987 4.324m6.188-.61a9.915 9.915 0 00-.32 9.764 12.849 12.849 0 00.852 1.475 6.967 6.967 0 00.991 1.284c.139.159.284.312.433.465l.113.117q.216.218.441.425c.007 0 .011.012.019.017.171.156.344.293.52.447l.117.095q.265.212.54.409l.016.012c.081.059.164.112.246.169.04.026.077.055.117.08q.2.131.4.254l.056.034.354.2c.041.024.094.045.126.068l.247.133c.012.007.025.012.038.018q.254.131.515.249l.113.049q.21.093.423.178l.181.068q.193.073.388.14l.176.059a4.546 4.546 0 00.561.169c9.949 1.701 12.24-6.252 12.24-6.252-2.069 3.093-6.075 4.566-10.352 3.415q-.284-.077-.563-.169a5.595 5.595 0 01-.169-.057l-.395-.14-.188-.068q-.213-.085-.423-.178l-.115-.049q-.262-.118-.519-.25l-.26-.137-.15-.08q-.166-.093-.329-.192l-.079-.046q-.2-.123-.4-.254c-.04-.026-.08-.056-.12-.083l-.259-.178q-.273-.2-.536-.408l-.122-.1a12.391 12.391 0 01-4.061-6 9.624 9.624 0 01.7-7.473m5.391-.179a6.209 6.209 0 00-.459 5.8 8.038 8.038 0 004.52 4.39l.246.1.109.035.355.1c5.49 1.1 6.978-2.923 7.376-3.515-1.3 1.948-3.5 2.416-6.186 1.739a6.948 6.948 0 01-.651-.209 7.8 7.8 0 01-.773-.333 7.946 7.946 0 01-1.355-.858c-2.407-1.894-3.9-5.517-2.331-8.46" fill="#3d3d3d"/></svg>