<svg xmlns="http://www.w3.org/2000/svg" width="50" height="50"><path d="M3.175 11.73c-4.424 6.6-3.877 15.187-.494 22.219.078.169.164.334.247.5l.156.316c.031.062.066.122.1.182.058.114.117.217.177.328l.324.574.184.315.375.608.159.256c.177.272.356.545.542.811l.106.149q.242.345.494.681l.188.247.456.584.175.217c.208.255.422.508.636.754a.5.5 0 01.038.042q.319.358.647.707l.208.217.516.525.211.211q.348.341.708.668l.775.681.266.221.536.435.286.227.6.448.281.206c.192.138.388.269.585.4l.253.175q.453.3.915.581l.253.162.688.4c.125.07.253.136.38.2l.491.264.114.057.2.1.779.373.164.076q.451.2.908.391l.219.091.857.329.109.039q.474.169.954.324l.231.071a7.8 7.8 0 00.985.289c21.414 4.057 27.63-13.34 27.63-13.34-5.222 7.058-14.492 8.92-23.294 6.847-.333-.078-.657-.185-.98-.285l-.244-.073q-.475-.151-.944-.32l-.13-.049q-.418-.154-.832-.32l-.234-.1q-.453-.185-.9-.389l-.18-.081-.758-.367-.219-.109c-.2-.1-.391-.206-.586-.324l-.391-.211c-.238-.13-.469-.269-.7-.409l-.238-.138q-.462-.283-.915-.581c-.083-.055-.164-.114-.247-.17l-.65-.449a2.024 2.024 0 01-.209-.152l-.616-.462-.274-.214-.559-.455-.247-.206-.691-.6q-.038-.034-.078-.065l-.727-.686-.2-.2-.519-.535-.2-.211a14.22 14.22 0 01-.625-.7.335.335 0 01-.031-.036q-.332-.378-.65-.769l-.156-.211-.469-.6-.156-.222-.551-.759c-4.9-6.891-6.656-16.425-2.757-24.242m10.287-1.014c-3.2 4.78-3.028 11.191-.532 16.232a21.359 21.359 0 001.416 2.452 11.581 11.581 0 001.648 2.134c.231.264.472.519.719.774l.188.195q.358.363.733.707c.011.008.019.019.031.028.285.26.572.487.865.743l.194.157q.44.352.9.68l.027.019c.134.1.272.187.41.281.066.044.128.091.194.133q.328.218.664.422l.094.057.588.324c.069.041.156.075.209.114l.411.221c.02.011.042.019.063.029q.423.219.857.414l.188.081q.349.154.7.3l.3.114q.321.121.646.232l.292.1a7.557 7.557 0 00.933.281C46.187 36.23 50 23.008 50 23.008c-3.439 5.141-10.1 7.59-17.209 5.676q-.471-.129-.936-.281c-.094-.029-.188-.062-.281-.094l-.657-.234-.313-.114q-.354-.142-.7-.3l-.191-.081q-.436-.2-.863-.415l-.433-.227-.25-.133q-.276-.155-.547-.32l-.131-.076q-.335-.2-.663-.422c-.067-.044-.133-.092-.2-.138l-.43-.3q-.454-.327-.891-.678l-.2-.162a20.6 20.6 0 01-6.751-9.981 16 16 0 011.158-12.412m8.961-.3a10.321 10.321 0 00-.763 9.642 13.362 13.362 0 007.513 7.3l.41.162.181.058.589.162c9.127 1.829 11.6-4.859 12.261-5.844-2.168 3.239-5.813 4.016-10.284 2.89a11.35 11.35 0 01-1.082-.347 12.962 12.962 0 01-1.285-.553 13.209 13.209 0 01-2.253-1.426C29.761 10.915 27.275 4.892 29.887 0" fill="#0767ac"/></svg>