<svg xmlns="http://www.w3.org/2000/svg" width="147" height="147"><defs><clipPath id="a"><path data-name="長方形 480" transform="translate(887 1418)" fill="#3d3d3d" stroke="#707070" d="M0 0h147v147H0z"/></clipPath></defs><g data-name="マスクグループ 32" transform="translate(-887 -1418)" clip-path="url(#a)"><g data-name="グループ 1455"><g data-name="グループ 1454"><path data-name="パス 899" d="M1020.907 1442.48H975.2a71.733 71.733 0 00-12.848-21.214 2.536 2.536 0 00-3.585-.105 2.6 2.6 0 00-.105.105 71.73 71.73 0 00-12.862 21.214h-45.707A13.107 13.107 0 00887 1455.573v71.814a13.107 13.107 0 0013.093 13.093h120.814a13.107 13.107 0 0013.093-13.092v-71.815a13.107 13.107 0 00-13.093-13.093zM960.5 1426.7a66.828 66.828 0 0112.172 23.76 44.344 44.344 0 01-24.343 0 66.826 66.826 0 0112.171-23.76zm-14.7 52.53v-10.706a66.721 66.721 0 011.392-13.294 49.168 49.168 0 0013.308 1.87 49.168 49.168 0 0013.308-1.87 66.7 66.7 0 011.392 13.294v25.406h-29.4zm83.3 48.157a8.2 8.2 0 01-8.193 8.193H900.093a8.2 8.2 0 01-8.193-8.192v-71.815a8.2 8.2 0 018.193-8.193H944.1a71.692 71.692 0 00-3.2 21.144v8.426a19.62 19.62 0 00-17.15 19.43 2.45 2.45 0 002.45 2.45h2.45v7.35a2.45 2.45 0 004.9 0v-7.35h4.9v26.95a2.45 2.45 0 004.9 0v-26.95h34.3v29.4a2.45 2.45 0 104.9 0v-29.4h4.9v12.25a2.45 2.45 0 104.9 0v-12.25h2.45a2.45 2.45 0 002.45-2.45 19.62 19.62 0 00-17.15-19.431v-8.425a71.692 71.692 0 00-3.2-21.144h44.009a8.2 8.2 0 018.193 8.193zm-88.2-45.5v12.043h-12.047a14.741 14.741 0 0112.047-12.046zm39.2 12.043v-12.046a14.742 14.742 0 0112.047 12.046z" fill="#3d3d3d"/></g></g><g data-name="グループ 1457"><g data-name="グループ 1456"><path data-name="パス 900" d="M1031.55 1547.83h-142.1a2.45 2.45 0 00-2.45 2.45v9.8a2.45 2.45 0 002.45 2.45h142.1a2.45 2.45 0 002.45-2.45v-9.8a2.45 2.45 0 00-2.45-2.45zm-2.45 9.8H891.9v-4.9h137.2z" fill="#3d3d3d"/></g></g><g data-name="グループ 1459"><g data-name="グループ 1458"><path data-name="パス 901" d="M960.5 1464.53a9.8 9.8 0 109.8 9.8 9.8 9.8 0 00-9.8-9.8zm0 14.7a4.9 4.9 0 114.9-4.9 4.9 4.9 0 01-4.9 4.9z" fill="#3d3d3d"/></g></g><g data-name="グループ 1461"><g data-name="グループ 1460"><path data-name="パス 902" d="M960.5 1503.73a9.8 9.8 0 00-9.8 9.8 18.637 18.637 0 005.5 13.264l4.3 4.307 4.3-4.307a18.637 18.637 0 005.5-13.264 9.8 9.8 0 00-9.8-9.8zm.84 19.6l-.84.84-.84-.84a13.772 13.772 0 01-4.06-9.8 4.9 4.9 0 019.8 0 13.773 13.773 0 01-4.06 9.8z" fill="#3d3d3d"/></g></g><g data-name="グループ 1463"><g data-name="グループ 1462"><path data-name="パス 903" d="M931.1 1513.53a2.45 2.45 0 00-2.45 2.45v2.45a2.45 2.45 0 004.9 0v-2.45a2.45 2.45 0 00-2.45-2.45z" fill="#fda14b"/></g></g><g data-name="グループ 1465"><g data-name="グループ 1464"><path data-name="パス 904" d="M989.9 1518.43a2.45 2.45 0 00-2.45 2.45v2.45a2.45 2.45 0 104.9 0v-2.45a2.45 2.45 0 00-2.45-2.45z" fill="#fda14b"/></g></g></g></svg>