<svg xmlns="http://www.w3.org/2000/svg" width="25.322" height="28.506"><path d="M9.688 9.658V7.475a2.145 2.145 0 01.082-.734 1.447 1.447 0 012.738 0 2.139 2.139 0 01.082.734v3.362a2.775 2.775 0 01-.041.591 1.491 1.491 0 01-1.083 1.08 2.8 2.8 0 01-.593.041H7.501a2.162 2.162 0 01-.736-.082 1.44 1.44 0 010-2.73 2.163 2.163 0 01.736-.081zM21.705 24.9H3.618V9.016a.706.706 0 01.215-.52l4.69-4.676a.711.711 0 01.521-.214h12.661zM23.759.021a3.839 3.839 0 00-.45-.02H8.563c-.163 0-.327.01-.439.02a2.852 2.852 0 00-1.758.856L.878 6.348A2.837 2.837 0 00.02 8.1a5.12 5.12 0 00-.021.438v17.961a3.728 3.728 0 00.021.448 1.818 1.818 0 001.543 1.538 3.794 3.794 0 00.45.02h21.3a3.792 3.792 0 00.45-.02 1.818 1.818 0 001.543-1.538 3.851 3.851 0 00.02-.448V2.007a3.851 3.851 0 00-.02-.448A1.818 1.818 0 0023.759.02z" fill="#41c9b4" fill-rule="evenodd"/></svg>