<svg xmlns="http://www.w3.org/2000/svg" width="31.465" height="35.422"><path d="M12.038 12.002v-2.71a2.665 2.665 0 01.1-.912 1.8 1.8 0 013.4 0 2.658 2.658 0 01.1.912v4.183a3.448 3.448 0 01-.051.734 1.853 1.853 0 01-1.346 1.342 3.481 3.481 0 01-.737.051h-4.19a2.687 2.687 0 01-.914-.1 1.79 1.79 0 010-3.393 2.688 2.688 0 01.914-.1zm14.933 18.939H4.494V11.204a.878.878 0 01.267-.646l5.833-5.811a.883.883 0 01.648-.266h15.729zM29.523.025A4.77 4.77 0 0028.964 0H10.641c-.2 0-.406.013-.546.025a3.544 3.544 0 00-2.184 1.063l-6.819 6.8a3.525 3.525 0 00-1.066 2.178A6.14 6.14 0 000 10.61v22.318a4.632 4.632 0 00.026.557 2.259 2.259 0 001.917 1.911 4.714 4.714 0 00.559.025h26.462a4.712 4.712 0 00.559-.025 2.259 2.259 0 001.918-1.911 4.785 4.785 0 00.025-.557V2.494a4.785 4.785 0 00-.025-.557A2.26 2.26 0 0029.523.025z" fill="#fff" fill-rule="evenodd"/></svg>