<svg xmlns="http://www.w3.org/2000/svg" width="78" height="40"><ellipse data-name="楕円形 174" cx="39" cy="20" rx="39" ry="20" fill="#8993be"/><path data-name="パス 987" d="M10.926 32.638l4.255-21.849h9.846c4.258.27 6.387 2.428 6.387 6.2 0 6.474-5.056 10.25-9.58 9.98h-4.79l-1.063 5.669zm7.185-9.71l1.331-8.092h3.459c1.863 0 3.193.809 3.193 2.428-.266 4.586-2.395 5.395-4.79 5.665h-3.193zm12.317 4.046l4.253-21.849h5.056l-1.056 5.664h4.79c4.258.27 5.855 2.428 5.323 5.125l-1.867 11.06h-5.322l1.863-9.98c.266-1.349.266-2.158-1.6-2.158h-3.987l-2.4 12.138zm16.159 5.665l4.258-21.849h9.846c4.258.27 6.387 2.428 6.387 6.2 0 6.474-5.056 10.25-9.58 9.98h-4.79l-1.065 5.664zm7.185-9.71l1.331-8.092h3.46c1.863 0 3.193.809 3.193 2.428-.266 4.586-2.395 5.395-4.79 5.665h-3.195z" fill-rule="evenodd"/></svg>