<svg xmlns="http://www.w3.org/2000/svg" width="48" height="24"><g transform="translate(.379 -.052)"><ellipse data-name="楕円形 174" cx="24" cy="12" rx="24" ry="12" transform="translate(-.379 .052)" fill="#3d3d3d"/><path data-name="パス 987" d="M6.534 20.138L9.095 6.995h5.923c2.561.162 3.842 1.46 3.842 3.732a5.7 5.7 0 01-5.763 6h-2.881l-.64 3.407zm4.322-5.841l.8-4.868h2.081c1.121 0 1.921.487 1.921 1.46-.16 2.759-1.441 3.245-2.881 3.408h-1.921zm7.409 2.433l2.561-13.143h3.042l-.64 3.407h2.881c2.561.162 3.522 1.46 3.2 3.083l-1.12 6.653h-3.2l1.121-6c.16-.811.16-1.3-.96-1.3h-2.4l-1.441 7.3zm9.72 3.407l2.561-13.143h5.923c2.561.162 3.842 1.46 3.842 3.732a5.7 5.7 0 01-5.763 6h-2.881l-.64 3.407zm4.322-5.841l.8-4.868h2.082c1.121 0 1.921.487 1.921 1.46-.16 2.759-1.441 3.245-2.881 3.408h-1.921z" fill="#fff" fill-rule="evenodd"/></g></svg>