<svg data-name="グループ 1676" xmlns="http://www.w3.org/2000/svg" width="58" height="58"><defs><clipPath id="a"><path data-name="パス 614" d="M30.907 25.855a10.2 10.2 0 0110.2-10.2h37.605a10.2 10.2 0 0110.2 10.2v37.609a10.2 10.2 0 01-10.2 10.2H41.1a10.2 10.2 0 01-10.2-10.2z" transform="translate(-30.907 -15.66)" fill="#011e36"/></clipPath></defs><g data-name="グループ 1224" clip-path="url(#a)"><path data-name="長方形 448" fill="#011e36" d="M0-.068h57.91v57.91H0z"/><path data-name="パス 612" d="M12.95 41.225V16.737c0-.179.077-.268.23-.268q.612 0 1.456-.019l1.821-.038 2.069-.038q1.092-.019 2.165-.019a14.4 14.4 0 014.9.728 8.516 8.516 0 013.2 1.954 7.5 7.5 0 011.744 2.7 8.975 8.975 0 01.536 3.085 8.514 8.514 0 01-1.418 5.058 8.006 8.006 0 01-3.832 2.893 15.249 15.249 0 01-5.365.9q-.843 0-1.187-.019t-1.035-.019v7.549a.305.305 0 01-.345.345h-4.675q-.264.002-.264-.304zm5.289-20.157v7.933q.5.039.919.038h1.264a9.039 9.039 0 002.74-.383 4.132 4.132 0 001.955-1.265 3.679 3.679 0 00.747-2.452 3.873 3.873 0 00-.556-2.108 3.574 3.574 0 00-1.667-1.36 7.1 7.1 0 00-2.8-.479q-.919 0-1.628.019t-.974.054z" fill="#31a8ff"/><path data-name="パス 613" d="M45.993 27.468a13.517 13.517 0 00-2.761-.8 12.111 12.111 0 00-2.663-.307 4.961 4.961 0 00-1.437.173 1.29 1.29 0 00-.748.479 1.207 1.207 0 00-.191.651 1.019 1.019 0 00.23.613 2.614 2.614 0 00.805.632 16.031 16.031 0 001.686.785 16.729 16.729 0 013.66 1.744 5.567 5.567 0 011.878 1.974 5.262 5.262 0 01.556 2.452 5.506 5.506 0 01-.92 3.162 6.047 6.047 0 01-2.663 2.127 10.72 10.72 0 01-4.311.767 15.59 15.59 0 01-3.238-.307 11.865 11.865 0 01-2.587-.766.5.5 0 01-.268-.46v-4.139a.226.226 0 01.019-.119.223.223 0 01.077-.092.185.185 0 01.108-.023.187.187 0 01.1.042 11.184 11.184 0 003.1 1.169 12.157 12.157 0 002.8.364 4.3 4.3 0 001.973-.345 1.083 1.083 0 00.632-1 1.268 1.268 0 00-.574-.958 9.52 9.52 0 00-2.338-1.111 14.1 14.1 0 01-3.391-1.724 5.84 5.84 0 01-1.8-2.012 5.277 5.277 0 01-.556-2.434 5.491 5.491 0 01.805-2.874 5.847 5.847 0 012.491-2.185 7.9 7.9 0 013.878-.968 24.235 24.235 0 013.231.047 11.026 11.026 0 012.53.844.348.348 0 01.23.211 1.05 1.05 0 01.038.287v3.871a.256.256 0 01-.115.23.251.251 0 01-.269 0z" fill="#31a8ff"/></g></svg>