<svg data-name="グループ 1636" xmlns="http://www.w3.org/2000/svg" width="34.89" height="34.89"><defs><clipPath id="a"><path data-name="パス 614" d="M30.907 21.793a6.133 6.133 0 016.133-6.133h22.624a6.133 6.133 0 016.136 6.133v22.624a6.133 6.133 0 01-6.133 6.133H37.04a6.133 6.133 0 01-6.133-6.133z" transform="translate(-30.907 -15.66)" fill="#3d3d3d"/></clipPath></defs><g data-name="グループ 1224" clip-path="url(#a)"><path data-name="長方形 448" fill="#3d3d3d" d="M0-.041h34.835v34.835H0z"/><path data-name="パス 612" d="M7.79 24.799v-14.73c0-.107.046-.161.138-.161q.368 0 .876-.012l1.1-.023 1.245-.023q.657-.011 1.3-.012a8.661 8.661 0 012.951.438 5.123 5.123 0 011.925 1.176 4.512 4.512 0 011.049 1.625 5.4 5.4 0 01.322 1.856 5.121 5.121 0 01-.853 3.043 4.816 4.816 0 01-2.305 1.74 9.173 9.173 0 01-3.227.542q-.507 0-.714-.012t-.622-.012v4.541a.184.184 0 01-.207.208H7.956q-.166 0-.166-.184zm3.181-12.126v4.772q.3.023.553.023h.761a5.437 5.437 0 001.648-.23 2.486 2.486 0 001.176-.761 2.213 2.213 0 00.449-1.475 2.33 2.33 0 00-.334-1.268 2.15 2.15 0 00-1-.818 4.27 4.27 0 00-1.683-.288q-.553 0-.98.012t-.591.033z" fill="#fff"/><path data-name="パス 613" d="M27.667 16.525a8.132 8.132 0 00-1.661-.484 7.286 7.286 0 00-1.6-.185 2.985 2.985 0 00-.865.1.776.776 0 00-.45.288.726.726 0 00-.115.392.613.613 0 00.138.369 1.572 1.572 0 00.484.38 9.638 9.638 0 001.014.472 10.063 10.063 0 012.2 1.049 3.348 3.348 0 011.13 1.187 3.166 3.166 0 01.334 1.475 3.312 3.312 0 01-.553 1.9 3.638 3.638 0 01-1.6 1.279 6.449 6.449 0 01-2.593.461 9.378 9.378 0 01-1.948-.184 7.138 7.138 0 01-1.556-.461.3.3 0 01-.161-.277v-2.49a.137.137 0 01.011-.071.135.135 0 01.046-.055.111.111 0 01.065-.014.112.112 0 01.061.025 6.728 6.728 0 001.868.7 7.312 7.312 0 001.683.219 2.585 2.585 0 001.187-.208.651.651 0 00.38-.6.763.763 0 00-.346-.576 5.727 5.727 0 00-1.406-.669 8.48 8.48 0 01-2.04-1.037 3.514 3.514 0 01-1.083-1.21 3.174 3.174 0 01-.335-1.464 3.3 3.3 0 01.484-1.729 3.517 3.517 0 011.5-1.314 4.753 4.753 0 012.333-.582 14.579 14.579 0 011.944.028 6.632 6.632 0 011.522.508.208.208 0 01.084.047.211.211 0 01.054.08.633.633 0 01.023.173v2.328a.154.154 0 01-.069.138.151.151 0 01-.162 0z" fill="#fff"/></g></svg>