<svg xmlns="http://www.w3.org/2000/svg" width="49.887" height="37.651"><path d="M42.946 21.62a10.22 10.22 0 00-4.521 1.06 9.4 9.4 0 01-1.013-2.355 6.556 6.556 0 01-.088-1.982 15.964 15.964 0 01.594-2.139c-.01-.088-.107-.52-1.111-.53s-1.871.2-1.968.461a11.33 11.33 0 00-.419 1.5 35.8 35.8 0 01-3.05 5.906 6.05 6.05 0 01-.692-1.727 6.556 6.556 0 01-.088-1.982 15.973 15.973 0 01.594-2.139c-.01-.088-.107-.52-1.111-.53s-1.871.2-1.968.461-.2.893-.419 1.5-2.641 6.063-3.274 7.486c-.322.726-.6 1.3-.809 1.7s-.01.029-.029.069l-.273.52v.01c-.136.245-.283.481-.351.481a3.294 3.294 0 01.019-1.56c.361-1.894 1.238-4.847 1.228-4.955 0-.049.166-.569-.565-.834a.884.884 0 00-1.023.177c-.058 0-.107.157-.107.157s.789-3.326-1.51-3.326c-1.442 0-3.43 1.58-4.414 3.022-.624.343-1.949 1.069-3.352 1.845-.536.294-1.091.608-1.618.893l-.107-.118c-2.785-2.993-7.942-5.112-7.728-9.132.078-1.462.585-5.318 9.9-9.988 7.63-3.826 13.74-2.777 14.8-.442 1.512 3.33-3.262 9.53-11.194 10.43-3.021.343-4.609-.834-5.009-1.275-.419-.461-.477-.481-.633-.392-.253.137-.1.549 0 .795a4.712 4.712 0 002.865 2.266c1.452.481 5 .746 9.286-.922 4.8-1.874 8.556-7.074 7.454-11.42-1.121-4.425-8.409-5.877-15.3-3.414a34.624 34.624 0 00-11.74 6.775C.401 11.544-.203 14.659.051 15.959c.887 4.621 7.211 7.633 9.744 9.86-.127.069-.244.137-.351.2-1.267.628-6.09 3.169-7.3 5.857-1.364 3.042.214 5.23 1.267 5.524a7.763 7.763 0 008.39-3.424 8.523 8.523 0 00.75-7.8l-.029-.059.994-.589a58.473 58.473 0 011.832-1.04 12.289 12.289 0 00-.653 3.336 6.988 6.988 0 001.491 4.847 1.642 1.642 0 001.2.392c1.072 0 1.559-.893 2.1-1.962.663-1.3 1.247-2.816 1.247-2.816s-.731 4.091 1.267 4.091c.731 0 1.462-.952 1.793-1.442v.01s.019-.029.058-.1.08-.123.117-.186v-.02c.292-.51.945-1.678 1.92-3.611 1.257-2.492 2.465-5.612 2.465-5.612a18.012 18.012 0 00.477 2.021 19.407 19.407 0 001.043 2.355c-.292.412-.468.648-.468.648l.01.01c-.234.314-.5.648-.77.981a28.486 28.486 0 00-2.339 2.953.812.812 0 00.21 1.076 1.939 1.939 0 001.228.2 5.439 5.439 0 001.832-.422 6.329 6.329 0 001.579-.834 3.547 3.547 0 001.51-3.13 6.327 6.327 0 00-.575-2.208c.088-.128.175-.255.263-.392a41.493 41.493 0 002.728-4.758 18.01 18.01 0 00.477 2.021 14.219 14.219 0 00.888 2.023 8.717 8.717 0 00-2.66 3.463c-.575 1.668-.127 2.423.721 2.6a2.579 2.579 0 001.335-.275 6.034 6.034 0 001.686-.873 3.842 3.842 0 001.861-3.1 5.977 5.977 0 00-.419-1.835 9.434 9.434 0 014.833-.559c4.336.51 5.194 3.238 5.028 4.376a2.929 2.929 0 01-1.374 1.962c-.3.186-.4.255-.37.392.039.206.175.2.438.157a3.389 3.389 0 002.358-3.032c.117-2.7-2.426-5.642-6.938-5.613zM9.503 32.971c-1.432 1.58-3.45 2.178-4.307 1.668-.926-.54-.565-2.865 1.2-4.543a22.94 22.94 0 013.38-2.537c.2-.128.516-.314.887-.54a1.039 1.039 0 01.1-.059c.068-.039.146-.088.224-.137a6.289 6.289 0 01-1.484 6.148zm10.475-7.172c-.5 1.226-1.549 4.376-2.183 4.2-.546-.147-.877-2.531-.107-4.886a10.93 10.93 0 011.705-3.15c.789-.883 1.647-1.177 1.861-.814.254.471-.964 3.885-1.276 4.65zm8.643 4.16c-.214.108-.409.186-.5.128-.068-.039.088-.186.088-.186s1.082-1.168 1.51-1.707c.244-.314.536-.677.848-1.089v.118c0 1.413-1.345 2.355-1.949 2.737zm6.665-1.53c-.156-.118-.136-.481.39-1.619a6.062 6.062 0 011.481-1.923 2.442 2.442 0 01.146.844 2.757 2.757 0 01-2.017 2.698z" fill="#3d3d3d"/></svg>