<svg xmlns="http://www.w3.org/2000/svg" width="147" height="147"><defs><clipPath id="a"><path data-name="長方形 479" transform="translate(544 1418)" fill="#fff" stroke="#707070" d="M0 0h147v147H0z"/></clipPath></defs><g data-name="マスクグループ 29" transform="translate(-544 -1418)" clip-path="url(#a)"><g data-name="グループ 1420"><g data-name="グループ 1419"><path data-name="パス 881" d="M654.25 1506.2a24.527 24.527 0 01-24.5 24.5v4.9a29.432 29.432 0 0029.4-29.4z" fill="#fda14b"/></g></g><g data-name="グループ 1422"><g data-name="グループ 1421"><path data-name="パス 882" d="M664.05 1506.2a34.337 34.337 0 01-34.3 34.3v4.9a39.247 39.247 0 0039.2-39.2z" fill="#fda14b"/></g></g><g data-name="グループ 1424"><g data-name="グループ 1423"><path data-name="パス 883" d="M673.85 1506.2a44.151 44.151 0 01-44.1 44.1v4.9a49.056 49.056 0 0049-49z" fill="#fda14b"/></g></g><g data-name="グループ 1426"><g data-name="グループ 1425"><path data-name="パス 884" d="M644.45 1506.2a14.714 14.714 0 01-14.7 14.7v4.9a19.622 19.622 0 0019.6-19.6z" fill="#fda14b"/></g></g><g data-name="グループ 1428"><g data-name="グループ 1427"><path data-name="パス 885" d="M664.05 1430.409v-9.959a2.45 2.45 0 00-2.45-2.45H548.9a2.45 2.45 0 00-2.45 2.45v71.05a46.6 46.6 0 0046.55 46.55 50.959 50.959 0 0030.87-10.361 2.45 2.45 0 00.98-1.96v-21.979h14.9a2.45 2.45 0 002.337-1.715 51.319 51.319 0 002.1-10.535h7.228a10.163 10.163 0 007.487-17.03l-14.452-15.77v-6.522a21.92 21.92 0 0019.6-21.769zm-24.5 56.191a46.571 46.571 0 01-1.634 12.25H622.4a2.45 2.45 0 00-2.45 2.45v23.192a46.06 46.06 0 01-26.95 8.658 41.7 41.7 0 01-41.65-41.65v-39.2h88.2zm15.75-8.82a5.263 5.263 0 01-3.878 8.82h-6.972v-20.651zm-13.143-30.38H551.35v-24.5h107.8v7.509a17.01 17.01 0 01-16.993 16.991z" fill="#3d3d3d"/></g></g><g data-name="グループ 1430"><g data-name="グループ 1429"><path data-name="パス 886" d="M683.65 1506.2a53.961 53.961 0 01-53.9 53.9v4.9a58.869 58.869 0 0058.8-58.8z" fill="#fda14b"/></g></g></g></svg>