<svg xmlns="http://www.w3.org/2000/svg" width="35.725" height="29.029"><path data-name="パス 474" d="M11.235 29.029c13.481 0 20.855-11.169 20.855-20.855 0-.317 0-.633-.021-.947a14.913 14.913 0 003.657-3.794 14.63 14.63 0 01-4.21 1.153A7.355 7.355 0 0034.738.532a14.689 14.689 0 01-4.654 1.779A7.337 7.337 0 0017.592 9 20.809 20.809 0 012.486 1.338a7.335 7.335 0 002.269 9.784 7.275 7.275 0 01-3.326-.922v.1a7.332 7.332 0 005.88 7.185A7.318 7.318 0 014 17.608a7.338 7.338 0 006.848 5.09 14.707 14.707 0 01-9.1 3.144A14.919 14.919 0 010 25.736a20.751 20.751 0 0011.235 3.287" fill="#fff"/></svg>