<svg xmlns="http://www.w3.org/2000/svg" width="46" height="46"><defs><clipPath id="a"><path data-name="長方形 58" transform="translate(348.907 536)" fill="none" stroke="#707070" d="M0 0h46v46H0z"/></clipPath></defs><g data-name="マスクグループ 10" transform="rotate(-90 -70.546 465.454)" clip-path="url(#a)"><path data-name="長方形 412" fill="none" d="M348.907 536h46v46h-46z"/><path data-name="パス 474" d="M360.226 553.668c0 10.849 8.988 16.783 16.783 16.783.255 0 .509 0 .762-.017a12 12 0 003.053 2.943 11.774 11.774 0 01-.928-3.388 5.919 5.919 0 003.263 2.593 11.821 11.821 0 01-1.432-3.746 5.9 5.9 0 00-5.38-10.052 16.746 16.746 0 016.162-12.156 5.9 5.9 0 00-7.874 1.826 5.855 5.855 0 01.738-2.677h-.075a5.9 5.9 0 00-5.782 4.732 5.889 5.889 0 01-.1-2.663 5.905 5.905 0 00-4.1 5.511 11.836 11.836 0 01-2.53-7.325 12.007 12.007 0 01.085-1.4 16.7 16.7 0 00-2.645 9.041" fill="#1da1f2"/></g></svg>