<svg xmlns="http://www.w3.org/2000/svg" width="58" height="58"><path data-name="パス 855" d="M29 .083A28.917 28.917 0 1057.917 29 28.917 28.917 0 0029 .083z" fill="#fff"/><path data-name="パス 856" d="M6.647 29a22.353 22.353 0 0012.6 20.118L8.582 19.902A22.272 22.272 0 006.647 29zm37.447-1.126c0-2.762-1.485-4.68-2.333-6.164-1.136-1.857-2.2-3.4-2.2-5.242A4.323 4.323 0 0143.81 12.5c.1 0 .189.008.288.011a22.351 22.351 0 00-33.331 3.564 2.223 2.223 0 00.854.054c2.332 0 5.957-.279 5.957-.279a.922.922 0 01.138 1.839s-1.207.147-2.554.212l8.285 24.838 4.89-14.671-3.636-10.122a35.69 35.69 0 01-2.346-.212.922.922 0 01.137-1.839s3.7.279 5.892.279c2.34 0 5.957-.279 5.957-.279a.922.922 0 01.145 1.839s-1.215.147-2.559.212l8.23 24.6 2.234-7.441a20.727 20.727 0 001.704-7.231zm-14.701 3.072l-6.706 19.5a22.148 22.148 0 006.315.911 22.456 22.456 0 007.427-1.267 3.229 3.229 0 01-.165-.307zM48.62 18.267a16.694 16.694 0 01.151 2.3 21.144 21.144 0 01-1.7 8.015l-6.824 19.747a22.388 22.388 0 008.377-30.062z" fill="#007499"/><path data-name="パス 857" d="M0 29A29 29 0 1029 0 29.034 29.034 0 000 29zm2.893 0A26.107 26.107 0 1129 55.1 26.13 26.13 0 012.893 29z" fill="#007499"/></svg>