<svg xmlns="http://www.w3.org/2000/svg" width="34.89" height="34.89"><path data-name="パス 855" d="M17.445.05A17.395 17.395 0 1034.84 17.445 17.395 17.395 0 0017.445.05z" fill="#fff"/><path data-name="パス 856" d="M3.998 17.445a13.446 13.446 0 007.579 12.1L5.162 11.972a13.4 13.4 0 00-1.164 5.473zm22.526-.677a7.063 7.063 0 00-1.4-3.708 6.33 6.33 0 01-1.326-3.154 2.6 2.6 0 012.556-2.387c.06 0 .113.005.173.007A13.445 13.445 0 006.478 9.67a1.337 1.337 0 00.513.033c1.4 0 3.584-.168 3.584-.168a.555.555 0 01.083 1.106s-.726.088-1.536.128l4.985 14.941 2.941-8.825-2.188-6.091c-.724-.039-1.411-.128-1.411-.128a.555.555 0 01.082-1.106s2.225.168 3.544.168c1.408 0 3.584-.168 3.584-.168a.555.555 0 01.087 1.106s-.731.088-1.54.128l4.951 14.8 1.341-4.477a12.468 12.468 0 001.027-4.35zm-8.843 1.85l-4.034 11.726a13.323 13.323 0 003.8.548 13.508 13.508 0 004.468-.762 1.943 1.943 0 01-.1-.185zm11.566-7.629a10.043 10.043 0 01.091 1.383 12.719 12.719 0 01-1.024 4.822l-4.106 11.878a13.467 13.467 0 005.039-18.084z" fill="#3d3d3d"/><path data-name="パス 857" d="M0 17.445A17.445 17.445 0 1017.445 0 17.466 17.466 0 000 17.445zm1.74 0a15.7 15.7 0 1115.7 15.7 15.718 15.718 0 01-15.7-15.7z" fill="#3d3d3d"/></svg>