<svg data-name="グループ 1677" xmlns="http://www.w3.org/2000/svg" width="58" height="58"><defs><clipPath id="a"><path data-name="パス 611" d="M30.907 25.855a10.2 10.2 0 0110.2-10.2h37.605a10.2 10.2 0 0110.2 10.2v37.609a10.2 10.2 0 01-10.2 10.2H41.1a10.2 10.2 0 01-10.2-10.2z" transform="translate(-30.907 -15.66)" fill="#460137"/></clipPath></defs><g data-name="グループ 1222" clip-path="url(#a)"><path data-name="パス 994" d="M0 .054h57.946V58H0z" fill="#460137"/><path data-name="パス 609" d="M30.748 17.212L23.62 28.684l7.626 12.42a.4.4 0 01.038.288c-.026.09-.115.147-.269.172h-5.441a.859.859 0 01-.8-.383c-.512-1-1.023-1.913-1.533-2.9s-1.054-1.986-1.628-3.008-1.143-2.056-1.705-3.1h-.039q-.767 1.533-1.59 3.066t-1.629 3.046c-.537 1.01-1.086 1.939-1.648 2.935a.542.542 0 01-.536.345h-5.25a.155.155 0 01-.064-.007.156.156 0 01-.094-.084.159.159 0 01-.014-.063.38.38 0 01.057-.268l7.4-12.075-7.2-11.894c-.077-.1-.089-.185-.038-.249a.28.28 0 01.23-.1h5.4a.8.8 0 01.345.058.7.7 0 01.23.211c.46 1.022.971 1.752 1.533 2.773s1.13 2.031 1.705 3.027 1.105 2.005 1.591 3.027h.038q.766-1.571 1.552-3.066t1.61-3.008c.549-1.009 1.079-1.72 1.591-2.716a.584.584 0 01.153-.249.554.554 0 01.306-.058h5.02a.22.22 0 01.191.383z" fill="#ff61f6"/><path data-name="パス 610" d="M41.358 42.375a11.869 11.869 0 01-5.116-1.073 8.136 8.136 0 01-3.584-3.238 10.36 10.36 0 01-1.3-5.423 10.008 10.008 0 011.3-5.02 9.568 9.568 0 013.794-3.679 12.249 12.249 0 016.017-1.38q.192 0 .5.019c.2.013.639.032.921.057v-6.78a.617.617 0 01.521-.694h3.709a.695.695 0 01.693.693v21.842q0 .652.057 1.418t.1 1.379a.4.4 0 01-.23.383 17.584 17.584 0 01-3.7 1.15 20.782 20.782 0 01-3.682.346zm2.441-4.752V27.161a5.343 5.343 0 00-.735-.115 7.617 7.617 0 00-.786-.038 5.916 5.916 0 00-2.682.613 4.931 4.931 0 00-2.8 4.79 6.761 6.761 0 00.4 2.452 4.659 4.659 0 001.073 1.686 4.084 4.084 0 001.609.958 6.3 6.3 0 001.973.307q.537 0 1-.038a5.2 5.2 0 00.953-.153z" fill="#ff61f6"/></g></svg>