<svg data-name="グループ 1637" xmlns="http://www.w3.org/2000/svg" width="34.89" height="34.89"><defs><clipPath id="a"><path data-name="パス 611" d="M30.907 21.793a6.133 6.133 0 016.133-6.133h22.624a6.133 6.133 0 016.136 6.133v22.624a6.133 6.133 0 01-6.133 6.133H37.04a6.133 6.133 0 01-6.133-6.133z" transform="translate(-30.907 -15.66)" fill="#3d3d3d"/></clipPath></defs><g data-name="グループ 1222" clip-path="url(#a)"><path data-name="長方形 447" fill="#3d3d3d" d="M0 .032h34.857v34.857H0z"/><path data-name="パス 609" d="M18.496 10.353l-4.288 6.9 4.588 7.471a.239.239 0 01.023.173c-.016.054-.069.089-.162.1h-3.273a.517.517 0 01-.484-.231c-.308-.6-.615-1.151-.922-1.743s-.634-1.195-.98-1.81-.688-1.237-1.026-1.867h-.023q-.461.922-.956 1.844t-.98 1.833c-.323.607-.653 1.166-.991 1.766a.326.326 0 01-.322.207H5.542a.094.094 0 01-.095-.054.1.1 0 01-.008-.038.229.229 0 01.034-.161l4.449-7.264-4.334-7.155c-.046-.061-.054-.111-.023-.15a.168.168 0 01.138-.058h3.251a.482.482 0 01.207.035.42.42 0 01.138.127c.277.615.584 1.054.922 1.668s.68 1.222 1.026 1.821.665 1.206.957 1.821h.023q.461-.945.933-1.844t.968-1.81c.33-.607.649-1.035.957-1.634a.351.351 0 01.092-.15.333.333 0 01.184-.035h3.02a.132.132 0 01.115.231z" fill="#fff"/><path data-name="パス 610" d="M24.879 25.491a7.14 7.14 0 01-3.077-.645 4.894 4.894 0 01-2.156-1.948 6.232 6.232 0 01-.784-3.262 6.02 6.02 0 01.784-3.02 5.756 5.756 0 012.282-2.213 7.368 7.368 0 013.619-.83q.115 0 .3.012c.123.008.385.02.554.035V9.541a.371.371 0 01.313-.418h2.231a.418.418 0 01.417.417v13.139q0 .392.034.853t.058.83a.238.238 0 01-.138.231 10.576 10.576 0 01-2.224.692 12.5 12.5 0 01-2.213.206zm1.468-2.859v-6.293a3.216 3.216 0 00-.442-.069 4.586 4.586 0 00-.473-.023 3.559 3.559 0 00-1.614.369 2.966 2.966 0 00-1.683 2.881 4.068 4.068 0 00.242 1.475 2.8 2.8 0 00.646 1.014 2.457 2.457 0 00.968.576 3.791 3.791 0 001.187.185q.323 0 .6-.023a3.131 3.131 0 00.569-.092z" fill="#fff"/></g></svg>