<svg xmlns="http://www.w3.org/2000/svg" xmlns:xlink="http://www.w3.org/1999/xlink" width="235" height="145" viewBox="0 0 235 145">
  <defs>
    <clipPath id="clip-path">
      <rect id="長方形_446" data-name="長方形 446" width="235" height="145" transform="translate(70 3259)" fill="#3d3d3d" stroke="#707070" stroke-width="1"/>
    </clipPath>
  </defs>
  <g id="グループ_1666" data-name="グループ 1666" transform="translate(-70 -1906)">
    <g id="マスクグループ_33" data-name="マスクグループ 33" transform="translate(0 -1353)" clip-path="url(#clip-path)">
      <g id="hiker" transform="translate(108.324 3252.323)">
        <g id="グループ_1467" data-name="グループ 1467">
          <g id="グループ_1466" data-name="グループ 1466">
            <path id="パス_905" data-name="パス 905" d="M152.7,73.8a2.64,2.64,0,0,0-3.581-.96h0L128.979,84.47a2.526,2.526,0,0,0-.43-.649L110.074,65.346a2.639,2.639,0,0,0-3.6-.121L85.358,83.7a2.639,2.639,0,0,0,3.452,3.993l.021-.018L108.1,70.822l16.3,16.3-47.86,27.625V72.491h.354a7.97,7.97,0,0,0,0-15.92h-.354V48.738a2.639,2.639,0,1,0-5.278,0v7.833H60.8L47.506,42.214V40.82a2.639,2.639,0,0,0-2.639-2.639H29.031a2.639,2.639,0,0,0-2.639,2.639v31.6a78.668,78.668,0,0,1-15.819,47.2,2.716,2.716,0,0,0-.185.282,10.679,10.679,0,0,0,3.864,14.5,10.487,10.487,0,0,0,8.013,1.066,10.318,10.318,0,0,0,6.313-4.78l4.31-6.281A83.117,83.117,0,0,0,44.711,98.484l5.434,2.747v8.208a7.918,7.918,0,0,0,15.835,0V91.622a2.639,2.639,0,0,0-1.32-2.286L47.424,79.408c.021-.752.084-1.5.084-2.251V63.285l7.743,8.361a2.638,2.638,0,0,0,1.935.845H71.259v44.74a2.477,2.477,0,0,0,.1.5L21.114,146.742a2.639,2.639,0,1,0,2.608,4.589l.031-.018,128-73.9A2.639,2.639,0,0,0,152.7,73.8ZM28.527,121.427,24.1,127.888a5.236,5.236,0,0,1-7.133,1.99l-.064-.037a5.384,5.384,0,0,1-2.008-7.179A83.977,83.977,0,0,0,31.452,77.769H42.2A77.907,77.907,0,0,1,28.527,121.427Zm13.7-48.936H31.671V43.459H42.227ZM60.7,93.148V109.44a2.639,2.639,0,1,1-5.278,0V99.6a2.639,2.639,0,0,0-1.452-2.354l-8.05-4.062c.507-2.6.9-5.236,1.153-7.894ZM58.327,67.2,47.506,55.515V49.973l10.2,11.019a2.639,2.639,0,0,0,1.937.847H73.054a2.195,2.195,0,0,0,1.689,0h2.148a2.716,2.716,0,0,1,0,5.363Z" fill="#3d3d3d"/>
          </g>
        </g>
        <g id="グループ_1469" data-name="グループ 1469">
          <g id="グループ_1468" data-name="グループ 1468">
            <path id="パス_906" data-name="パス 906" d="M58.063,17.152H52.52a13.282,13.282,0,1,0,0,5.278h5.543a2.639,2.639,0,1,0,0-5.278ZM39.588,27.793a7.918,7.918,0,0,1-7.44-5.363h14.88A7.918,7.918,0,0,1,39.588,27.793Zm-7.44-10.641a7.842,7.842,0,0,1,14.88,0Z" fill="#3d3d3d"/>
          </g>
        </g>
        <g id="グループ_1471" data-name="グループ 1471">
          <g id="グループ_1470" data-name="グループ 1470">
            <path id="パス_907" data-name="パス 907" d="M10.557,24.985A10.557,10.557,0,0,0,0,35.542V59.295A18.5,18.5,0,0,0,18.475,77.769a2.639,2.639,0,0,0,2.639-2.639V35.542A10.557,10.557,0,0,0,10.557,24.985Zm5.278,47.242A13.217,13.217,0,0,1,5.278,59.295V35.542a5.278,5.278,0,1,1,10.557,0Z" fill="#3d3d3d"/>
          </g>
        </g>
        <g id="グループ_1473" data-name="グループ 1473">
          <g id="グループ_1472" data-name="グループ 1472">
            <path id="パス_908" data-name="パス 908" d="M131.961,46.1a10.557,10.557,0,1,0,10.557,10.557A10.557,10.557,0,0,0,131.961,46.1Zm0,15.835a5.278,5.278,0,1,1,5.278-5.278A5.278,5.278,0,0,1,131.961,61.934Z" fill="#3d3d3d"/>
          </g>
        </g>
        <g id="グループ_1475" data-name="グループ 1475">
          <g id="グループ_1474" data-name="グループ 1474">
            <path id="パス_909" data-name="パス 909" d="M145.549,32.679l-.015-.009a2.639,2.639,0,0,0-3.616.923l0,0-2.71,4.584a2.64,2.64,0,1,0,4.542,2.692l2.71-4.574A2.639,2.639,0,0,0,145.549,32.679Z" fill="#fda14b"/>
          </g>
        </g>
        <g id="グループ_1477" data-name="グループ 1477">
          <g id="グループ_1476" data-name="グループ 1476">
            <path id="パス_910" data-name="パス 910" d="M155.169,42.983a2.639,2.639,0,0,0-3.512-.988l-4.7,2.639a2.639,2.639,0,0,0-1.012,3.593v0a2.639,2.639,0,0,0,3.592,1.008l4.7-2.639A2.639,2.639,0,0,0,155.169,42.983Z" fill="#fda14b"/>
          </g>
        </g>
        <g id="グループ_1479" data-name="グループ 1479">
          <g id="グループ_1478" data-name="グループ 1478">
            <path id="パス_911" data-name="パス 911" d="M155.714,54.016H150.29a2.639,2.639,0,1,0,0,5.278h5.424a2.639,2.639,0,0,0,0-5.278Z" fill="#fda14b"/>
          </g>
        </g>
        <g id="グループ_1481" data-name="グループ 1481">
          <g id="グループ_1480" data-name="グループ 1480">
            <path id="パス_912" data-name="パス 912" d="M113.486,54.016h-5.424a2.639,2.639,0,0,0,0,5.278h5.424a2.639,2.639,0,0,0,0-5.278Z" fill="#fda14b"/>
          </g>
        </g>
        <g id="グループ_1483" data-name="グループ 1483">
          <g id="グループ_1482" data-name="グループ 1482">
            <path id="パス_913" data-name="パス 913" d="M116.838,43.987l-4.7-2.639a2.64,2.64,0,0,0-2.586,4.6l4.7,2.639a2.64,2.64,0,0,0,2.589-4.6Z" fill="#fda14b"/>
          </g>
        </g>
        <g id="グループ_1485" data-name="グループ 1485">
          <g id="グループ_1484" data-name="グループ 1484">
            <path id="パス_914" data-name="パス 914" d="M124.761,38.181l-2.71-4.584a2.639,2.639,0,0,0-4.542,2.689l2.713,4.574a2.639,2.639,0,0,0,4.539-2.679Z" fill="#fda14b"/>
          </g>
        </g>
        <g id="グループ_1487" data-name="グループ 1487">
          <g id="グループ_1486" data-name="グループ 1486">
            <path id="パス_915" data-name="パス 915" d="M131.985,29.12a2.639,2.639,0,0,0-2.639,2.639v5.278a2.639,2.639,0,0,0,5.278,0V31.76A2.639,2.639,0,0,0,131.985,29.12Z" fill="#fda14b"/>
          </g>
        </g>
      </g>
    </g>
    <circle id="楕円形_176" data-name="楕円形 176" cx="6" cy="6" r="6" transform="translate(234 1950)" fill="#fda14b"/>
  </g>
</svg>
