<svg id="グループ_1581" data-name="グループ 1581" xmlns="http://www.w3.org/2000/svg" width="365.256" height="279" viewBox="0 0 365.256 279">
  <g id="undraw_code_review_l1q9_1_" data-name="undraw_code_review_l1q9 (1)">
    <path id="パス_928" data-name="パス 928" d="M188.746,253.055c-78.655-6-172.434-67.185-167.659-130.126S117.077,1.813,195.732,7.816,319.265,131.056,314.49,194,267.4,259.058,188.746,253.055Z" transform="translate(-12.106 -7.389)" fill="#f9f9f9"/>
    <ellipse id="楕円形_160" data-name="楕円形 160" cx="164.166" cy="10.108" rx="164.166" ry="10.108" transform="translate(18.961 235.536)" fill="#3d3d3d"/>
    <ellipse id="楕円形_161" data-name="楕円形 161" cx="139.715" cy="7.076" rx="139.715" ry="7.076" transform="translate(43.911 238.568)" fill="#3d3d3d" opacity="0.1"/>
    <ellipse id="楕円形_162" data-name="楕円形 162" cx="68.86" cy="6.57" rx="68.86" ry="6.57" transform="translate(0 265.86)" fill="#3d3d3d"/>
    <ellipse id="楕円形_163" data-name="楕円形 163" cx="58.88" cy="4.043" rx="58.88" ry="4.043" transform="translate(9.98 267.881)" fill="#3d3d3d" opacity="0.1"/>
    <rect id="長方形_491" data-name="長方形 491" width="244.502" height="194.072" transform="translate(63.371 51.066)" fill="#fff" stroke="#3d3d3d" stroke-width="1"/>
    <path id="パス_929" data-name="パス 929" d="M194.964,85.827H135.086c-.4,0-1,.409-1,0a1.279,1.279,0,0,1,1-1.011h59.878a1.279,1.279,0,0,1,1,1.011C195.962,86.235,195.367,85.827,194.964,85.827Z" transform="translate(-12.336 -7.232)" fill="#f2f2f2"/>
    <path id="パス_930" data-name="パス 930" d="M260.894,93.827H166.088c-.4,0,0,.409,0,0s-.4-1.011,0-1.011h94.807a1.279,1.279,0,0,1,1,1.011C261.892,94.235,261.3,93.827,260.894,93.827Z" transform="translate(-12.4 -7.216)" fill="#f2f2f2"/>
    <path id="パス_931" data-name="パス 931" d="M194.964,101.827H135.086c-.4,0-1,.409-1,0a1.279,1.279,0,0,1,1-1.011h59.878a1.279,1.279,0,0,1,1,1.011C195.962,102.235,195.367,101.827,194.964,101.827Z" transform="translate(-12.336 -7.2)" fill="#f2f2f2"/>
    <path id="パス_932" data-name="パス 932" d="M260.964,102.838H201.086a1.011,1.011,0,0,1,0-2.022h59.878a1.011,1.011,0,0,1,0,2.022Z" transform="translate(-12.47 -7.202)" fill="#f2f2f2"/>
    <path id="パス_933" data-name="パス 933" d="M195.964,110.838H135.088c-.4,0,0-.6,0-1.011s-.4-1.011,0-1.011h60.876c.4,0,0,.6,0,1.011S196.367,110.838,195.964,110.838Z" transform="translate(-12.337 -7.186)" fill="#f2f2f2"/>
    <path id="パス_934" data-name="パス 934" d="M195.964,118.838H135.088c-.4,0,0-.6,0-1.011s-.4-1.011,0-1.011h60.876c.4,0,0,.6,0,1.011S196.367,118.838,195.964,118.838Z" transform="translate(-12.337 -7.171)" fill="#f2f2f2"/>
    <path id="パス_935" data-name="パス 935" d="M223.051,86.837H206.086a1.011,1.011,0,0,1,0-2.022h16.965a1.011,1.011,0,0,1,0,2.022Z" transform="translate(-12.48 -7.234)" fill="#f2f2f2"/>
    <path id="パス_936" data-name="パス 936" d="M223.051,110.838H206.086a1.011,1.011,0,0,1,0-2.022h16.965a1.011,1.011,0,0,1,0,2.022Z" transform="translate(-12.48 -7.186)" fill="#f2f2f2"/>
    <path id="パス_937" data-name="パス 937" d="M223.051,117.827H206.086c-.4,0-1,.409-1,0a1.279,1.279,0,0,1,1-1.011h16.965a1.279,1.279,0,0,1,1,1.011C224.049,118.235,223.455,117.827,223.051,117.827Z" transform="translate(-12.48 -7.168)" fill="#f2f2f2"/>
    <path id="パス_938" data-name="パス 938" d="M252.051,117.827H235.086c-.4,0-1,.409-1,0a1.279,1.279,0,0,1,1-1.011h16.965a1.279,1.279,0,0,1,1,1.011C253.049,118.235,252.455,117.827,252.051,117.827Z" transform="translate(-12.539 -7.168)" fill="#f2f2f2"/>
    <path id="パス_939" data-name="パス 939" d="M152.051,93.827H135.086c-.4,0-1,.409-1,0a1.279,1.279,0,0,1,1-1.011h16.965a1.279,1.279,0,0,1,1,1.011C153.049,94.235,152.455,93.827,152.051,93.827Z" transform="translate(-12.336 -7.216)" fill="#f2f2f2"/>
    <path id="パス_940" data-name="パス 940" d="M194.964,204.829H135.086a1.279,1.279,0,0,1-1-1.011c0-.409.594,0,1,0h59.878c.4,0,1-.409,1,0A1.279,1.279,0,0,1,194.964,204.829Z" transform="translate(-12.336 -6.992)" fill="#f2f2f2"/>
    <path id="パス_941" data-name="パス 941" d="M194.964,220.829H135.086a1.279,1.279,0,0,1-1-1.011c0-.409.594,0,1,0h59.878c.4,0,1-.409,1,0A1.279,1.279,0,0,1,194.964,220.829Z" transform="translate(-12.336 -6.96)" fill="#f2f2f2"/>
    <path id="パス_942" data-name="パス 942" d="M194.964,228.829H135.086a1.279,1.279,0,0,1-1-1.011c0-.409.594,0,1,0h59.878c.4,0,1-.409,1,0A1.279,1.279,0,0,1,194.964,228.829Z" transform="translate(-12.336 -6.944)" fill="#f2f2f2"/>
    <path id="パス_943" data-name="パス 943" d="M221.051,220.827H204.086c-.4,0-1,.409-1,0a1.279,1.279,0,0,1,1-1.011h16.965a1.279,1.279,0,0,1,1,1.011C222.049,221.235,221.455,220.827,221.051,220.827Z" transform="translate(-12.476 -6.96)" fill="#f2f2f2"/>
    <path id="パス_944" data-name="パス 944" d="M221.051,228.829H204.086a1.279,1.279,0,0,1-1-1.011c0-.409.594,0,1,0h16.965c.4,0,1-.409,1,0A1.279,1.279,0,0,1,221.051,228.829Z" transform="translate(-12.476 -6.944)" fill="#f2f2f2"/>
    <path id="パス_945" data-name="パス 945" d="M250.051,220.827H233.086c-.4,0-1,.409-1,0a1.279,1.279,0,0,1,1-1.011h16.965a1.279,1.279,0,0,1,1,1.011C251.049,221.235,250.455,220.827,250.051,220.827Z" transform="translate(-12.535 -6.96)" fill="#f2f2f2"/>
    <path id="パス_946" data-name="パス 946" d="M260.894,212.829H166.088c-.4,0,0-.6,0-1.011s-.4,0,0,0h94.807c.4,0,1-.409,1,0A1.279,1.279,0,0,1,260.894,212.829Z" transform="translate(-12.4 -6.976)" fill="#f2f2f2"/>
    <path id="パス_947" data-name="パス 947" d="M152.051,212.829H135.086a1.279,1.279,0,0,1-1-1.011c0-.409.594,0,1,0h16.965c.4,0,1-.409,1,0A1.279,1.279,0,0,1,152.051,212.829Z" transform="translate(-12.336 -6.976)" fill="#f2f2f2"/>
    <path id="パス_948" data-name="パス 948" d="M260.894,236.827H166.088c-.4,0,0,.409,0,0s-.4-1.011,0-1.011h94.807a1.279,1.279,0,0,1,1,1.011C261.892,237.235,261.3,236.827,260.894,236.827Z" transform="translate(-12.4 -7.355)" fill="#f2f2f2"/>
    <path id="パス_949" data-name="パス 949" d="M152.051,236.827H135.086c-.4,0-1,.409-1,0a1.279,1.279,0,0,1,1-1.011h16.965a1.279,1.279,0,0,1,1,1.011C153.049,237.235,152.455,236.827,152.051,236.827Z" transform="translate(-12.336 -7.355)" fill="#f2f2f2"/>
    <path id="パス_950" data-name="パス 950" d="M169.04,130.5l-23.951,23.248L169.04,177l4.99-5.054-17.963-18.194,17.963-18.194Z" transform="translate(-0.384 -0.03)" fill="#073061"/>
    <path id="パス_951" data-name="パス 951" d="M203.079,130.5l23.951,23.248L203.079,177l-4.99-5.054,17.963-18.194-17.963-18.194Z" transform="translate(-0.491 -0.03)" fill="#073061"/>
    <ellipse id="楕円形_164" data-name="楕円形 164" cx="2.994" cy="3.032" rx="2.994" ry="3.032" transform="translate(66.864 54.529)" fill="#073061"/>
    <ellipse id="楕円形_165" data-name="楕円形 165" cx="2.994" cy="3.032" rx="2.994" ry="3.032" transform="translate(74.848 54.529)" fill="#073061"/>
    <ellipse id="楕円形_166" data-name="楕円形 166" cx="2.994" cy="3.032" rx="2.994" ry="3.032" transform="translate(82.831 54.529)" fill="#073061"/>
    <rect id="長方形_492" data-name="長方形 492" width="243.504" height="1.011" transform="translate(63.87 62.553)" opacity="0.1"/>
    <path id="パス_952" data-name="パス 952" d="M377.976,205.323c0,20.959-11.77,28.3-26.945,28.3s-27.943-7.343-27.943-28.3,27.943-47.507,27.943-47.507S377.976,184.364,377.976,205.323Z" transform="translate(-12.72 -7.564)" fill="#f9f9f9"/>
    <path id="パス_953" data-name="パス 953" d="M338.064,223.277V205.083l11.976-21.227-11.976,19.205v-8.086l7.984-16.173-7.984,14.151h0V178.8l8.982-13.14-8.982,11.119v7.076l-8.982-14.151,7.984,16.173V202.05h0l-10.978-15.162,10.978,16.173v2.022h-1l-2,40.432h2.994l1-21.227,9.98-15.162Z" transform="translate(-0.751 -0.881)" fill="#3d3d3d"/>
    <path id="パス_954" data-name="パス 954" d="M52.068,251.838a16.627,16.627,0,0,1-2.994,1.011c-1.648.456-3.325.622-4.99,1.011-.682.159-1.779.337-2,1.011-.159.494.832.519,1,1.011,1.839,5.462,2.056,11.225,4.99,16.173a29.114,29.114,0,0,0,4.99,6.065,3.084,3.084,0,0,0,2,1.011,2.119,2.119,0,0,0,2-1.011c.494-.691,1.344-1.244,1-2.022-.263-.592-.683-1.456-1-2.022-.342-.72-.95-1.224-1-2.022-.29-2.336-.8-4.864,0-7.076.536-1.483,2.175-2.7,2.994-4.043a8.815,8.815,0,0,0,1-5.054c-.124-1.07-.453-1.1-1-2.022s-1.9-3.734-2.994-4.043C54.921,249.5,53.06,251.323,52.068,251.838Z" transform="translate(-12.149 -7.205)" fill="#3d3d3d"/>
    <path id="パス_955" data-name="パス 955" d="M82.083,269.882a7.74,7.74,0,0,1,0,2.022c-.343.918-1.556,1.147-2,2.022a5.548,5.548,0,0,0,0,4.043c.254.816.316,1.517,1,2.022a5.082,5.082,0,0,0,2,1.011,166,166,0,0,0,17.963,1.011A5.864,5.864,0,0,0,104.038,281c.94-.533,1.637-2.154,1-3.032-.574-.788-2.028.046-2.994,0-2.515-.129-4.112-1.33-5.988-3.032a4.68,4.68,0,0,1-1-1.011c-.2-.369-.868-.611-1-1.011a58.424,58.424,0,0,0-2.994-7.076c-.318-.6-.408-1.7-1-2.022-.432-.2-.523,0-1,0-1.472-.1-5.848-.149-6.986,1.011C81.031,265.9,82.106,268.521,82.083,269.882Z" transform="translate(-12.225 -7.054)" fill="#3d3d3d"/>
    <ellipse id="楕円形_167" data-name="楕円形 167" cx="9.481" cy="9.097" rx="9.481" ry="9.097" transform="translate(68.86 113.592)" fill="#fbbebe"/>
    <path id="パス_956" data-name="パス 956" d="M82.084,137.87c-.559,1.516-.616,2.216-2,3.032l12.974,3.032c-.472-1.922-1.349-4.116-1-6.065a1.685,1.685,0,0,0,0-1.011,2.83,2.83,0,0,0-2-2.022,32.741,32.741,0,0,1-6.986-2.022C82.408,133.985,82.581,136.522,82.084,137.87Z" transform="translate(-12.226 -7.176)" fill="#fbbebe"/>
    <path id="パス_957" data-name="パス 957" d="M79.065,137.827a10.307,10.307,0,0,1,8.982,0,25.847,25.847,0,0,1,4.99,4.043,5.54,5.54,0,0,1,2,4.043,17.507,17.507,0,0,1,0,3.032c-.488,3.568,1.824,6.445,4.99,8.086,1.033,1.743.982,4.032,1,6.065.06,7.7-2.711,15.744-1,23.248.4,1.762,1.649,3.28,2,5.054.45,2.3-.235,4.745,0,7.076a29.836,29.836,0,0,0,2,7.076c-.566.912-1.933,1.085-2.994,1.011a7.8,7.8,0,0,1-2.994-1.011c-4.583-2.375-9.225-5.057-13.972-7.076-3.14-1.336-5.935-2.5-8.982-4.043s-6.054-3.757-6.986-7.076c-.4-1.435.022-2.552,0-4.043-.093-6.282-.352-13.073,1-19.205,1.191-5.408,3.491-10.656,3.992-16.173.163-1.8.007-3.555,1-5.054C75.475,140.763,78.071,140.168,79.065,137.827Z" transform="translate(-12.201 -7.495)" fill="#3d3d3d"/>
    <path id="パス_958" data-name="パス 958" d="M86.065,129.969c.554-.732,1.111-.216,2,0s2.1-.176,2.994,0c.411.118.635.228,1,0,.312-.312-.025-.567,0-1.011.313-1.887,1.167-4.159,1-6.065-.047-.267-.08.259,0,0a1.457,1.457,0,0,1,1-1.011c1.872-.641,3.145-3.059,2.994-5.054-.014-.465.331-.688,0-1.011-.381-.315-1.5,0-2,0-2.527-.021-4.458-.022-6.986,0-.935.008-2.183-.472-2.994,0a25.085,25.085,0,0,0-2,2.022c-1.4,1.147-3.282,1.434-4.99,2.022a3.8,3.8,0,0,0-2,1.011c-.568.657-1.355,1.226-1,2.022.183.331.773.707,1,1.011,1.007,1.631.848,4.147,1,6.065.188,2.4,3.615,6.509,5.988,7.076C86.9,137.96,84.8,131.542,86.065,129.969Z" transform="translate(-12.216 -7.244)" fill="#3d3d3d"/>
    <path id="パス_959" data-name="パス 959" d="M80.085,233.99c.242,1.749,1.081,3.29,1,5.054-.116,2.463-.836,4.615-1,7.076-.121,1.837-.746,4.241-1,6.065-.161,1.168.233,1.877,0,3.032a14.744,14.744,0,0,0,2,11.119,4.2,4.2,0,0,0,1,1.011c.26.1-.276.026,0,0a70.037,70.037,0,0,0,8.982-1.011c.2-.008-.139.142,0,0,.061-.094-.014.112,0,0,.5-2.608-.707-5.446-1-8.086-.31-2.82.335-5.33,1-8.086a37.557,37.557,0,0,1,1-4.043c.32-.887.72-2.131,1-3.032a18.385,18.385,0,0,0,1-4.043c.193-2.317-.011-4.748,0-7.076.066-2.206.425-4.911,0-7.076-.609-2.74-1.757-4.561-2.994-7.076-.661.161-1.455-.418-2,0a42.463,42.463,0,0,1-4.99,3.032c-1.157.544-3.257.887-3.992,2.022-.724,1.119-.055,3.82,0,5.054C80.18,230.044,79.794,231.887,80.085,233.99Z" transform="translate(-12.223 -7.551)" fill="#3d3d3d"/>
    <path id="パス_961" data-name="パス 961" d="M67.063,196.816c-1.249,3.4,1.4,6.855,2.994,10.108,3.928,8.015,6.268,16.754,8.982,25.27a3.25,3.25,0,0,1,0,2.022,2.532,2.532,0,0,1-1,1.011,19.549,19.549,0,0,1-5.988,3.032,28.33,28.33,0,0,0-5.988,3.032c-1.615,1.014-3.48,1.864-4.99,3.032l-4.99,4.043c-.311.213-.778-.308-1,0a4.542,4.542,0,0,0,0,3.032c.611,2.229,2.039,3.964,2.994,6.065a5.753,5.753,0,0,0,1,2.022c.75.408,1.423-.373,2-1.011s1.188-1.748,2-2.022,1.154.12,2,0a7.837,7.837,0,0,0,3.992-2.022c4.012-3.987,10.556-4.561,14.97-8.086.638-.578,1.288-.524,2-1.011.746-.447,1.222-.616,2-1.011a10.362,10.362,0,0,0,4.99-6.065c.793-2.547.428-5.479,1-8.086a35.052,35.052,0,0,0,1-4.043,24.453,24.453,0,0,0,0-4.043l-2-20.216c-.13-1.625.252-2.433,0-4.043-4.73.171-9.239-.057-13.972,0C75.273,197.872,70.636,198.021,67.063,196.816Z" transform="translate(-12.175 -7.776)" fill="#3d3d3d"/>
    <path id="パス_962" data-name="パス 962" d="M66.087,201.9c.642,1.045,1.919.573,2.994,0s1.916-1.453,2.994-2.022a10.56,10.56,0,0,1,4.99-1.011,33.3,33.3,0,0,1,7.984,1.011c2.572.742,4.327,2.307,6.986,2.022.463-.05,1.744.4,2,0,.148-.287.016-.688,0-1.011v-3.032c.053-.407.174-.64,0-1.011a3.214,3.214,0,0,0-1-1.011c-3.785-1.856-8.771-1.876-12.974-2.022-2.136-.074-3.85-.013-5.988,0-1.814.011-4.224-.491-5.988,0C65.715,194.477,64.886,199.948,66.087,201.9Z" transform="translate(-12.196 -7.059)" fill="#3d3d3d"/>
    <path id="パス_963" data-name="パス 963" d="M90.037,140.859c-4.959-.044-10.011-3.962-14.97-4.043-.6-.042-1.445.768-2,1.011-.691.353-.473.435-1,1.011-1.466,1.608-3.484,2.474-4.99,4.043-1.412,1.472-2.553,4.092-2,6.065a4.551,4.551,0,0,0,4.99,3.032c.794-2.6,1.773-5.533,3.992-7.076,1.154-.75,2.727-.474,3.992-1.011,2.229-1.023,4.659-2.788,6.986-2.022.858.328,1.259,1.469,2,2.022l3.992,2.022C90.583,144.107,90.864,142.523,90.037,140.859Z" transform="translate(-12.195 -7.187)" fill="#3d3d3d"/>
    <path id="パス_964" data-name="パス 964" d="M69.074,149.905c-.658.832.145,1.976,0,3.032-.1.7-.761,1.355-1,2.022-.246.69.093,1.294,0,2.022-.094.529.182,1.516,0,2.022a22.3,22.3,0,0,0-1,4.043l-1,7.076a25.911,25.911,0,0,0,0,3.032c.044.747-.857,1.287-1,2.022-.192.717.286,1.337,0,2.022a2.149,2.149,0,0,0,0,2.022,4.39,4.39,0,0,0-1,5.054c.172.224-.092-.269,0,0a1.626,1.626,0,0,1,0,1.011l-1,3.032c-.225.606-.625.872,0,1.011a5.729,5.729,0,0,0-1,2.022c-.261.721.541,1.41,1,2.022.218.194-.146.757,0,1.011a1.638,1.638,0,0,1,0,1.011c-.265,1.046.428,2.12,1,3.032.6.91.934,1.2,2,1.011a11.505,11.505,0,0,1,4.99,0c3.811.708,8.284.828,11.976,2.022,4.213,1.362,7.572,3.624,11.976,4.043a1.647,1.647,0,0,0,1,0c.224-.215.969-.7,1-1.011.454-2.154.544-3.91,1-6.065a63.7,63.7,0,0,0,1-7.076c.155-1.571.954-3.475,1-5.054v-13.14a11.149,11.149,0,0,0-1-5.054l-2-6.065c-1.151-3.723-4.049-7.336-4.99-11.119-.6-2.394-.4-5.209-2-7.076-2.275-2.66-6.534-2.479-9.98-2.022a8.9,8.9,0,0,0-3.992,1.011,16.035,16.035,0,0,0-3.992,4.043C71.153,148.072,70.009,148.723,69.074,149.905Z" transform="translate(-12.189 -7.458)" fill="#3d3d3d"/>
    <path id="パス_965" data-name="パス 965" d="M77.087,186.9c.284,1.24.633,1.814,1,3.032.611,2.041,1.386,4.024,2,6.065.256.857-.184,2.157,0,3.032a10.653,10.653,0,0,1-1,6.065,25.171,25.171,0,0,0-2,6.065,5.163,5.163,0,0,0,2,4.043,5.069,5.069,0,0,0,3.992,1.011c.539-.015.5-.807,1-1.011a4.119,4.119,0,0,0,2-3.032,49.95,49.95,0,0,0,1-13.14l-1-11.119a23.661,23.661,0,0,0-1-6.065c-.24-.757-.316-2.549-1-3.032s-3.155.04-3.992,0C76.156,178.631,76.451,184.122,77.087,186.9Z" transform="translate(-12.219 -7.267)" fill="#fbbebe"/>
    <path id="パス_966" data-name="パス 966" d="M81.073,144.817c-.8-.425-1.221.537-2,1.011a8.759,8.759,0,0,0-2,2.022c-1.732,2.142-3.251,4.319-2.994,7.076.1,1.034-.265,2.03,0,3.032,1.161,4.4-.147,8.591,0,13.14.085,2.629,1.433,5.519,2,8.086.115.524-.5.834,0,1.011a4.865,4.865,0,0,0,2,0,8.23,8.23,0,0,1,7.984,1.011c.93-.5.208-1.986,0-3.032-.619-3.108.975-6.1,2-9.1a33.469,33.469,0,0,0,2-9.1,31.462,31.462,0,0,0-2-11.119,4.3,4.3,0,0,0-1-2.022c-.5-.378-1.385.137-2,0A26.565,26.565,0,0,1,81.073,144.817Z" transform="translate(-12.214 -7.285)" fill="#fff"/>
  </g>
</svg>
