<svg id="icons8-css3" xmlns="http://www.w3.org/2000/svg" width="55.44" height="63" viewBox="0 0 55.44 63">
  <path id="パス_583" data-name="パス 583" d="M62.926,4.636H7.486l4.184,56.7,23.013,6.3,23.013-6.3,5.23-56.7Z" transform="translate(-7.486 -4.636)" fill="#1f62ae"/>
  <path id="パス_584" data-name="パス 584" d="M23.786,7.924V60.018l19.63-5.209L47.779,7.924Z" transform="translate(2.208 -2.471)" fill="#3b9cd7"/>
  <path id="パス_585" data-name="パス 585" d="M40.145,13.071H23.786V19.54h8.725L31.42,26.009H23.786v7.547H31.42V41.1l-7.634,2.156v7.547l14.177-4.313,1.091-20.485h0Z" transform="translate(2.954 0.067)" fill="#fff"/>
  <path id="パス_586" data-name="パス 586" d="M30.3,13.071V19.54H15.036V13.071ZM22.67,26.009v7.547H30.3V26.009ZM23.76,36.79H16.126l1.091,9.7L30.3,50.806V43.259L23.76,41.1Z" transform="translate(-2.675 0.067)" fill="#fff"/>
</svg>
