<svg xmlns="http://www.w3.org/2000/svg" width="38.366" height="57.549" viewBox="0 0 38.366 57.549">
  <g id="グループ_1678" data-name="グループ 1678" transform="translate(-1.28)">
    <path id="パス_615" data-name="パス 615" d="M10.871,24.3a9.591,9.591,0,0,0,9.591-9.592V5.12H10.871a9.591,9.591,0,1,0,0,19.183Z" transform="translate(0 33.246)" fill="#0acf83"/>
    <path id="パス_616" data-name="パス 616" d="M1.28,12.151A9.592,9.592,0,0,1,10.872,2.56h9.591V21.743H10.871A9.591,9.591,0,0,1,1.28,12.151Z" transform="translate(0 16.623)" fill="#a259ff"/>
    <path id="パス_617" data-name="パス 617" d="M1.28,9.591A9.591,9.591,0,0,1,10.864,0h9.591V19.183H10.871A9.591,9.591,0,0,1,1.28,9.591Z" fill="#f24e1e"/>
    <path id="パス_618" data-name="パス 618" d="M3.84,0h9.591a9.591,9.591,0,0,1,0,19.183H3.84Z" transform="translate(16.623)" fill="#ff7262"/>
    <path id="パス_619" data-name="パス 619" d="M23.023,12.151A9.591,9.591,0,1,1,13.431,2.56a9.592,9.592,0,0,1,9.592,9.591Z" transform="translate(16.623 16.623)" fill="#1abcfe"/>
  </g>
</svg>
