<svg xmlns="http://www.w3.org/2000/svg" width="38.366" height="57.549" viewBox="0 0 38.366 57.549">
  <g id="グループ_1674" data-name="グループ 1674" transform="translate(-54.28)">
    <path id="パス_999" data-name="パス 999" d="M10.871,24.3a9.591,9.591,0,0,0,9.591-9.592V5.12H10.871a9.591,9.591,0,1,0,0,19.183Z" transform="translate(53 33.246)" fill="#3d3d3d"/>
    <path id="パス_997" data-name="パス 997" d="M1.28,12.151A9.592,9.592,0,0,1,10.872,2.56h9.591V21.743H10.871A9.591,9.591,0,0,1,1.28,12.151Z" transform="translate(53 16.623)" fill="#3d3d3d"/>
    <path id="パス_996" data-name="パス 996" d="M1.28,9.591A9.591,9.591,0,0,1,10.864,0h9.591V19.183H10.871A9.591,9.591,0,0,1,1.28,9.591Z" transform="translate(53)" fill="#3d3d3d"/>
    <path id="パス_995" data-name="パス 995" d="M3.84,0h9.591a9.591,9.591,0,0,1,0,19.183H3.84Z" transform="translate(69.623)" fill="#3d3d3d"/>
    <path id="パス_998" data-name="パス 998" d="M23.023,12.151A9.591,9.591,0,1,1,13.431,2.56a9.592,9.592,0,0,1,9.592,9.591Z" transform="translate(69.623 16.623)" fill="#3d3d3d"/>
  </g>
</svg>
