<svg id="icons8-github" xmlns="http://www.w3.org/2000/svg" xmlns:xlink="http://www.w3.org/1999/xlink" width="58" height="58" viewBox="0 0 58 58">
  <defs>
    <linearGradient id="linear-gradient" y1="0.5" x2="1" y2="0.5" gradientUnits="objectBoundingBox">
      <stop offset="0"/>
      <stop offset="1" stop-color="#343434"/>
    </linearGradient>
  </defs>
  <path id="パス_600" data-name="パス 600" d="M33,4a28.991,28.991,0,0,0-8.961,56.566H41.961A28.991,28.991,0,0,0,33,4Z" transform="translate(-4 -4)" fill="url(#linear-gradient)"/>
  <path id="パス_601" data-name="パス 601" d="M39.942,56.051,39.927,47.6a8.634,8.634,0,0,0-.936-3.917c8.224-1.652,12.225-6.514,12.225-14.836a13.646,13.646,0,0,0-2.881-8.63,8.658,8.658,0,0,0,.321-1.43,10.733,10.733,0,0,0-.281-4.35l-.039-.169a16.028,16.028,0,0,0-.609-2.023l-.162-.411L47.4,11.42l-.44-.047-.442-.047s-.29-.031-.73-.031a7.62,7.62,0,0,0-2.372.351l-.286.1A16.051,16.051,0,0,0,39.609,13.3c-.417.249-.873.534-1.362.851a30.8,30.8,0,0,0-14.195.007c-.494-.321-.953-.608-1.373-.859a16.121,16.121,0,0,0-3.524-1.558l-.286-.1A7.6,7.6,0,0,0,16.5,11.3c-.44,0-.73.031-.73.031l-.44.047-.437.045-.163.41-.165.413a15.906,15.906,0,0,0-.611,2.028l-.039.168a10.726,10.726,0,0,0-.281,4.349,8.721,8.721,0,0,0,.335,1.474,13.71,13.71,0,0,0-2.822,8.587c0,8.3,4.006,13.161,12.241,14.826a8.755,8.755,0,0,0-.659,1.784,4.735,4.735,0,0,1-.784.2,7.234,7.234,0,0,1-1.077.079,4.779,4.779,0,0,1-2.092-.378,8.217,8.217,0,0,1-2.061-2.213,8.255,8.255,0,0,0-2.9-2.809,7.517,7.517,0,0,0-2.958-.732,3.459,3.459,0,0,0-.548.041A2.376,2.376,0,0,0,8.577,40.78a1.915,1.915,0,0,0-.128,1.663,4.321,4.321,0,0,0,1.958,1.83,5.633,5.633,0,0,1,1.56,1.617,8.323,8.323,0,0,1,.7,1.446c.127.313.267.655.456,1.067a8.8,8.8,0,0,0,3.066,2.949,10.95,10.95,0,0,0,4.6,1l.179,0h0a14.1,14.1,0,0,0,1.464-.1v3.809c0,.771-.783.946-1.822.93l.8.268a28.682,28.682,0,0,0,19.539,0l1.025-.382C40.94,56.841,39.951,56.672,39.942,56.051Z" transform="translate(-2.024 -0.972)" opacity="0.05"/>
  <path id="パス_602" data-name="パス 602" d="M40.838,56.99c-.592.069-1.867-.159-1.867-1.159V47.37a7.938,7.938,0,0,0-1.365-4.449c8.623-1.4,12.652-5.967,12.652-14.3a12.91,12.91,0,0,0-2.972-8.487,7.806,7.806,0,0,0,.42-1.672,10,10,0,0,0-.268-4.083L47.4,14.2a14.985,14.985,0,0,0-.579-1.923l-.162-.411-.442-.047s-.259-.028-.655-.028a6.849,6.849,0,0,0-2.137.313l-.286.1A15.531,15.531,0,0,0,39.755,13.7c-.484.289-1.023.628-1.605,1.012a28.465,28.465,0,0,0-7.2-.882,28.634,28.634,0,0,0-7.258.889c-.587-.386-1.13-.727-1.617-1.019a15.461,15.461,0,0,0-3.384-1.493l-.286-.1a6.886,6.886,0,0,0-2.137-.313c-.4,0-.655.028-.655.028l-.44.047-.165.413a14.985,14.985,0,0,0-.579,1.923l-.039.169a9.943,9.943,0,0,0-.268,4.082,7.8,7.8,0,0,0,.434,1.711,12.963,12.963,0,0,0-2.914,8.448c0,8.314,4.032,12.884,12.663,14.3a7.938,7.938,0,0,0-1.185,2.863,6.152,6.152,0,0,1-1.3.373,7.921,7.921,0,0,1-1.187.087,5.437,5.437,0,0,1-2.464-.48,8.959,8.959,0,0,1-2.292-2.427,7.782,7.782,0,0,0-2.607-2.558,6.779,6.779,0,0,0-2.655-.666,2.782,2.782,0,0,0-.434.032,1.653,1.653,0,0,0-1.207.778,1.188,1.188,0,0,0-.086,1.032,3.9,3.9,0,0,0,1.631,1.461,6.291,6.291,0,0,1,1.828,1.872,9.142,9.142,0,0,1,.76,1.555c.124.3.259.637.443,1.038A7.82,7.82,0,0,0,16.332,50.5a10.622,10.622,0,0,0,4.26.892l.162,0a19.464,19.464,0,0,0,2.179-.2v4.631c0,1.136-1.445,1.181-1.8,1.181-.045,0,.733.268.733.268a28.937,28.937,0,0,0,18.169,0S40.883,56.984,40.838,56.99Z" transform="translate(-1.797 -0.743)" opacity="0.07"/>
  <path id="パス_603" data-name="パス 603" d="M49.3,28.387a12.231,12.231,0,0,0-3.086-8.35,6.974,6.974,0,0,0,.541-1.908,9.516,9.516,0,0,0-.3-3.986,14.59,14.59,0,0,0-.547-1.822,6.764,6.764,0,0,0-2.483.251A15.92,15.92,0,0,0,39.9,14.1c-.66.394-1.325.825-1.851,1.175a27.494,27.494,0,0,0-7.325-.945,27.735,27.735,0,0,0-7.387.95c-.528-.351-1.2-.786-1.862-1.182a15.92,15.92,0,0,0-3.531-1.526,6.764,6.764,0,0,0-2.483-.251,14.592,14.592,0,0,0-.547,1.822,9.516,9.516,0,0,0-.3,3.986,6.926,6.926,0,0,0,.557,1.943,12.26,12.26,0,0,0-3.029,8.315c0,8.722,4.712,12.7,13.3,13.754a7.247,7.247,0,0,0-1.9,3.923,7.5,7.5,0,0,1-1.84.574,7.108,7.108,0,0,1-4.13-.485,9.6,9.6,0,0,1-2.521-2.643A7.047,7.047,0,0,0,12.745,41.2a5.361,5.361,0,0,0-2.672-.577c-.577.092-.85.516-.729.821a3.3,3.3,0,0,0,1.306,1.093,6.978,6.978,0,0,1,2.1,2.125,20.18,20.18,0,0,1,1.245,2.672,7.136,7.136,0,0,0,2.49,2.308,9.6,9.6,0,0,0,3.919.79,23.362,23.362,0,0,0,3.037-.3V55.6A1.5,1.5,0,0,1,21.7,57.077a29.067,29.067,0,0,0,18.046,0A1.5,1.5,0,0,1,38.012,55.6V47.141a7.245,7.245,0,0,0-2-4.993C44.533,41.124,49.3,37.238,49.3,28.387ZM12.12,42.081c-.225-.115-.346-.328-.27-.478s.321-.178.545-.063.346.328.27.478S12.344,42.2,12.12,42.081Zm1.767,1.1c-.118.128-.372.087-.567-.09s-.258-.427-.14-.555.372-.087.567.09S14,43.053,13.886,43.181ZM14.986,45c-.149.1-.4.007-.563-.219s-.172-.5-.023-.6.4-.007.563.219S15.134,44.9,14.986,45Zm1.579,1.372c-.1.163-.386.171-.637.017s-.373-.41-.273-.573.386-.171.637-.017S16.665,46.212,16.564,46.375Zm1.493,1.343c-.311-.038-.541-.232-.515-.433s.3-.332.606-.294.541.232.515.433S18.368,47.756,18.057,47.718Zm2.407.348c-.331-.019-.589-.208-.576-.421s.292-.372.622-.353.589.208.576.421S20.795,48.085,20.464,48.066Zm2.271-.227c-.353,0-.639-.184-.639-.41s.286-.41.639-.41.639.184.639.41S23.087,47.839,22.735,47.839Z" transform="translate(-1.566 -0.515)" fill="#fff"/>
</svg>
