<svg id="gulp" xmlns="http://www.w3.org/2000/svg" width="25.132" height="57.118" viewBox="0 0 25.132 57.118">
  <path id="パス_984" data-name="パス 984" d="M20.159,56.214l.535-9.132L22.173,44.5a25.321,25.321,0,0,1-9,1.409,25.252,25.252,0,0,1-8.948-1.383l1.657,2.818.586,8.871c0,.951,3.065,1.722,6.845,1.722s6.845-.771,6.845-1.722M18.469,13.571l1.124-4.547,6.224-6.7L24.177.892l-6.59,7.14-1.305,5.432q-1.473-.051-2.948-.05c-6.94,0-12.566.809-12.566,1.808S6.4,17.029,13.335,17.029,25.9,16.22,25.9,15.222c0-.735-3.051-1.368-7.431-1.65" transform="translate(-0.769 -0.819)" fill="#d34a47"/>
  <path id="パス_985" data-name="パス 985" d="M151,146.133a5.409,5.409,0,0,1-.973.058c-.726,0-1.242,0-1.448-.192a.324.324,0,0,1-.085-.218.279.279,0,0,1,.208-.252l.11.173c-.048.017-.075.036-.075.057a3.088,3.088,0,0,0,1.311.157c.569-.007,1.255-.054,1.256-.15,0-.029-.052-.057-.142-.078l.109-.171c.147.046.276.134.276.287,0,.26-.332.3-.547.329" transform="translate(-133.946 -130.837)" fill="#d34a47"/>
  <path id="パス_986" data-name="パス 986" d="M26.606,1.661c.156-.183-.081-.652-.53-1.047s-.941-.566-1.1-.383.081.652.531,1.047.941.567,1.1.383M20.66,32.952c-.147-1.439,3.1-3.524,2.27-3.591-1.8.1-2.691,2.135-3.594,4.263-.331.78-1.465,4.1-2.208,3.7s.963-3.143,1.442-4.767c-.552.411-2.576,2.006-3.1.512-.839.722-2.631,1.114-2.428-.784-.446.8-1.447,1.921-2.649,1.456-1.578-.611.915-5.71,1.534-5.453s-.125,1.419-.32,1.87c-.429.993-.925,2.241-.594,2.5.567.438,2.111-1.656,2.146-1.7.289-.387,1.112-2.919,1.775-2.628s-1.654,3.633-.788,4.3c.175.134.89-.083,1.325-.56.281-.309.185-.993,1.123-3.261s1.774-5.094,2.417-4.879.113,1.665-.118,2.206c-1.083,2.537-2.956,6.729-2.072,6.412a3.737,3.737,0,0,0,2.208-1.362c.865-1.026.825-2.717,1.4-2.681s.48.578.34.991c.567-.658,2.689-2.045,3.2-.672.607,1.626-3.036,3.975-2.128,3.855a5.49,5.49,0,0,0,2.933-1.876l1.686-15.374s-1.7,1.424-12.489,1.424S1.659,15.444,1.659,15.444L3.094,29.477c.762-2.2,2.571-6.639,5.423-6.49,1.3.068,3.029,2.6,1.546,2.687-.628.036-.692-1.265-1.435-1.456A2.222,2.222,0,0,0,6.861,25c-.963.956-3.033,4.726-2.76,6.606.349,2.4,3.261-.833,3.753-1.792.347-.675.581-2.676,1.34-2.467s-.066,2.275-.616,4.1c-.618,2.05-.943,4.213-1.718,3.964s.487-2.9.442-3.359c-.728.681-2.07,2.406-3.786,1.553l.891,8.714s2.369,1.9,9.506,1.9,9.594-1.869,9.594-1.869L24.615,32.26c-.906.894-3.772,2.483-3.955.692" transform="translate(-1.57 -0.158)" fill="#d34a47"/>
</svg>
