<svg id="icons8-html-5" xmlns="http://www.w3.org/2000/svg" width="55.44" height="63" viewBox="0 0 55.44 63">
  <path id="パス_587" data-name="パス 587" d="M62.44,5.257H7l5.133,55.65,22.587,7.35,22.587-7.35L62.44,5.257Z" transform="translate(-7 -5.257)" fill="#e44d27"/>
  <path id="パス_588" data-name="パス 588" d="M24.192,7.526V61.112l17.783-5.253L46.159,7.526Z" transform="translate(3.004 -3.342)" fill="#f16529"/>
  <path id="パス_589" data-name="パス 589" d="M24.192,32.645V26.328h13.6L36.745,45.279,24.192,49.491V43.174l6.276-3.158,1.046-7.37ZM38.837,20.011v-7.37H24.192v7.37Z" transform="translate(3.344 -0.089)" fill="#fff"/>
  <path id="パス_590" data-name="パス 590" d="M30.133,43.174v6.317l-13.6-4.211V35.8h6.276v4.211ZM21.765,20.011h8.368v-7.37H14.442l2.092,20h13.6V26.328H22.811Z" transform="translate(-2.212 -0.089)" fill="#fff"/>
</svg>
