<svg xmlns="http://www.w3.org/2000/svg" xmlns:xlink="http://www.w3.org/1999/xlink" width="35" height="35" viewBox="0 0 35 35">
  <defs>
    <clipPath id="clip-path">
      <rect id="長方形_414" data-name="長方形 414" width="35" height="35"/>
    </clipPath>
  </defs>
  <g id="マスクグループ_13" data-name="マスクグループ 13" transform="translate(0 35) rotate(-90)" clip-path="url(#clip-path)">
    <g id="レイヤー_2" data-name="レイヤー 2" transform="translate(0.465 -0.017)">
      <g id="Logo">
        <path id="パス_475" data-name="パス 475" d="M17.4,3.137c4.645,0,5.195.018,7.029.1a9.629,9.629,0,0,1,3.23.6,5.386,5.386,0,0,1,2,1.3,5.386,5.386,0,0,1,1.3,2,9.629,9.629,0,0,1,.6,3.23c.084,1.835.1,2.384.1,7.029s-.018,5.195-.1,7.029a9.629,9.629,0,0,1-.6,3.23,5.766,5.766,0,0,1-3.3,3.3,9.629,9.629,0,0,1-3.23.6c-1.834.084-2.384.1-7.029.1s-5.2-.018-7.029-.1a9.629,9.629,0,0,1-3.23-.6,5.386,5.386,0,0,1-2-1.3,5.386,5.386,0,0,1-1.3-2,9.629,9.629,0,0,1-.6-3.23c-.084-1.835-.1-2.384-.1-7.029s.018-5.195.1-7.029a9.629,9.629,0,0,1,.6-3.23,5.386,5.386,0,0,1,1.3-2,5.386,5.386,0,0,1,2-1.3,9.629,9.629,0,0,1,3.23-.6c1.835-.084,2.384-.1,7.029-.1M17.4,0c-4.724,0-5.317.02-7.172.1A12.766,12.766,0,0,0,6,.916,8.529,8.529,0,0,0,2.919,2.922,8.529,8.529,0,0,0,.917,6,12.663,12.663,0,0,0,.1,10.226C.021,12.077,0,12.674,0,17.4s.02,5.317.1,7.172a12.756,12.756,0,0,0,.809,4.222,8.529,8.529,0,0,0,2.006,3.081A8.54,8.54,0,0,0,6,33.88a12.785,12.785,0,0,0,4.222.809c1.851.085,2.448.1,7.172.1s5.317-.02,7.172-.1a12.756,12.756,0,0,0,4.222-.809,8.9,8.9,0,0,0,5.088-5.088,12.785,12.785,0,0,0,.809-4.222c.085-1.851.1-2.448.1-7.172s-.02-5.317-.1-7.172A12.756,12.756,0,0,0,33.878,6a8.54,8.54,0,0,0-2.007-3.081,8.529,8.529,0,0,0-3.081-2A12.663,12.663,0,0,0,24.567.108C22.716.023,22.12,0,17.4,0Z" fill="#fff"/>
        <path id="パス_476" data-name="パス 476" d="M8.933,0a8.933,8.933,0,1,0,8.933,8.933A8.933,8.933,0,0,0,8.933,0Zm0,14.731a5.8,5.8,0,1,1,5.8-5.8,5.8,5.8,0,0,1-5.8,5.8Z" transform="translate(8.462 8.466)" fill="#fff"/>
        <circle id="楕円形_132" data-name="楕円形 132" cx="2.087" cy="2.087" r="2.087" transform="translate(24.594 6.025)" fill="#fff"/>
      </g>
    </g>
  </g>
</svg>
