<svg xmlns="http://www.w3.org/2000/svg" xmlns:xlink="http://www.w3.org/1999/xlink" width="147" height="147" viewBox="0 0 147 147">
  <defs>
    <clipPath id="clip-path">
      <rect id="長方形_480" data-name="長方形 480" width="147" height="147" transform="translate(887 1418)" fill="#3d3d3d" stroke="#707070" stroke-width="1"/>
    </clipPath>
  </defs>
  <g id="マスクグループ_32" data-name="マスクグループ 32" transform="translate(-887 -1418)" clip-path="url(#clip-path)">
    <g id="rocket" transform="translate(887 1418)">
      <g id="グループ_1455" data-name="グループ 1455">
        <g id="グループ_1454" data-name="グループ 1454">
          <path id="パス_899" data-name="パス 899" d="M133.907,24.48H88.2A71.733,71.733,0,0,0,75.352,3.266a2.536,2.536,0,0,0-3.585-.105c-.036.034-.071.069-.105.105A71.73,71.73,0,0,0,58.8,24.48H13.093A13.107,13.107,0,0,0,0,37.573v71.814A13.107,13.107,0,0,0,13.093,122.48H133.907A13.107,13.107,0,0,0,147,109.388V37.573A13.107,13.107,0,0,0,133.907,24.48ZM73.5,8.7A66.828,66.828,0,0,1,85.672,32.46a44.344,44.344,0,0,1-24.343,0A66.826,66.826,0,0,1,73.5,8.7ZM58.8,61.23V50.524A66.721,66.721,0,0,1,60.192,37.23,49.168,49.168,0,0,0,73.5,39.1,49.168,49.168,0,0,0,86.808,37.23,66.7,66.7,0,0,1,88.2,50.524V75.93H58.8Zm83.3,48.157a8.2,8.2,0,0,1-8.193,8.193H13.093A8.2,8.2,0,0,1,4.9,109.388V37.573a8.2,8.2,0,0,1,8.193-8.193H57.1a71.692,71.692,0,0,0-3.2,21.144v8.426A19.62,19.62,0,0,0,36.75,78.38a2.45,2.45,0,0,0,2.45,2.45h2.45v7.35a2.45,2.45,0,0,0,4.9,0V80.83h4.9v26.95a2.45,2.45,0,0,0,4.9,0V80.83h34.3v29.4a2.45,2.45,0,1,0,4.9,0V80.83h4.9V93.08a2.45,2.45,0,1,0,4.9,0V80.83h2.45a2.45,2.45,0,0,0,2.45-2.45A19.62,19.62,0,0,0,93.1,58.949V50.524A71.692,71.692,0,0,0,89.9,29.38h44.009a8.2,8.2,0,0,1,8.193,8.193Zm-88.2-45.5V75.93H41.853A14.741,14.741,0,0,1,53.9,63.884ZM93.1,75.93V63.884A14.742,14.742,0,0,1,105.147,75.93Z" fill="#3d3d3d"/>
        </g>
      </g>
      <g id="グループ_1457" data-name="グループ 1457">
        <g id="グループ_1456" data-name="グループ 1456">
          <path id="パス_900" data-name="パス 900" d="M144.55,129.83H2.45A2.45,2.45,0,0,0,0,132.28v9.8a2.45,2.45,0,0,0,2.45,2.45h142.1a2.45,2.45,0,0,0,2.45-2.45v-9.8A2.45,2.45,0,0,0,144.55,129.83Zm-2.45,9.8H4.9v-4.9H142.1Z" fill="#3d3d3d"/>
        </g>
      </g>
      <g id="グループ_1459" data-name="グループ 1459">
        <g id="グループ_1458" data-name="グループ 1458">
          <path id="パス_901" data-name="パス 901" d="M73.5,46.53a9.8,9.8,0,1,0,9.8,9.8A9.8,9.8,0,0,0,73.5,46.53Zm0,14.7a4.9,4.9,0,1,1,4.9-4.9A4.9,4.9,0,0,1,73.5,61.23Z" fill="#3d3d3d"/>
        </g>
      </g>
      <g id="グループ_1461" data-name="グループ 1461">
        <g id="グループ_1460" data-name="グループ 1460">
          <path id="パス_902" data-name="パス 902" d="M73.5,85.73a9.8,9.8,0,0,0-9.8,9.8,18.637,18.637,0,0,0,5.5,13.264l4.3,4.307,4.3-4.307A18.637,18.637,0,0,0,83.3,95.53,9.8,9.8,0,0,0,73.5,85.73Zm.84,19.6-.84.84-.84-.84a13.772,13.772,0,0,1-4.06-9.8,4.9,4.9,0,0,1,9.8,0A13.773,13.773,0,0,1,74.34,105.33Z" fill="#3d3d3d"/>
        </g>
      </g>
      <g id="グループ_1463" data-name="グループ 1463">
        <g id="グループ_1462" data-name="グループ 1462">
          <path id="パス_903" data-name="パス 903" d="M44.1,95.53a2.45,2.45,0,0,0-2.45,2.45v2.45a2.45,2.45,0,0,0,4.9,0V97.98A2.45,2.45,0,0,0,44.1,95.53Z" fill="#fda14b"/>
        </g>
      </g>
      <g id="グループ_1465" data-name="グループ 1465">
        <g id="グループ_1464" data-name="グループ 1464">
          <path id="パス_904" data-name="パス 904" d="M102.9,100.43a2.45,2.45,0,0,0-2.45,2.45v2.45a2.45,2.45,0,1,0,4.9,0v-2.45A2.45,2.45,0,0,0,102.9,100.43Z" fill="#fda14b"/>
        </g>
      </g>
    </g>
  </g>
</svg>
