<svg xmlns="http://www.w3.org/2000/svg" width="25.322" height="28.506" viewBox="0 0 25.322 28.506">
  <path id="Shape" d="M22.794,21.583V19.4a2.145,2.145,0,0,1,.082-.734,1.447,1.447,0,0,1,2.738,0,2.139,2.139,0,0,1,.082.734v3.362a2.775,2.775,0,0,1-.041.591,1.491,1.491,0,0,1-1.083,1.08,2.8,2.8,0,0,1-.593.041H20.607a2.162,2.162,0,0,1-.736-.082,1.44,1.44,0,0,1,0-2.73,2.163,2.163,0,0,1,.736-.081ZM34.811,36.825H16.724V20.941a.706.706,0,0,1,.215-.52l4.69-4.676a.711.711,0,0,1,.521-.214H34.811Zm2.054-24.879a3.839,3.839,0,0,0-.45-.02H21.669c-.163,0-.327.01-.439.02a2.852,2.852,0,0,0-1.758.856l-5.488,5.471a2.837,2.837,0,0,0-.858,1.752c-.01.112-.021.275-.021.438V38.424a3.728,3.728,0,0,0,.021.448,1.818,1.818,0,0,0,1.543,1.538,3.794,3.794,0,0,0,.45.02h21.3a3.792,3.792,0,0,0,.45-.02,1.818,1.818,0,0,0,1.543-1.538,3.851,3.851,0,0,0,.02-.448V13.932a3.851,3.851,0,0,0-.02-.448A1.818,1.818,0,0,0,36.865,11.945Z" transform="translate(-13.106 -11.925)" fill="#41c9b4" fill-rule="evenodd"/>
</svg>
