<svg xmlns="http://www.w3.org/2000/svg" width="31.465" height="35.422" viewBox="0 0 31.465 35.422">
  <path id="Shape" d="M25.144,23.927V21.217a2.665,2.665,0,0,1,.1-.912,1.8,1.8,0,0,1,3.4,0,2.658,2.658,0,0,1,.1.912V25.4a3.448,3.448,0,0,1-.051.734,1.853,1.853,0,0,1-1.346,1.342,3.481,3.481,0,0,1-.737.051h-4.19a2.687,2.687,0,0,1-.914-.1,1.79,1.79,0,0,1,0-3.393,2.688,2.688,0,0,1,.914-.1ZM40.077,42.866H17.6V23.129a.878.878,0,0,1,.267-.646L23.7,16.672a.883.883,0,0,1,.648-.266H40.077ZM42.629,11.95a4.77,4.77,0,0,0-.559-.025H23.747c-.2,0-.406.013-.546.025a3.544,3.544,0,0,0-2.184,1.063l-6.819,6.8a3.525,3.525,0,0,0-1.066,2.178c-.013.139-.026.342-.026.544V44.853a4.632,4.632,0,0,0,.026.557,2.259,2.259,0,0,0,1.917,1.911,4.714,4.714,0,0,0,.559.025H42.07a4.712,4.712,0,0,0,.559-.025,2.259,2.259,0,0,0,1.918-1.911,4.785,4.785,0,0,0,.025-.557V14.419a4.785,4.785,0,0,0-.025-.557A2.26,2.26,0,0,0,42.629,11.95Z" transform="translate(-13.106 -11.925)" fill="#fff" fill-rule="evenodd"/>
</svg>
