<svg id="php-1" xmlns="http://www.w3.org/2000/svg" width="78" height="40" viewBox="0 0 78 40">
  <ellipse id="楕円形_174" data-name="楕円形 174" cx="39" cy="20" rx="39" ry="20" fill="#8993be"/>
  <path id="パス_987" data-name="パス 987" d="M35.945,44.171,40.2,22.322h9.846c4.258.27,6.387,2.428,6.387,6.2,0,6.474-5.056,10.25-9.58,9.98h-4.79L41,44.171Zm7.185-9.71,1.331-8.092H47.92c1.863,0,3.193.809,3.193,2.428-.266,4.586-2.395,5.395-4.79,5.665H43.13Zm12.317,4.046L59.7,16.658h5.056L63.7,22.322h4.79c4.258.27,5.855,2.428,5.323,5.125L71.946,38.507H66.624l1.863-9.98c.266-1.349.266-2.158-1.6-2.158H62.9L60.5,38.507Zm16.159,5.665,4.258-21.849h9.846c4.258.27,6.387,2.428,6.387,6.2,0,6.474-5.056,10.25-9.58,9.98h-4.79l-1.065,5.664Zm7.185-9.71,1.331-8.092h3.46c1.863,0,3.193.809,3.193,2.428-.266,4.586-2.395,5.395-4.79,5.665H78.79Z" transform="translate(-25.019 -11.533)" fill-rule="evenodd"/>
</svg>
