<svg xmlns="http://www.w3.org/2000/svg" width="48" height="24" viewBox="0 0 48 24">
  <g id="php-1" transform="translate(0.379 -0.052)">
    <ellipse id="楕円形_174" data-name="楕円形 174" cx="24" cy="12" rx="24" ry="12" transform="translate(-0.379 0.052)" fill="#3d3d3d"/>
    <path id="パス_987" data-name="パス 987" d="M35.945,33.208l2.561-13.143h5.923c2.561.162,3.842,1.46,3.842,3.732a5.7,5.7,0,0,1-5.763,6H39.627l-.64,3.407Zm4.322-5.841.8-4.868h2.081c1.121,0,1.921.487,1.921,1.46-.16,2.759-1.441,3.245-2.881,3.408H40.267ZM47.676,29.8l2.561-13.143h3.042l-.64,3.407H55.52c2.561.162,3.522,1.46,3.2,3.083L57.6,29.8H54.4l1.121-6c.16-.811.16-1.3-.96-1.3h-2.4l-1.441,7.3Zm9.72,3.407,2.561-13.143h5.923c2.561.162,3.842,1.46,3.842,3.732a5.7,5.7,0,0,1-5.763,6H61.078l-.64,3.407Zm4.322-5.841.8-4.868H64.6c1.121,0,1.921.487,1.921,1.46-.16,2.759-1.441,3.245-2.881,3.408H61.719Z" transform="translate(-29.411 -13.07)" fill="#fff" fill-rule="evenodd"/>
  </g>
</svg>
