<svg id="グループ_1676" data-name="グループ 1676" xmlns="http://www.w3.org/2000/svg" xmlns:xlink="http://www.w3.org/1999/xlink" width="58" height="58" viewBox="0 0 58 58">
  <defs>
    <clipPath id="clip-path">
      <path id="パス_614" data-name="パス 614" d="M30.907,25.855a10.2,10.2,0,0,1,10.2-10.2H78.712a10.2,10.2,0,0,1,10.2,10.2V63.464a10.2,10.2,0,0,1-10.2,10.2H41.1a10.2,10.2,0,0,1-10.2-10.2Z" transform="translate(-30.907 -15.66)" fill="#011e36"/>
    </clipPath>
  </defs>
  <g id="グループ_1224" data-name="グループ 1224" clip-path="url(#clip-path)">
    <rect id="長方形_448" data-name="長方形 448" width="57.91" height="57.91" transform="translate(0 -0.068)" fill="#011e36"/>
    <path id="パス_612" data-name="パス 612" d="M145.22,184.86V160.372c0-.179.077-.268.23-.268q.612,0,1.456-.019l1.821-.038,2.069-.038q1.092-.019,2.165-.019a14.4,14.4,0,0,1,4.9.728,8.516,8.516,0,0,1,3.2,1.954,7.5,7.5,0,0,1,1.744,2.7,8.975,8.975,0,0,1,.536,3.085,8.514,8.514,0,0,1-1.418,5.058,8.006,8.006,0,0,1-3.832,2.893,15.249,15.249,0,0,1-5.365.9q-.843,0-1.187-.019t-1.035-.019v7.549a.305.305,0,0,1-.345.345h-4.675Q145.22,185.166,145.22,184.86Zm5.289-20.157v7.933q.5.039.919.038h1.264a9.039,9.039,0,0,0,2.74-.383,4.132,4.132,0,0,0,1.955-1.265,3.679,3.679,0,0,0,.747-2.452,3.873,3.873,0,0,0-.556-2.108,3.574,3.574,0,0,0-1.667-1.36,7.1,7.1,0,0,0-2.8-.479q-.919,0-1.628.019T150.509,164.7Z" transform="translate(-132.27 -143.635)" fill="#31a8ff"/>
    <path id="パス_613" data-name="パス 613" d="M335.349,214.9a13.517,13.517,0,0,0-2.761-.8,12.111,12.111,0,0,0-2.663-.307,4.961,4.961,0,0,0-1.437.173,1.29,1.29,0,0,0-.748.479,1.207,1.207,0,0,0-.191.651,1.019,1.019,0,0,0,.23.613,2.614,2.614,0,0,0,.805.632,16.031,16.031,0,0,0,1.686.785,16.729,16.729,0,0,1,3.66,1.744,5.567,5.567,0,0,1,1.878,1.974,5.262,5.262,0,0,1,.556,2.452,5.506,5.506,0,0,1-.92,3.162,6.047,6.047,0,0,1-2.663,2.127,10.72,10.72,0,0,1-4.311.767,15.59,15.59,0,0,1-3.238-.307,11.865,11.865,0,0,1-2.587-.766.5.5,0,0,1-.268-.46v-4.139a.226.226,0,0,1,.019-.119.223.223,0,0,1,.077-.092.185.185,0,0,1,.108-.023.187.187,0,0,1,.1.042,11.184,11.184,0,0,0,3.1,1.169,12.157,12.157,0,0,0,2.8.364,4.3,4.3,0,0,0,1.973-.345,1.083,1.083,0,0,0,.632-1,1.268,1.268,0,0,0-.574-.958,9.52,9.52,0,0,0-2.338-1.111,14.1,14.1,0,0,1-3.391-1.724,5.84,5.84,0,0,1-1.8-2.012,5.277,5.277,0,0,1-.556-2.434,5.491,5.491,0,0,1,.805-2.874,5.847,5.847,0,0,1,2.491-2.185,7.9,7.9,0,0,1,3.878-.968,24.235,24.235,0,0,1,3.231.047,11.026,11.026,0,0,1,2.53.844.348.348,0,0,1,.23.211,1.05,1.05,0,0,1,.038.287v3.871a.256.256,0,0,1-.115.23.251.251,0,0,1-.269,0Z" transform="translate(-289.356 -187.432)" fill="#31a8ff"/>
  </g>
</svg>
