<svg id="グループ_1636" data-name="グループ 1636" xmlns="http://www.w3.org/2000/svg" xmlns:xlink="http://www.w3.org/1999/xlink" width="34.89" height="34.89" viewBox="0 0 34.89 34.89">
  <defs>
    <clipPath id="clip-path">
      <path id="パス_614" data-name="パス 614" d="M30.907,21.793A6.133,6.133,0,0,1,37.04,15.66H59.664A6.133,6.133,0,0,1,65.8,21.793V44.417a6.133,6.133,0,0,1-6.133,6.133H37.04a6.133,6.133,0,0,1-6.133-6.133Z" transform="translate(-30.907 -15.66)" fill="#3d3d3d"/>
    </clipPath>
  </defs>
  <g id="グループ_1224" data-name="グループ 1224" clip-path="url(#clip-path)">
    <rect id="長方形_448" data-name="長方形 448" width="34.835" height="34.835" transform="translate(0 -0.041)" fill="#3d3d3d"/>
    <path id="パス_612" data-name="パス 612" d="M145.22,174.948v-14.73c0-.107.046-.161.138-.161q.368,0,.876-.012l1.1-.023,1.245-.023q.657-.011,1.3-.012a8.661,8.661,0,0,1,2.951.438,5.123,5.123,0,0,1,1.925,1.176,4.512,4.512,0,0,1,1.049,1.625,5.4,5.4,0,0,1,.322,1.856,5.121,5.121,0,0,1-.853,3.043,4.816,4.816,0,0,1-2.305,1.74,9.173,9.173,0,0,1-3.227.542q-.507,0-.714-.012t-.622-.012v4.541a.184.184,0,0,1-.207.208h-2.812Q145.22,175.132,145.22,174.948Zm3.181-12.126v4.772q.3.023.553.023h.761a5.437,5.437,0,0,0,1.648-.23,2.486,2.486,0,0,0,1.176-.761,2.213,2.213,0,0,0,.449-1.475,2.33,2.33,0,0,0-.334-1.268,2.15,2.15,0,0,0-1-.818,4.27,4.27,0,0,0-1.683-.288q-.553,0-.98.012T148.4,162.822Z" transform="translate(-137.43 -150.149)" fill="#fff"/>
    <path id="パス_613" data-name="パス 613" d="M330.179,212.7a8.132,8.132,0,0,0-1.661-.484,7.286,7.286,0,0,0-1.6-.185,2.985,2.985,0,0,0-.865.1.776.776,0,0,0-.45.288.726.726,0,0,0-.115.392.613.613,0,0,0,.138.369,1.572,1.572,0,0,0,.484.38,9.638,9.638,0,0,0,1.014.472,10.063,10.063,0,0,1,2.2,1.049,3.348,3.348,0,0,1,1.13,1.187,3.166,3.166,0,0,1,.334,1.475,3.312,3.312,0,0,1-.553,1.9,3.638,3.638,0,0,1-1.6,1.279,6.449,6.449,0,0,1-2.593.461,9.378,9.378,0,0,1-1.948-.184,7.138,7.138,0,0,1-1.556-.461.3.3,0,0,1-.161-.277v-2.49a.137.137,0,0,1,.011-.071.135.135,0,0,1,.046-.055.111.111,0,0,1,.065-.014.112.112,0,0,1,.061.025,6.728,6.728,0,0,0,1.868.7,7.312,7.312,0,0,0,1.683.219,2.585,2.585,0,0,0,1.187-.208.651.651,0,0,0,.38-.6.763.763,0,0,0-.346-.576,5.727,5.727,0,0,0-1.406-.669,8.48,8.48,0,0,1-2.04-1.037,3.514,3.514,0,0,1-1.083-1.21,3.174,3.174,0,0,1-.335-1.464,3.3,3.3,0,0,1,.484-1.729,3.517,3.517,0,0,1,1.5-1.314,4.753,4.753,0,0,1,2.333-.582,14.579,14.579,0,0,1,1.944.028,6.632,6.632,0,0,1,1.522.508.208.208,0,0,1,.084.047.211.211,0,0,1,.054.08.633.633,0,0,1,.023.173v2.328a.154.154,0,0,1-.069.138.151.151,0,0,1-.162,0Z" transform="translate(-302.512 -196.175)" fill="#fff"/>
  </g>
</svg>
