<svg xmlns="http://www.w3.org/2000/svg" width="83.475" height="63" viewBox="0 0 83.475 63">
  <path id="sass-1" d="M71.744,36.417a17.1,17.1,0,0,0-7.566,1.773,15.725,15.725,0,0,1-1.7-3.94,10.971,10.971,0,0,1-.147-3.316,26.711,26.711,0,0,1,.994-3.579c-.016-.148-.18-.87-1.859-.887s-3.131.328-3.294.772a18.959,18.959,0,0,0-.7,2.512c-.293,1.543-3.359,7.01-5.1,9.883a10.123,10.123,0,0,1-1.158-2.89,10.97,10.97,0,0,1-.147-3.316,26.728,26.728,0,0,1,.995-3.579c-.016-.148-.179-.87-1.859-.887s-3.131.328-3.294.772-.342,1.494-.7,2.512c-.343,1.018-4.419,10.146-5.479,12.526-.538,1.215-1.011,2.183-1.353,2.84s-.016.049-.049.115c-.293.558-.457.87-.457.87v.017c-.228.41-.473.8-.587.8a5.511,5.511,0,0,1,.033-2.61c.6-3.169,2.071-8.11,2.055-8.291,0-.082.277-.952-.946-1.4a1.479,1.479,0,0,0-1.712.3c-.1,0-.179.263-.179.263s1.321-5.565-2.527-5.565c-2.413,0-5.739,2.643-7.386,5.056-1.044.575-3.261,1.789-5.609,3.086-.9.493-1.826,1.018-2.707,1.494l-.179-.2C14.464,36.548,5.838,33,6.2,26.271c.13-2.446.978-8.9,16.566-16.713,12.767-6.4,22.99-4.646,24.767-.739C50.058,14.4,42.068,24.777,28.8,26.271c-5.055.575-7.713-1.4-8.381-2.134-.7-.772-.8-.8-1.06-.657-.424.23-.163.919,0,1.33A7.884,7.884,0,0,0,24.149,28.6c2.429.8,8.365,1.248,15.539-1.543C47.726,23.924,54,15.223,52.161,7.95c-1.875-7.4-14.071-9.834-25.6-5.713C19.7,4.7,12.263,8.541,6.914,13.581.555,19.557-.456,24.777-.032,26.944c1.484,7.732,12.066,12.772,16.305,16.5-.212.115-.408.23-.587.328-2.12,1.051-10.191,5.3-12.213,9.8-2.283,5.089.359,8.75,2.12,9.243,5.446,1.527,11.022-1.215,14.039-5.73,3-4.515,2.641-10.376,1.255-13.052l-.049-.1,1.663-.985c1.076-.64,2.136-1.231,3.065-1.74a20.563,20.563,0,0,0-1.092,5.582c-.228,2.89.946,6.632,2.495,8.11a2.748,2.748,0,0,0,2.006.657c1.794,0,2.609-1.494,3.506-3.283,1.109-2.183,2.087-4.712,2.087-4.712s-1.223,6.846,2.12,6.846c1.223,0,2.446-1.592,3-2.413v.016s.033-.049.1-.164.134-.206.2-.312V51.5c.489-.854,1.582-2.807,3.212-6.041,2.1-4.17,4.125-9.391,4.125-9.391a30.139,30.139,0,0,0,.8,3.382,32.474,32.474,0,0,0,1.744,3.94c-.489.69-.783,1.084-.783,1.084l.016.016c-.391.525-.832,1.084-1.288,1.642a47.664,47.664,0,0,0-3.913,4.942,1.359,1.359,0,0,0,.359,1.806,3.245,3.245,0,0,0,2.054.328,9.1,9.1,0,0,0,3.065-.706,10.591,10.591,0,0,0,2.641-1.4,5.935,5.935,0,0,0,2.527-5.237,10.587,10.587,0,0,0-.962-3.694c.147-.213.294-.427.44-.657a69.43,69.43,0,0,0,4.565-7.962,30.136,30.136,0,0,0,.8,3.382,23.792,23.792,0,0,0,1.484,3.382,14.586,14.586,0,0,0-4.451,5.8c-.962,2.791-.212,4.055,1.207,4.351a4.315,4.315,0,0,0,2.234-.46,10.1,10.1,0,0,0,2.821-1.461c1.631-1.215,3.2-2.906,3.114-5.188a10,10,0,0,0-.7-3.07,15.785,15.785,0,0,1,8.087-.936c7.256.854,8.691,5.418,8.414,7.322a4.9,4.9,0,0,1-2.3,3.283c-.505.312-.669.427-.62.657.065.345.293.328.734.263a5.671,5.671,0,0,0,3.946-5.073c.2-4.515-4.06-9.44-11.609-9.391ZM15.784,55.412c-2.4,2.643-5.772,3.645-7.207,2.791-1.549-.9-.946-4.794,2.006-7.6a38.384,38.384,0,0,1,5.658-4.252c.342-.213.864-.525,1.484-.9a1.739,1.739,0,0,1,.163-.1c.114-.066.245-.148.375-.23A10.523,10.523,0,0,1,15.784,55.412Zm17.528-12c-.832,2.052-2.593,7.322-3.652,7.026-.913-.246-1.467-4.236-.18-8.176a18.289,18.289,0,0,1,2.853-5.27c1.321-1.478,2.756-1.97,3.114-1.363C35.872,36.417,33.834,42.13,33.312,43.411Zm14.463,6.961c-.359.181-.685.312-.832.214-.114-.066.147-.312.147-.312s1.81-1.954,2.527-2.857c.408-.525.9-1.133,1.419-1.822v.2c0,2.364-2.25,3.94-3.261,4.58ZM58.928,47.81c-.261-.2-.228-.8.652-2.709a10.144,10.144,0,0,1,2.478-3.218A4.086,4.086,0,0,1,62.3,43.3,4.613,4.613,0,0,1,58.928,47.81Z" transform="translate(0.116 -0.241)" fill="#ce649a"/>
</svg>
