<svg xmlns="http://www.w3.org/2000/svg" xmlns:xlink="http://www.w3.org/1999/xlink" width="147" height="147" viewBox="0 0 147 147">
  <defs>
    <clipPath id="clip-path">
      <rect id="長方形_479" data-name="長方形 479" width="147" height="147" transform="translate(544 1418)" fill="#fff" stroke="#707070" stroke-width="1"/>
    </clipPath>
  </defs>
  <g id="マスクグループ_29" data-name="マスクグループ 29" transform="translate(-544 -1418)" clip-path="url(#clip-path)">
    <g id="speak" transform="translate(544 1418)">
      <g id="グループ_1420" data-name="グループ 1420">
        <g id="グループ_1419" data-name="グループ 1419">
          <path id="パス_881" data-name="パス 881" d="M110.25,88.2a24.527,24.527,0,0,1-24.5,24.5v4.9a29.432,29.432,0,0,0,29.4-29.4Z" fill="#fda14b"/>
        </g>
      </g>
      <g id="グループ_1422" data-name="グループ 1422">
        <g id="グループ_1421" data-name="グループ 1421">
          <path id="パス_882" data-name="パス 882" d="M120.05,88.2a34.337,34.337,0,0,1-34.3,34.3v4.9a39.247,39.247,0,0,0,39.2-39.2Z" fill="#fda14b"/>
        </g>
      </g>
      <g id="グループ_1424" data-name="グループ 1424">
        <g id="グループ_1423" data-name="グループ 1423">
          <path id="パス_883" data-name="パス 883" d="M129.85,88.2a44.151,44.151,0,0,1-44.1,44.1v4.9a49.056,49.056,0,0,0,49-49Z" fill="#fda14b"/>
        </g>
      </g>
      <g id="グループ_1426" data-name="グループ 1426">
        <g id="グループ_1425" data-name="グループ 1425">
          <path id="パス_884" data-name="パス 884" d="M100.45,88.2a14.714,14.714,0,0,1-14.7,14.7v4.9a19.622,19.622,0,0,0,19.6-19.6Z" fill="#fda14b"/>
        </g>
      </g>
      <g id="グループ_1428" data-name="グループ 1428">
        <g id="グループ_1427" data-name="グループ 1427">
          <path id="パス_885" data-name="パス 885" d="M120.05,12.409V2.45A2.45,2.45,0,0,0,117.6,0H4.9A2.45,2.45,0,0,0,2.45,2.45V73.5A46.6,46.6,0,0,0,49,120.05a50.959,50.959,0,0,0,30.87-10.361,2.45,2.45,0,0,0,.98-1.96V85.75h14.9a2.45,2.45,0,0,0,2.337-1.715,51.319,51.319,0,0,0,2.1-10.535h7.228a10.163,10.163,0,0,0,7.487-17.03L100.45,40.7V34.178A21.92,21.92,0,0,0,120.05,12.409ZM95.55,68.6a46.571,46.571,0,0,1-1.634,12.25H78.4a2.45,2.45,0,0,0-2.45,2.45v23.192A46.06,46.06,0,0,1,49,115.15,41.7,41.7,0,0,1,7.35,73.5V34.3h88.2ZM111.3,59.78a5.263,5.263,0,0,1-3.878,8.82H100.45V47.949ZM98.157,29.4H7.35V4.9h107.8v7.509A17.01,17.01,0,0,1,98.157,29.4Z" fill="#3d3d3d"/>
        </g>
      </g>
      <g id="グループ_1430" data-name="グループ 1430">
        <g id="グループ_1429" data-name="グループ 1429">
          <path id="パス_886" data-name="パス 886" d="M139.65,88.2a53.961,53.961,0,0,1-53.9,53.9V147a58.869,58.869,0,0,0,58.8-58.8Z" fill="#fda14b"/>
        </g>
      </g>
    </g>
  </g>
</svg>
