<svg xmlns="http://www.w3.org/2000/svg" xmlns:xlink="http://www.w3.org/1999/xlink" width="46" height="46" viewBox="0 0 46 46">
  <defs>
    <clipPath id="clip-path">
      <rect id="長方形_58" data-name="長方形 58" width="46" height="46" transform="translate(348.907 536)" fill="none" stroke="#707070" stroke-width="1"/>
    </clipPath>
  </defs>
  <g id="マスクグループ_10" data-name="マスクグループ 10" transform="translate(-536 394.907) rotate(-90)" clip-path="url(#clip-path)">
    <g id="Twitter_Logo_Blue" transform="translate(348.907 536)">
      <rect id="長方形_412" data-name="長方形 412" width="46" height="46" fill="none"/>
      <path id="パス_474" data-name="パス 474" d="M17.666,34.683c10.849,0,16.783-8.988,16.783-16.783,0-.255,0-.509-.017-.762a12,12,0,0,0,2.943-3.053,11.774,11.774,0,0,1-3.388.928A5.919,5.919,0,0,0,36.58,11.75a11.821,11.821,0,0,1-3.746,1.432,5.9,5.9,0,0,0-10.052,5.38A16.746,16.746,0,0,1,10.626,12.4a5.9,5.9,0,0,0,1.826,7.874,5.855,5.855,0,0,1-2.677-.738v.075a5.9,5.9,0,0,0,4.732,5.782,5.889,5.889,0,0,1-2.663.1,5.905,5.905,0,0,0,5.511,4.1,11.836,11.836,0,0,1-7.325,2.53,12.007,12.007,0,0,1-1.4-.085,16.7,16.7,0,0,0,9.041,2.645" transform="translate(46.002 0.002) rotate(90)" fill="#1da1f2"/>
    </g>
  </g>
</svg>
