<svg id="icons8-wordpress" xmlns="http://www.w3.org/2000/svg" width="34.89" height="34.89" viewBox="0 0 34.89 34.89">
  <path id="パス_855" data-name="パス 855" d="M21.445,4.05A17.395,17.395,0,1,0,38.84,21.445,17.395,17.395,0,0,0,21.445,4.05Z" transform="translate(-4 -4)" fill="#fff"/>
  <path id="パス_856" data-name="パス 856" d="M8,21.447a13.446,13.446,0,0,0,7.579,12.1L9.164,15.974A13.4,13.4,0,0,0,8,21.447Zm22.526-.677a7.063,7.063,0,0,0-1.4-3.708A6.33,6.33,0,0,1,27.8,13.908a2.6,2.6,0,0,1,2.556-2.387c.06,0,.113.005.173.007a13.445,13.445,0,0,0-20.049,2.144,1.337,1.337,0,0,0,.513.033c1.4,0,3.584-.168,3.584-.168a.555.555,0,0,1,.083,1.106s-.726.088-1.536.128l4.985,14.941,2.941-8.825-2.188-6.091c-.724-.039-1.411-.128-1.411-.128a.555.555,0,0,1,.082-1.106s2.225.168,3.544.168c1.408,0,3.584-.168,3.584-.168a.555.555,0,0,1,.087,1.106s-.731.088-1.54.128l4.951,14.8L29.5,25.119A12.468,12.468,0,0,0,30.527,20.769ZM21.683,22.62,17.649,34.346a13.323,13.323,0,0,0,3.8.548,13.508,13.508,0,0,0,4.468-.762,1.943,1.943,0,0,1-.1-.185Zm11.566-7.629a10.043,10.043,0,0,1,.091,1.383,12.719,12.719,0,0,1-1.024,4.822L28.21,33.074a13.467,13.467,0,0,0,5.039-18.084Z" transform="translate(-4.002 -4.002)" fill="#3d3d3d"/>
  <path id="パス_857" data-name="パス 857" d="M4,21.445A17.445,17.445,0,1,0,21.445,4,17.466,17.466,0,0,0,4,21.445Zm1.74,0a15.7,15.7,0,1,1,15.7,15.7A15.718,15.718,0,0,1,5.74,21.445Z" transform="translate(-4 -4)" fill="#3d3d3d"/>
</svg>
