<svg id="icons8-wordpress" xmlns="http://www.w3.org/2000/svg" width="58" height="58" viewBox="0 0 58 58">
  <path id="パス_855" data-name="パス 855" d="M32.967,4.05A28.917,28.917,0,1,0,61.884,32.967,28.917,28.917,0,0,0,32.967,4.05Z" transform="translate(-3.967 -3.967)" fill="#fff"/>
  <path id="パス_856" data-name="パス 856" d="M8,30.354A22.353,22.353,0,0,0,20.6,50.472L9.935,21.256A22.272,22.272,0,0,0,8,30.354Zm37.447-1.126c0-2.762-1.485-4.68-2.333-6.164-1.136-1.857-2.2-3.4-2.2-5.242a4.323,4.323,0,0,1,4.249-3.968c.1,0,.189.008.288.011A22.351,22.351,0,0,0,12.12,17.429a2.223,2.223,0,0,0,.854.054c2.332,0,5.957-.279,5.957-.279a.922.922,0,0,1,.138,1.839s-1.207.147-2.554.212L24.8,44.093l4.89-14.671L26.054,19.3c-1.2-.064-2.346-.212-2.346-.212a.922.922,0,0,1,.137-1.839s3.7.279,5.892.279c2.34,0,5.957-.279,5.957-.279a.922.922,0,0,1,.145,1.839s-1.215.147-2.559.212l8.23,24.6,2.234-7.441A20.727,20.727,0,0,0,45.448,29.228ZM30.746,32.3,24.04,51.8a22.148,22.148,0,0,0,6.315.911,22.456,22.456,0,0,0,7.427-1.267,3.229,3.229,0,0,1-.165-.307ZM49.973,19.621a16.694,16.694,0,0,1,.151,2.3,21.144,21.144,0,0,1-1.7,8.015L41.6,49.683a22.388,22.388,0,0,0,8.377-30.062Z" transform="translate(-1.353 -1.354)" fill="#007499"/>
  <path id="パス_857" data-name="パス 857" d="M4,33A29,29,0,1,0,33,4,29.034,29.034,0,0,0,4,33Zm2.893,0A26.107,26.107,0,1,1,33,59.1,26.13,26.13,0,0,1,6.893,33Z" transform="translate(-4 -4)" fill="#007499"/>
</svg>
