<svg id="グループ_1677" data-name="グループ 1677" xmlns="http://www.w3.org/2000/svg" xmlns:xlink="http://www.w3.org/1999/xlink" width="58" height="58" viewBox="0 0 58 58">
  <defs>
    <clipPath id="clip-path">
      <path id="パス_611" data-name="パス 611" d="M30.907,25.855a10.2,10.2,0,0,1,10.2-10.2H78.712a10.2,10.2,0,0,1,10.2,10.2V63.464a10.2,10.2,0,0,1-10.2,10.2H41.1a10.2,10.2,0,0,1-10.2-10.2Z" transform="translate(-30.907 -15.66)" fill="#460137"/>
    </clipPath>
  </defs>
  <g id="グループ_1222" data-name="グループ 1222" clip-path="url(#clip-path)">
    <path id="パス_994" data-name="パス 994" d="M0,0H57.946V57.946H0Z" transform="translate(0 0.054)" fill="#460137"/>
    <path id="パス_609" data-name="パス 609" d="M132.379,164.544l-7.128,11.472,7.626,12.42a.4.4,0,0,1,.038.288c-.026.09-.115.147-.269.172h-5.441a.859.859,0,0,1-.8-.383c-.512-1-1.023-1.913-1.533-2.9s-1.054-1.986-1.628-3.008-1.143-2.056-1.705-3.1H121.5q-.767,1.533-1.59,3.066t-1.629,3.046c-.537,1.01-1.086,1.939-1.648,2.935a.542.542,0,0,1-.536.345h-5.25a.155.155,0,0,1-.064-.007.156.156,0,0,1-.094-.084.159.159,0,0,1-.014-.063.38.38,0,0,1,.057-.268l7.4-12.075-7.2-11.894c-.077-.1-.089-.185-.038-.249a.28.28,0,0,1,.23-.1h5.4a.8.8,0,0,1,.345.058.7.7,0,0,1,.23.211c.46,1.022.971,1.752,1.533,2.773s1.13,2.031,1.705,3.027,1.105,2.005,1.591,3.027h.038q.766-1.571,1.552-3.066t1.61-3.008c.549-1.009,1.079-1.72,1.591-2.716a.584.584,0,0,1,.153-.249.554.554,0,0,1,.306-.058h5.02a.22.22,0,0,1,.191.383Z" transform="translate(-101.631 -147.332)" fill="#ff61f6"/>
    <path id="パス_610" data-name="パス 610" d="M317.654,176.742a11.869,11.869,0,0,1-5.116-1.073,8.136,8.136,0,0,1-3.584-3.238,10.36,10.36,0,0,1-1.3-5.423,10.008,10.008,0,0,1,1.3-5.02,9.568,9.568,0,0,1,3.794-3.679,12.249,12.249,0,0,1,6.017-1.38q.192,0,.5.019c.2.013.639.032.921.057v-6.78a.617.617,0,0,1,.521-.694h3.709a.695.695,0,0,1,.693.693v21.842q0,.652.057,1.418t.1,1.379a.4.4,0,0,1-.23.383,17.584,17.584,0,0,1-3.7,1.15A20.782,20.782,0,0,1,317.654,176.742Zm2.441-4.752V161.528a5.343,5.343,0,0,0-.735-.115,7.617,7.617,0,0,0-.786-.038,5.916,5.916,0,0,0-2.682.613,4.931,4.931,0,0,0-2.8,4.79,6.761,6.761,0,0,0,.4,2.452,4.659,4.659,0,0,0,1.073,1.686,4.084,4.084,0,0,0,1.609.958,6.3,6.3,0,0,0,1.973.307q.537,0,1-.038A5.2,5.2,0,0,0,320.1,171.99Z" transform="translate(-276.296 -134.367)" fill="#ff61f6"/>
  </g>
</svg>
