<svg id="グループ_1637" data-name="グループ 1637" xmlns="http://www.w3.org/2000/svg" xmlns:xlink="http://www.w3.org/1999/xlink" width="34.89" height="34.89" viewBox="0 0 34.89 34.89">
  <defs>
    <clipPath id="clip-path">
      <path id="パス_611" data-name="パス 611" d="M30.907,21.793A6.133,6.133,0,0,1,37.04,15.66H59.664A6.133,6.133,0,0,1,65.8,21.793V44.417a6.133,6.133,0,0,1-6.133,6.133H37.04a6.133,6.133,0,0,1-6.133-6.133Z" transform="translate(-30.907 -15.66)" fill="#3d3d3d"/>
    </clipPath>
  </defs>
  <g id="グループ_1222" data-name="グループ 1222" clip-path="url(#clip-path)">
    <rect id="長方形_447" data-name="長方形 447" width="34.857" height="34.857" transform="translate(0 0.032)" fill="#3d3d3d"/>
    <path id="パス_609" data-name="パス 609" d="M123.727,164.388l-4.288,6.9,4.588,7.471a.239.239,0,0,1,.023.173c-.016.054-.069.089-.162.1h-3.273a.517.517,0,0,1-.484-.231c-.308-.6-.615-1.151-.922-1.743s-.634-1.195-.98-1.81-.688-1.237-1.026-1.867h-.023q-.461.922-.956,1.844t-.98,1.833c-.323.607-.653,1.166-.991,1.766a.326.326,0,0,1-.322.207h-3.158a.094.094,0,0,1-.095-.054.1.1,0,0,1-.008-.038.229.229,0,0,1,.034-.161l4.449-7.264-4.334-7.155c-.046-.061-.054-.111-.023-.15a.168.168,0,0,1,.138-.058h3.251a.482.482,0,0,1,.207.035.42.42,0,0,1,.138.127c.277.615.584,1.054.922,1.668s.68,1.222,1.026,1.821.665,1.206.957,1.821h.023q.461-.945.933-1.844t.968-1.81c.33-.607.649-1.035.957-1.634a.351.351,0,0,1,.092-.15.333.333,0,0,1,.184-.035h3.02a.132.132,0,0,1,.115.231Z" transform="translate(-105.231 -154.035)" fill="#fff"/>
    <path id="パス_610" data-name="パス 610" d="M313.666,165.9a7.14,7.14,0,0,1-3.077-.645,4.894,4.894,0,0,1-2.156-1.948,6.232,6.232,0,0,1-.784-3.262,6.02,6.02,0,0,1,.784-3.02,5.756,5.756,0,0,1,2.282-2.213,7.368,7.368,0,0,1,3.619-.83q.115,0,.3.012c.123.008.385.02.554.035V149.95a.371.371,0,0,1,.313-.418h2.231a.418.418,0,0,1,.417.417v13.139q0,.392.034.853t.058.83a.238.238,0,0,1-.138.231,10.576,10.576,0,0,1-2.224.692A12.5,12.5,0,0,1,313.666,165.9Zm1.468-2.859v-6.293a3.216,3.216,0,0,0-.442-.069,4.586,4.586,0,0,0-.473-.023,3.559,3.559,0,0,0-1.614.369,2.966,2.966,0,0,0-1.683,2.881,4.068,4.068,0,0,0,.242,1.475,2.8,2.8,0,0,0,.646,1.014,2.457,2.457,0,0,0,.968.576,3.791,3.791,0,0,0,1.187.185q.323,0,.6-.023A3.131,3.131,0,0,0,315.134,163.041Z" transform="translate(-288.787 -140.409)" fill="#fff"/>
  </g>
</svg>
