<svg id="icons8-css3" xmlns="http://www.w3.org/2000/svg" width="33.133" height="37.651" viewBox="0 0 33.133 37.651">
  <path id="パス_583" data-name="パス 583" d="M40.619,4.636H7.486l2.5,33.886L23.74,42.286l13.753-3.765L40.619,4.636Z" transform="translate(-7.486 -4.636)" fill="#3d3d3d"/>
  <path id="パス_584" data-name="パス 584" d="M23.786,7.924V39.057l11.732-3.113,2.607-28.02Z" transform="translate(-8.251 -4.665)" fill="#3d3d3d"/>
  <path id="パス_585" data-name="パス 585" d="M33.563,13.071H23.786v3.866H29L28.348,20.8H23.786v4.51h4.562v4.51l-4.562,1.289v4.51l8.473-2.577L32.911,20.8h0Z" transform="translate(-7.806 -5.22)" fill="#fff"/>
  <path id="パス_586" data-name="パス 586" d="M24.16,13.071v3.866H15.036V13.071ZM19.6,20.8v4.51H24.16V20.8Zm.652,6.443H15.687l.652,5.8,7.821,2.577v-4.51L20.25,29.824Z" transform="translate(-7.649 -5.22)" fill="#fff"/>
</svg>
