<svg id="figma-1" xmlns="http://www.w3.org/2000/svg" width="22.476" height="34.055" viewBox="0 0 22.476 34.055">
  <path id="path0_fill" d="M5.7,211.407a5.705,5.705,0,0,0,5.7-5.7V200H5.7a5.7,5.7,0,0,0,0,11.407Z" transform="translate(0 -177.352)" fill="#3d3d3d"/>
  <path id="path1_fill" d="M0,105.7A5.705,5.705,0,0,1,5.7,100h5.7v11.407H5.7A5.705,5.705,0,0,1,0,105.7Z" transform="translate(0 -88.676)" fill="#3d3d3d"/>
  <path id="path1_fill_1_" d="M0,5.7A5.705,5.705,0,0,1,5.7,0h5.7V11.407H5.7A5.705,5.705,0,0,1,0,5.7Z" fill="#3d3d3d"/>
  <path id="path2_fill" d="M100,0h5.7a5.7,5.7,0,0,1,0,11.407H100Z" transform="translate(-88.93)" fill="#3d3d3d"/>
  <path id="path3_fill" d="M111.407,105.7a5.7,5.7,0,1,1-5.7-5.7A5.705,5.705,0,0,1,111.407,105.7Z" transform="translate(-88.93 -88.676)" fill="#3d3d3d"/>
</svg>
