<svg id="icons8-github" xmlns="http://www.w3.org/2000/svg" xmlns:xlink="http://www.w3.org/1999/xlink" width="34.89" height="34.89" viewBox="0 0 34.89 34.89">
  <defs>
    <linearGradient id="linear-gradient" y1="0.5" x2="1" y2="0.5" gradientUnits="objectBoundingBox">
      <stop offset="0" stop-color="#4c4c4c"/>
      <stop offset="1" stop-color="#343434"/>
    </linearGradient>
  </defs>
  <path id="パス_600" data-name="パス 600" d="M21.445,4a17.44,17.44,0,0,0-5.39,34.027H26.835A17.44,17.44,0,0,0,21.445,4Z" transform="translate(-4 -4)" fill="url(#linear-gradient)"/>
  <path id="パス_601" data-name="パス 601" d="M27.34,38.218l-.009-5.085a5.194,5.194,0,0,0-.563-2.356c4.947-.994,7.354-3.918,7.354-8.925a8.209,8.209,0,0,0-1.733-5.191,5.208,5.208,0,0,0,.193-.86,6.457,6.457,0,0,0-.169-2.617l-.024-.1a9.641,9.641,0,0,0-.367-1.217l-.1-.247-.1-.247-.265-.028-.266-.028s-.175-.018-.439-.018a4.583,4.583,0,0,0-1.427.211l-.172.058a9.655,9.655,0,0,0-2.12.937c-.251.15-.525.321-.819.512a18.53,18.53,0,0,0-8.539,0c-.3-.193-.574-.366-.826-.517a9.7,9.7,0,0,0-2.12-.937l-.172-.058a4.571,4.571,0,0,0-1.426-.211c-.265,0-.439.018-.439.018l-.265.028-.263.027-.1.246-.1.248a9.568,9.568,0,0,0-.367,1.22l-.024.1a6.452,6.452,0,0,0-.169,2.616,5.246,5.246,0,0,0,.2.887,8.247,8.247,0,0,0-1.7,5.165c0,4.994,2.41,7.917,7.364,8.919a5.266,5.266,0,0,0-.4,1.073,2.849,2.849,0,0,1-.472.12,4.352,4.352,0,0,1-.648.047,2.875,2.875,0,0,1-1.258-.227,4.943,4.943,0,0,1-1.24-1.331,4.966,4.966,0,0,0-1.747-1.69,4.522,4.522,0,0,0-1.779-.44,2.081,2.081,0,0,0-.33.025,1.429,1.429,0,0,0-1.038.684,1.152,1.152,0,0,0-.077,1,2.6,2.6,0,0,0,1.178,1.1,3.389,3.389,0,0,1,.938.973,5.007,5.007,0,0,1,.423.87c.076.189.16.394.274.642a5.293,5.293,0,0,0,1.844,1.774,6.587,6.587,0,0,0,2.769.6l.108,0h0a8.48,8.48,0,0,0,.88-.062v2.291c0,.464-.471.569-1.1.559l.48.161a17.253,17.253,0,0,0,11.754,0l.616-.23C27.941,38.693,27.346,38.592,27.34,38.218Z" transform="translate(-4.531 -5.086)" opacity="0.05"/>
  <path id="パス_602" data-name="パス 602" d="M28.078,38.982c-.356.041-1.123-.1-1.123-.7V33.2a4.775,4.775,0,0,0-.821-2.676c5.187-.839,7.611-3.589,7.611-8.6a7.766,7.766,0,0,0-1.788-5.106,4.7,4.7,0,0,0,.253-1.006,6.016,6.016,0,0,0-.161-2.456l-.024-.1a9.013,9.013,0,0,0-.348-1.157l-.1-.247-.266-.028s-.156-.017-.394-.017a4.12,4.12,0,0,0-1.286.189l-.172.058a9.343,9.343,0,0,0-2.035.9c-.291.174-.616.378-.966.609a18.008,18.008,0,0,0-8.7,0c-.353-.232-.68-.438-.973-.613a9.3,9.3,0,0,0-2.035-.9l-.172-.058A4.142,4.142,0,0,0,13.3,11.8c-.238,0-.394.017-.394.017l-.265.028-.1.248a9.014,9.014,0,0,0-.348,1.157l-.024.1a5.981,5.981,0,0,0-.161,2.455,4.69,4.69,0,0,0,.261,1.03,7.8,7.8,0,0,0-1.753,5.082c0,5,2.426,7.75,7.617,8.6a4.775,4.775,0,0,0-.713,1.722,3.7,3.7,0,0,1-.781.225,4.764,4.764,0,0,1-.714.053,3.271,3.271,0,0,1-1.482-.289,5.389,5.389,0,0,1-1.379-1.46A4.681,4.681,0,0,0,11.5,29.225a4.078,4.078,0,0,0-1.6-.4,1.673,1.673,0,0,0-.261.019.994.994,0,0,0-.726.468.714.714,0,0,0-.052.621,2.345,2.345,0,0,0,.981.879,3.784,3.784,0,0,1,1.1,1.126,5.5,5.5,0,0,1,.457.936c.075.183.156.383.267.624a4.7,4.7,0,0,0,1.671,1.581,6.389,6.389,0,0,0,2.562.537l.1,0a11.709,11.709,0,0,0,1.311-.118v2.786c0,.683-.869.71-1.082.71-.027,0,.441.161.441.161a17.407,17.407,0,0,0,10.929,0S28.1,38.979,28.078,38.982Z" transform="translate(-4.592 -5.147)" opacity="0.07"/>
  <path id="パス_603" data-name="パス 603" d="M33.369,21.976a7.357,7.357,0,0,0-1.856-5.023,4.2,4.2,0,0,0,.325-1.148,5.724,5.724,0,0,0-.178-2.4,8.776,8.776,0,0,0-.329-1.1,4.069,4.069,0,0,0-1.493.151,9.577,9.577,0,0,0-2.124.918c-.4.237-.8.5-1.114.707a17.461,17.461,0,0,0-8.85,0c-.317-.211-.72-.473-1.12-.711a9.577,9.577,0,0,0-2.124-.918,4.069,4.069,0,0,0-1.493-.151,8.778,8.778,0,0,0-.329,1.1,5.724,5.724,0,0,0-.178,2.4,4.166,4.166,0,0,0,.335,1.169,7.375,7.375,0,0,0-1.822,5c0,5.247,2.834,7.642,8,8.274a4.36,4.36,0,0,0-1.143,2.36,4.512,4.512,0,0,1-1.107.346,4.276,4.276,0,0,1-2.484-.292,5.776,5.776,0,0,1-1.516-1.59,4.239,4.239,0,0,0-1.388-1.388,3.225,3.225,0,0,0-1.607-.347c-.347.055-.511.31-.438.494a1.987,1.987,0,0,0,.786.658,4.2,4.2,0,0,1,1.261,1.279,12.139,12.139,0,0,1,.749,1.607,4.293,4.293,0,0,0,1.5,1.388,5.776,5.776,0,0,0,2.357.475,14.052,14.052,0,0,0,1.827-.181v3.289a.9.9,0,0,1-1.044.888,17.485,17.485,0,0,0,10.856,0,.9.9,0,0,1-1.044-.889v-5.09a4.358,4.358,0,0,0-1.2-3C30.5,29.638,33.369,27.3,33.369,21.976ZM11,30.213c-.135-.069-.208-.2-.162-.288s.193-.107.328-.038.208.2.162.288S11.137,30.282,11,30.213Zm1.063.662c-.071.077-.224.053-.341-.054s-.155-.257-.084-.334.224-.053.341.054S12.136,30.8,12.065,30.875Zm.661,1.1c-.089.063-.241,0-.338-.132s-.1-.3-.014-.361.241,0,.338.132S12.816,31.908,12.726,31.971Zm.95.825c-.061.1-.232.1-.383.011s-.224-.246-.164-.345.232-.1.383-.011S13.737,32.7,13.676,32.8Zm.9.808c-.187-.023-.325-.139-.31-.26s.179-.2.365-.177.325.139.31.26S14.761,33.627,14.574,33.6Zm1.448.21c-.2-.011-.354-.125-.346-.253s.175-.224.374-.212.354.125.346.253S16.221,33.825,16.022,33.814Zm1.366-.137c-.212,0-.384-.11-.384-.246s.172-.246.384-.246.384.11.384.246S17.6,33.677,17.388,33.677Z" transform="translate(-4.654 -5.209)" fill="#fff"/>
</svg>
