<svg id="gulp" xmlns="http://www.w3.org/2000/svg" width="15.118" height="34.359" viewBox="0 0 15.118 34.359">
  <path id="パス_984" data-name="パス 984" d="M12.433,34.171l.322-5.493.889-1.554a15.232,15.232,0,0,1-5.413.847,15.19,15.19,0,0,1-5.383-.832l1,1.695L4.2,34.171c0,.572,1.843,1.036,4.118,1.036s4.118-.464,4.118-1.036M11.417,8.519l.676-2.735,3.744-4.032L14.85.892l-3.964,4.3L10.1,8.455q-.886-.03-1.773-.03c-4.175,0-7.559.487-7.559,1.087S4.153,10.6,8.328,10.6s7.559-.487,7.559-1.087c0-.442-1.835-.823-4.47-.993" transform="translate(-0.769 -0.848)" fill="#3d3d3d"/>
  <path id="パス_985" data-name="パス 985" d="M150,145.887a3.254,3.254,0,0,1-.585.035c-.437,0-.747,0-.871-.115a.2.2,0,0,1-.051-.131.168.168,0,0,1,.125-.151l.066.1c-.029.01-.045.022-.045.034a1.857,1.857,0,0,0,.789.095c.342,0,.755-.032.756-.09,0-.018-.031-.034-.086-.047l.066-.1c.089.028.166.081.166.173,0,.156-.2.18-.329.2" transform="translate(-139.743 -136.686)" fill="#3d3d3d"/>
  <path id="パス_986" data-name="パス 986" d="M16.666,1.062c.094-.11-.049-.392-.319-.63S15.78.092,15.686.2s.049.392.319.63.566.341.66.231M13.089,19.885c-.089-.866,1.867-2.12,1.365-2.16-1.081.063-1.618,1.285-2.162,2.564-.2.469-.881,2.469-1.328,2.223s.58-1.891.867-2.867c-.332.247-1.55,1.206-1.863.308-.5.435-1.582.67-1.461-.472-.268.482-.871,1.155-1.594.876-.949-.367.55-3.435.923-3.28s-.075.854-.193,1.125c-.258.6-.556,1.348-.357,1.5.341.263,1.27-1,1.291-1.024.174-.233.669-1.756,1.068-1.581s-.995,2.186-.474,2.585c.105.081.535-.05.8-.337.169-.186.111-.6.675-1.962S11.71,14.32,12.1,14.45s.068,1-.071,1.327c-.651,1.526-1.778,4.048-1.247,3.857a2.248,2.248,0,0,0,1.328-.819c.52-.617.5-1.635.843-1.613s.289.348.2.6c.341-.4,1.618-1.23,1.926-.4.365.978-1.826,2.391-1.28,2.319a3.3,3.3,0,0,0,1.764-1.129L16.58,9.335s-1.021.857-7.513.857-7.407-.839-7.407-.839l.863,8.441c.458-1.321,1.547-3.994,3.262-3.9.78.041,1.822,1.565.93,1.617-.378.022-.416-.761-.863-.876a1.337,1.337,0,0,0-1.062.472c-.579.575-1.825,2.843-1.66,3.974.21,1.442,1.961-.5,2.258-1.078.209-.406.35-1.61.806-1.484s-.04,1.369-.371,2.467c-.372,1.233-.567,2.534-1.033,2.385s.293-1.742.266-2.021c-.438.41-1.245,1.448-2.277.934l.536,5.242s1.425,1.142,5.718,1.142S14.8,25.54,14.8,25.54l.666-6.071c-.545.538-2.269,1.494-2.379.417" transform="translate(-1.605 -0.158)" fill="#3d3d3d"/>
</svg>
