<svg id="icons8-html-5" xmlns="http://www.w3.org/2000/svg" width="33.133" height="37.651" viewBox="0 0 33.133 37.651">
  <path id="パス_587" data-name="パス 587" d="M40.133,5.257H7l3.068,33.258,13.5,4.393,13.5-4.393L40.133,5.257Z" transform="translate(-7 -5.257)" fill="#3d3d3d"/>
  <path id="パス_588" data-name="パス 588" d="M24.192,7.526V39.55l10.627-3.14,2.5-28.885Z" transform="translate(-7.939 -5.025)" fill="#3d3d3d"/>
  <path id="パス_589" data-name="パス 589" d="M24.192,24.6V20.821h8.127l-.625,11.326-7.5,2.517V30.888L27.943,29l.625-4.4Zm8.752-7.55v-4.4H24.192v4.4Z" transform="translate(-7.736 -5.14)" fill="#fff"/>
  <path id="パス_590" data-name="パス 590" d="M23.82,30.888v3.775l-8.127-2.517V26.484h3.751V29Zm-5-13.842h5v-4.4H14.442L15.693,24.6H23.82V20.821H19.444Z" transform="translate(-7.133 -5.14)" fill="#fff"/>
</svg>
